<svg width="172" height="252" viewBox="0 0 172 252" fill="none" xmlns="http://www.w3.org/2000/svg">
<rect width="160" height="48.002" transform="translate(6)" fill="#0F62FE"/>
<rect x="6" width="160" height="48.001" fill="#0F62FE"/>
<path d="M30.652 29H29.42L28.44 26.116H24.492L23.512 29H22.322L25.738 19.228H27.236L30.652 29ZM28.146 25.08L26.494 20.32H26.424L24.772 25.08H28.146ZM35.0067 29.168C32.9767 29.168 31.7867 27.698 31.7867 25.388C31.7867 23.078 32.9767 21.608 35.0067 21.608C36.4347 21.608 37.2888 22.308 37.7088 23.302L36.7708 23.778C36.5047 23.036 35.8887 22.602 35.0067 22.602C33.6768 22.602 32.9907 23.512 32.9907 24.772V26.004C32.9907 27.264 33.6768 28.174 35.0067 28.174C35.9167 28.174 36.5748 27.74 36.9668 26.914L37.7788 27.46C37.3168 28.496 36.3788 29.168 35.0067 29.168ZM42.5158 29H41.1158C40.3458 29 39.9258 28.51 39.9258 27.81V22.756H38.7358V21.776H39.4078C39.8838 21.776 40.0378 21.608 40.0378 21.118V19.774H41.0458V21.776H42.6278V22.756H41.0458V28.02H42.5158V29ZM45.148 20.082C44.672 20.082 44.462 19.83 44.462 19.452V19.27C44.462 18.892 44.672 18.64 45.148 18.64C45.624 18.64 45.834 18.892 45.834 19.27V19.452C45.834 19.83 45.624 20.082 45.148 20.082ZM44.588 29V21.776H45.708V29H44.588ZM50.978 29.168C49.046 29.168 47.716 27.684 47.716 25.388C47.716 23.092 49.046 21.608 50.978 21.608C52.91 21.608 54.24 23.092 54.24 25.388C54.24 27.684 52.91 29.168 50.978 29.168ZM50.978 28.174C52.182 28.174 53.036 27.432 53.036 25.906V24.87C53.036 23.344 52.182 22.602 50.978 22.602C49.774 22.602 48.92 23.344 48.92 24.87V25.906C48.92 27.432 49.774 28.174 50.978 28.174ZM57.362 29H56.242V21.776H57.362V22.952H57.418C57.768 22.14 58.384 21.608 59.462 21.608C60.946 21.608 61.884 22.616 61.884 24.366V29H60.764V24.562C60.764 23.274 60.204 22.616 59.126 22.616C58.23 22.616 57.362 23.064 57.362 23.988V29ZM66.529 29.168C65.199 29.168 64.317 28.608 63.673 27.754L64.471 27.11C65.031 27.81 65.703 28.216 66.613 28.216C67.565 28.216 68.125 27.782 68.125 27.04C68.125 26.48 67.817 26.046 66.865 25.906L66.291 25.822C64.961 25.626 63.967 25.08 63.967 23.736C63.967 22.308 65.073 21.608 66.543 21.608C67.705 21.608 68.475 22.042 69.063 22.77L68.321 23.442C67.999 22.994 67.383 22.56 66.459 22.56C65.535 22.56 65.045 22.994 65.045 23.68C65.045 24.38 65.535 24.66 66.431 24.8L66.991 24.884C68.587 25.122 69.203 25.822 69.203 26.914C69.203 28.314 68.181 29.168 66.529 29.168ZM71.9869 29.168C71.3989 29.168 71.1329 28.832 71.1329 28.356V28.174C71.1329 27.698 71.3989 27.362 71.9869 27.362C72.5749 27.362 72.8409 27.698 72.8409 28.174V28.356C72.8409 28.832 72.5749 29.168 71.9869 29.168ZM75.9613 29.168C75.3733 29.168 75.1073 28.832 75.1073 28.356V28.174C75.1073 27.698 75.3733 27.362 75.9613 27.362C76.5493 27.362 76.8153 27.698 76.8153 28.174V28.356C76.8153 28.832 76.5493 29.168 75.9613 29.168ZM79.9358 29.168C79.3478 29.168 79.0818 28.832 79.0818 28.356V28.174C79.0818 27.698 79.3478 27.362 79.9358 27.362C80.5238 27.362 80.7898 27.698 80.7898 28.174V28.356C80.7898 28.832 80.5238 29.168 79.9358 29.168Z" fill="white"/>
<rect width="80" height="0.001" transform="translate(22 33)" fill="white" style="mix-blend-mode:multiply"/>
<rect width="16" height="16" transform="translate(134 16.0005)" fill="white" style="mix-blend-mode:multiply"/>
<path d="M142 21.0005L147 26.0005L146.3 26.7005L142 22.4005L137.7 26.7005L137 26.0005L142 21.0005Z" fill="white"/>
<g filter="url(#filter0_d_106_242699)">
<path d="M6 52.001H166V242.001C166 243.106 165.105 244.001 164 244.001H8C6.89543 244.001 6 243.106 6 242.001V52.001Z" fill="white" shape-rendering="crispEdges"/>
<rect width="160" height="48" transform="translate(6 52.001)" fill="white" style="mix-blend-mode:multiply"/>
<g clip-path="url(#clip0_106_242699)">
<path d="M26.956 81.001H25.528L22.28 71.229H23.54L25.15 76.157L26.228 79.825H26.298L27.404 76.157L29.028 71.229H30.246L26.956 81.001ZM32.4412 72.083C31.9652 72.083 31.7552 71.831 31.7552 71.453V71.271C31.7552 70.893 31.9652 70.641 32.4412 70.641C32.9172 70.641 33.1272 70.893 33.1272 71.271V71.453C33.1272 71.831 32.9172 72.083 32.4412 72.083ZM31.8812 81.001V73.777H33.0012V81.001H31.8812ZM38.2572 81.169C36.2972 81.169 35.0092 79.685 35.0092 77.389C35.0092 75.093 36.2972 73.609 38.2572 73.609C40.1893 73.609 41.3793 75.093 41.3793 77.137V77.669H36.1852V78.005C36.1852 79.251 36.9832 80.189 38.3272 80.189C39.2372 80.189 39.9372 79.741 40.3153 78.943L41.1132 79.517C40.6512 80.497 39.6152 81.169 38.2572 81.169ZM38.2572 74.547C37.0392 74.547 36.1852 75.471 36.1852 76.731V76.829H40.1752V76.675C40.1752 75.401 39.4053 74.547 38.2572 74.547ZM44.4925 81.001L42.5605 73.777H43.6525L44.4225 76.899L45.1925 80.063H45.2205L46.1025 76.899L47.0125 73.777H48.0065L48.9445 76.899L49.8405 80.063H49.8685L50.6105 76.899L51.3945 73.777H52.4445L50.5265 81.001H49.1405L48.1325 77.529L47.5025 75.331H47.4745L46.8585 77.529L45.8505 81.001H44.4925ZM62.3112 81.001V79.825H62.2552C61.8212 80.721 61.1352 81.169 60.1412 81.169C58.3352 81.169 57.2012 79.699 57.2012 77.389C57.2012 75.079 58.3352 73.609 60.1412 73.609C61.1352 73.609 61.8772 74.043 62.2552 74.953H62.3112V70.641H63.4312V81.001H62.3112ZM60.4492 80.161C61.4712 80.161 62.3112 79.629 62.3112 78.691V76.003C62.3112 75.205 61.4712 74.617 60.4492 74.617C59.1892 74.617 58.4052 75.485 58.4052 76.773V78.005C58.4052 79.293 59.1892 80.161 60.4492 80.161ZM68.7023 81.169C66.7703 81.169 65.4403 79.685 65.4403 77.389C65.4403 75.093 66.7703 73.609 68.7023 73.609C70.6343 73.609 71.9643 75.093 71.9643 77.389C71.9643 79.685 70.6343 81.169 68.7023 81.169ZM68.7023 80.175C69.9063 80.175 70.7603 79.433 70.7603 77.907V76.871C70.7603 75.345 69.9063 74.603 68.7023 74.603C67.4983 74.603 66.6443 75.345 66.6443 76.871V77.907C66.6443 79.433 67.4983 80.175 68.7023 80.175ZM76.6542 81.169C74.6242 81.169 73.4342 79.699 73.4342 77.389C73.4342 75.079 74.6242 73.609 76.6542 73.609C78.0822 73.609 78.9362 74.309 79.3562 75.303L78.4182 75.779C78.1522 75.037 77.5362 74.603 76.6542 74.603C75.3242 74.603 74.6382 75.513 74.6382 76.773V78.005C74.6382 79.265 75.3242 80.175 76.6542 80.175C77.5642 80.175 78.2222 79.741 78.6142 78.915L79.4262 79.461C78.9642 80.497 78.0262 81.169 76.6542 81.169ZM83.3373 81.169C82.0073 81.169 81.1253 80.609 80.4813 79.755L81.2793 79.111C81.8393 79.811 82.5113 80.217 83.4213 80.217C84.3733 80.217 84.9333 79.783 84.9333 79.041C84.9333 78.481 84.6253 78.047 83.6733 77.907L83.0993 77.823C81.7693 77.627 80.7753 77.081 80.7753 75.737C80.7753 74.309 81.8813 73.609 83.3513 73.609C84.5133 73.609 85.2833 74.043 85.8713 74.771L85.1293 75.443C84.8073 74.995 84.1913 74.561 83.2673 74.561C82.3433 74.561 81.8533 74.995 81.8533 75.681C81.8533 76.381 82.3433 76.661 83.2393 76.801L83.7993 76.885C85.3953 77.123 86.0113 77.823 86.0113 78.915C86.0113 80.315 84.9893 81.169 83.3373 81.169Z" fill="#525252"/>
</g>
<rect width="160" height="48" transform="translate(6 100.001)" fill="white" style="mix-blend-mode:multiply"/>
<g clip-path="url(#clip1_106_242699)">
<rect width="128" height="1" transform="translate(22 100.001)" fill="#E0E0E0"/>
</g>
<g clip-path="url(#clip2_106_242699)">
<path d="M24.478 125.301V129.501H23.302V119.729H27.194C28.902 119.729 29.924 120.723 29.924 122.501C29.924 123.929 29.238 124.895 27.964 125.189L30.204 129.501H28.874L26.76 125.301H24.478ZM24.478 124.293H27.194C28.118 124.293 28.664 123.789 28.664 122.893V122.165C28.664 121.269 28.118 120.765 27.194 120.765H24.478V124.293ZM34.816 129.669C32.856 129.669 31.568 128.185 31.568 125.889C31.568 123.593 32.856 122.109 34.816 122.109C36.748 122.109 37.938 123.593 37.938 125.637V126.169H32.744V126.505C32.744 127.751 33.542 128.689 34.886 128.689C35.796 128.689 36.496 128.241 36.874 127.443L37.672 128.017C37.21 128.997 36.174 129.669 34.816 129.669ZM34.816 123.047C33.598 123.047 32.744 123.971 32.744 125.231V125.329H36.734V125.175C36.734 123.901 35.964 123.047 34.816 123.047ZM41.0636 129.501H39.9436V122.277H41.0636V123.453H41.1196C41.4696 122.641 42.0856 122.109 43.1636 122.109C44.6476 122.109 45.5856 123.117 45.5856 124.867V129.501H44.4656V125.063C44.4656 123.775 43.9056 123.117 42.8276 123.117C41.9316 123.117 41.0636 123.565 41.0636 124.489V129.501ZM53.9406 129.501H53.3106C52.4846 129.501 52.1486 128.997 52.0646 128.325H51.9946C51.6866 129.207 50.9166 129.669 49.9086 129.669C48.3826 129.669 47.4866 128.829 47.4866 127.485C47.4866 126.127 48.4666 125.371 50.5666 125.371H51.9946V124.657C51.9946 123.635 51.4346 123.075 50.2866 123.075C49.4186 123.075 48.8446 123.495 48.4526 124.153L47.7806 123.523C48.1726 122.753 49.0406 122.109 50.3426 122.109C52.0786 122.109 53.1146 123.019 53.1146 124.545V128.521H53.9406V129.501ZM50.0906 128.717C51.1966 128.717 51.9946 128.143 51.9946 127.401V126.211H50.5106C49.2366 126.211 48.6626 126.603 48.6626 127.303V127.597C48.6626 128.311 49.2226 128.717 50.0906 128.717ZM56.8191 129.501H55.6991V122.277H56.8191V123.453H56.8751C57.1971 122.711 57.7011 122.109 58.8211 122.109C59.7731 122.109 60.6411 122.543 61.0331 123.579H61.0611C61.3271 122.795 62.0271 122.109 63.2591 122.109C64.7291 122.109 65.6111 123.117 65.6111 124.867V129.501H64.4911V125.063C64.4911 123.789 64.0011 123.117 62.9091 123.117C62.0271 123.117 61.2151 123.565 61.2151 124.489V129.501H60.0951V125.063C60.0951 123.775 59.6051 123.117 58.5411 123.117C57.6591 123.117 56.8191 123.565 56.8191 124.489V129.501ZM70.7978 129.669C68.8378 129.669 67.5498 128.185 67.5498 125.889C67.5498 123.593 68.8378 122.109 70.7978 122.109C72.7298 122.109 73.9198 123.593 73.9198 125.637V126.169H68.7258V126.505C68.7258 127.751 69.5238 128.689 70.8678 128.689C71.7778 128.689 72.4778 128.241 72.8558 127.443L73.6538 128.017C73.1918 128.997 72.1558 129.669 70.7978 129.669ZM70.7978 123.047C69.5798 123.047 68.7258 123.971 68.7258 125.231V125.329H72.7158V125.175C72.7158 123.901 71.9458 123.047 70.7978 123.047ZM81.564 129.669C80.234 129.669 79.352 129.109 78.708 128.255L79.506 127.611C80.066 128.311 80.738 128.717 81.648 128.717C82.6 128.717 83.16 128.283 83.16 127.541C83.16 126.981 82.852 126.547 81.9 126.407L81.326 126.323C79.996 126.127 79.002 125.581 79.002 124.237C79.002 122.809 80.108 122.109 81.578 122.109C82.74 122.109 83.51 122.543 84.098 123.271L83.356 123.943C83.034 123.495 82.418 123.061 81.494 123.061C80.57 123.061 80.08 123.495 80.08 124.181C80.08 124.881 80.57 125.161 81.466 125.301L82.026 125.385C83.622 125.623 84.238 126.323 84.238 127.415C84.238 128.815 83.216 129.669 81.564 129.669ZM89.0922 129.669C87.1322 129.669 85.8442 128.185 85.8442 125.889C85.8442 123.593 87.1322 122.109 89.0922 122.109C91.0242 122.109 92.2142 123.593 92.2142 125.637V126.169H87.0202V126.505C87.0202 127.751 87.8182 128.689 89.1622 128.689C90.0722 128.689 90.7722 128.241 91.1502 127.443L91.9482 128.017C91.4862 128.997 90.4502 129.669 89.0922 129.669ZM89.0922 123.047C87.8742 123.047 87.0202 123.971 87.0202 125.231V125.329H91.0102V125.175C91.0102 123.901 90.2402 123.047 89.0922 123.047ZM95.3398 129.501H94.2198V122.277H95.3398V123.607H95.4098C95.6618 122.921 96.3198 122.277 97.4958 122.277H97.9298V123.397H97.2718C96.0678 123.397 95.3398 123.915 95.3398 124.601V129.501ZM102.555 129.501H101.253L98.7192 122.277H99.8392L101.099 125.861L101.883 128.325H101.953L102.737 125.861L104.025 122.277H105.103L102.555 129.501ZM107.268 120.583C106.792 120.583 106.582 120.331 106.582 119.953V119.771C106.582 119.393 106.792 119.141 107.268 119.141C107.744 119.141 107.954 119.393 107.954 119.771V119.953C107.954 120.331 107.744 120.583 107.268 120.583ZM106.708 129.501V122.277H107.828V129.501H106.708ZM113.056 129.669C111.026 129.669 109.836 128.199 109.836 125.889C109.836 123.579 111.026 122.109 113.056 122.109C114.484 122.109 115.338 122.809 115.758 123.803L114.82 124.279C114.554 123.537 113.938 123.103 113.056 123.103C111.726 123.103 111.04 124.013 111.04 125.273V126.505C111.04 127.765 111.726 128.675 113.056 128.675C113.966 128.675 114.624 128.241 115.016 127.415L115.828 127.961C115.366 128.997 114.428 129.669 113.056 129.669ZM120.203 129.669C118.243 129.669 116.955 128.185 116.955 125.889C116.955 123.593 118.243 122.109 120.203 122.109C122.135 122.109 123.325 123.593 123.325 125.637V126.169H118.131V126.505C118.131 127.751 118.929 128.689 120.273 128.689C121.183 128.689 121.883 128.241 122.261 127.443L123.059 128.017C122.597 128.997 121.561 129.669 120.203 129.669ZM120.203 123.047C118.985 123.047 118.131 123.971 118.131 125.231V125.329H122.121V125.175C122.121 123.901 121.351 123.047 120.203 123.047Z" fill="#525252"/>
</g>
<rect width="160" height="48" transform="translate(6 148.001)" fill="white" style="mix-blend-mode:multiply"/>
<g clip-path="url(#clip3_106_242699)">
<rect width="128" height="1" transform="translate(22 148.001)" fill="#E0E0E0"/>
</g>
<g clip-path="url(#clip4_106_242699)">
<path d="M23.302 177.501V167.729H24.87L27.67 172.993H27.74L30.554 167.729H32.066V177.501H30.918V169.269H30.848L30.022 170.907L27.684 175.163L25.346 170.907L24.52 169.269H24.45V177.501H23.302ZM37.4413 177.669C35.5093 177.669 34.1793 176.185 34.1793 173.889C34.1793 171.593 35.5093 170.109 37.4413 170.109C39.3733 170.109 40.7033 171.593 40.7033 173.889C40.7033 176.185 39.3733 177.669 37.4413 177.669ZM37.4413 176.675C38.6453 176.675 39.4993 175.933 39.4993 174.407V173.371C39.4993 171.845 38.6453 171.103 37.4413 171.103C36.2373 171.103 35.3833 171.845 35.3833 173.371V174.407C35.3833 175.933 36.2373 176.675 37.4413 176.675ZM43.8253 177.501H42.7053V170.277H43.8253V171.453H43.8813C44.2313 170.641 44.8473 170.109 45.9253 170.109C47.4093 170.109 48.3473 171.117 48.3473 172.867V177.501H47.2273V173.063C47.2273 171.775 46.6673 171.117 45.5893 171.117C44.6933 171.117 43.8253 171.565 43.8253 172.489V177.501ZM51.3823 168.583C50.9063 168.583 50.6963 168.331 50.6963 167.953V167.771C50.6963 167.393 50.9063 167.141 51.3823 167.141C51.8583 167.141 52.0683 167.393 52.0683 167.771V167.953C52.0683 168.331 51.8583 168.583 51.3823 168.583ZM50.8223 177.501V170.277H51.9423V177.501H50.8223ZM57.4783 177.501H56.0783C55.3083 177.501 54.8883 177.011 54.8883 176.311V171.257H53.6983V170.277H54.3703C54.8463 170.277 55.0003 170.109 55.0003 169.619V168.275H56.0083V170.277H57.5903V171.257H56.0083V176.521H57.4783V177.501ZM62.2259 177.669C60.2939 177.669 58.9639 176.185 58.9639 173.889C58.9639 171.593 60.2939 170.109 62.2259 170.109C64.1579 170.109 65.4879 171.593 65.4879 173.889C65.4879 176.185 64.1579 177.669 62.2259 177.669ZM62.2259 176.675C63.4299 176.675 64.2839 175.933 64.2839 174.407V173.371C64.2839 171.845 63.4299 171.103 62.2259 171.103C61.0219 171.103 60.1679 171.845 60.1679 173.371V174.407C60.1679 175.933 61.0219 176.675 62.2259 176.675ZM68.6098 177.501H67.4898V170.277H68.6098V171.607H68.6798C68.9318 170.921 69.5898 170.277 70.7658 170.277H71.1998V171.397H70.5418C69.3378 171.397 68.6098 171.915 68.6098 172.601V177.501ZM73.3505 168.583C72.8745 168.583 72.6645 168.331 72.6645 167.953V167.771C72.6645 167.393 72.8745 167.141 73.3505 167.141C73.8265 167.141 74.0365 167.393 74.0365 167.771V167.953C74.0365 168.331 73.8265 168.583 73.3505 168.583ZM72.7905 177.501V170.277H73.9105V177.501H72.7905ZM77.5705 177.501H76.4505V170.277H77.5705V171.453H77.6265C77.9765 170.641 78.5925 170.109 79.6705 170.109C81.1545 170.109 82.0925 171.117 82.0925 172.867V177.501H80.9725V173.063C80.9725 171.775 80.4125 171.117 79.3345 171.117C78.4385 171.117 77.5705 171.565 77.5705 172.489V177.501ZM90.6575 178.299C90.6575 179.783 89.4815 180.469 87.1575 180.469C84.9035 180.469 83.9795 179.825 83.9795 178.691C83.9795 177.907 84.4135 177.487 85.1275 177.291V177.137C84.7215 176.941 84.4835 176.619 84.4835 176.129C84.4835 175.401 85.0015 175.051 85.7295 174.869V174.813C84.8755 174.407 84.3715 173.609 84.3715 172.601C84.3715 171.131 85.4495 170.109 87.0875 170.109C87.6055 170.109 88.0675 170.207 88.4595 170.389V170.263C88.4595 169.703 88.6975 169.297 89.2995 169.297H90.3775V170.277H89.0055V170.739C89.5235 171.187 89.8315 171.831 89.8315 172.601C89.8315 174.071 88.7535 175.093 87.1015 175.093C86.8635 175.093 86.6115 175.065 86.4015 175.023C85.9255 175.149 85.4495 175.387 85.4495 175.835C85.4495 176.269 85.8975 176.381 86.5555 176.381H88.0955C89.8875 176.381 90.6575 177.109 90.6575 178.299ZM89.6075 178.383C89.6075 177.809 89.2295 177.431 88.1095 177.431H85.7015C85.2395 177.641 85.0295 177.963 85.0295 178.411C85.0295 179.041 85.4635 179.559 86.5975 179.559H87.6335C88.8795 179.559 89.6075 179.167 89.6075 178.383ZM87.1015 174.197C88.0535 174.197 88.6555 173.749 88.6555 172.797V172.405C88.6555 171.453 88.0535 171.005 87.1015 171.005C86.1495 171.005 85.5475 171.453 85.5475 172.405V172.797C85.5475 173.749 86.1495 174.197 87.1015 174.197Z" fill="#525252"/>
</g>
<rect width="160" height="48" transform="translate(6 196.001)" fill="white" style="mix-blend-mode:multiply"/>
<g clip-path="url(#clip5_106_242699)">
<rect width="128" height="1" transform="translate(22 196.001)" fill="#E0E0E0"/>
</g>
<g clip-path="url(#clip6_106_242699)">
<path d="M23.302 225.501V215.729H26.578C29.014 215.729 30.582 217.353 30.582 220.615C30.582 223.877 29.014 225.501 26.578 225.501H23.302ZM24.478 224.465H26.578C28.188 224.465 29.322 223.345 29.322 221.413V219.817C29.322 217.885 28.188 216.765 26.578 216.765H24.478V224.465ZM35.4586 225.669C33.4986 225.669 32.2106 224.185 32.2106 221.889C32.2106 219.593 33.4986 218.109 35.4586 218.109C37.3906 218.109 38.5806 219.593 38.5806 221.637V222.169H33.3866V222.505C33.3866 223.751 34.1846 224.689 35.5286 224.689C36.4386 224.689 37.1386 224.241 37.5166 223.443L38.3146 224.017C37.8526 224.997 36.8166 225.669 35.4586 225.669ZM35.4586 219.047C34.2406 219.047 33.3866 219.971 33.3866 221.231V221.329H37.3766V221.175C37.3766 219.901 36.6066 219.047 35.4586 219.047ZM42.7702 225.501H41.7762C41.0062 225.501 40.5862 225.011 40.5862 224.339V215.141H41.7062V224.521H42.7702V225.501ZM47.2766 225.669C45.3166 225.669 44.0286 224.185 44.0286 221.889C44.0286 219.593 45.3166 218.109 47.2766 218.109C49.2086 218.109 50.3986 219.593 50.3986 221.637V222.169H45.2046V222.505C45.2046 223.751 46.0026 224.689 47.3466 224.689C48.2566 224.689 48.9566 224.241 49.3346 223.443L50.1326 224.017C49.6706 224.997 48.6346 225.669 47.2766 225.669ZM47.2766 219.047C46.0586 219.047 45.2046 219.971 45.2046 221.231V221.329H49.1946V221.175C49.1946 219.901 48.4246 219.047 47.2766 219.047ZM55.4002 225.501H54.0002C53.2302 225.501 52.8102 225.011 52.8102 224.311V219.257H51.6202V218.277H52.2922C52.7682 218.277 52.9222 218.109 52.9222 217.619V216.275H53.9302V218.277H55.5122V219.257H53.9302V224.521H55.4002V225.501ZM60.1337 225.669C58.1737 225.669 56.8857 224.185 56.8857 221.889C56.8857 219.593 58.1737 218.109 60.1337 218.109C62.0657 218.109 63.2557 219.593 63.2557 221.637V222.169H58.0617V222.505C58.0617 223.751 58.8597 224.689 60.2037 224.689C61.1137 224.689 61.8137 224.241 62.1917 223.443L62.9897 224.017C62.5277 224.997 61.4917 225.669 60.1337 225.669ZM60.1337 219.047C58.9157 219.047 58.0617 219.971 58.0617 221.231V221.329H62.0517V221.175C62.0517 219.901 61.2817 219.047 60.1337 219.047ZM70.8999 225.669C69.5699 225.669 68.6879 225.109 68.0439 224.255L68.8419 223.611C69.4019 224.311 70.0739 224.717 70.9839 224.717C71.9359 224.717 72.4959 224.283 72.4959 223.541C72.4959 222.981 72.1879 222.547 71.2359 222.407L70.6619 222.323C69.3319 222.127 68.3379 221.581 68.3379 220.237C68.3379 218.809 69.4439 218.109 70.9139 218.109C72.0759 218.109 72.8459 218.543 73.4339 219.271L72.6919 219.943C72.3699 219.495 71.7539 219.061 70.8299 219.061C69.9059 219.061 69.4159 219.495 69.4159 220.181C69.4159 220.881 69.9059 221.161 70.8019 221.301L71.3619 221.385C72.9579 221.623 73.5739 222.323 73.5739 223.415C73.5739 224.815 72.5519 225.669 70.8999 225.669ZM78.4282 225.669C76.4682 225.669 75.1802 224.185 75.1802 221.889C75.1802 219.593 76.4682 218.109 78.4282 218.109C80.3602 218.109 81.5502 219.593 81.5502 221.637V222.169H76.3562V222.505C76.3562 223.751 77.1542 224.689 78.4982 224.689C79.4082 224.689 80.1082 224.241 80.4862 223.443L81.2842 224.017C80.8222 224.997 79.7862 225.669 78.4282 225.669ZM78.4282 219.047C77.2102 219.047 76.3562 219.971 76.3562 221.231V221.329H80.3462V221.175C80.3462 219.901 79.5762 219.047 78.4282 219.047ZM84.6758 225.501H83.5558V218.277H84.6758V219.607H84.7458C84.9978 218.921 85.6558 218.277 86.8318 218.277H87.2658V219.397H86.6078C85.4038 219.397 84.6758 219.915 84.6758 220.601V225.501ZM91.8911 225.501H90.5891L88.0551 218.277H89.1751L90.4351 221.861L91.2191 224.325H91.2891L92.0731 221.861L93.3611 218.277H94.4391L91.8911 225.501ZM96.6038 216.583C96.1278 216.583 95.9178 216.331 95.9178 215.953V215.771C95.9178 215.393 96.1278 215.141 96.6038 215.141C97.0798 215.141 97.2898 215.393 97.2898 215.771V215.953C97.2898 216.331 97.0798 216.583 96.6038 216.583ZM96.0438 225.501V218.277H97.1638V225.501H96.0438ZM102.392 225.669C100.362 225.669 99.1717 224.199 99.1717 221.889C99.1717 219.579 100.362 218.109 102.392 218.109C103.82 218.109 104.674 218.809 105.094 219.803L104.156 220.279C103.89 219.537 103.274 219.103 102.392 219.103C101.062 219.103 100.376 220.013 100.376 221.273V222.505C100.376 223.765 101.062 224.675 102.392 224.675C103.302 224.675 103.96 224.241 104.352 223.415L105.164 223.961C104.702 224.997 103.764 225.669 102.392 225.669ZM109.539 225.669C107.579 225.669 106.291 224.185 106.291 221.889C106.291 219.593 107.579 218.109 109.539 218.109C111.471 218.109 112.661 219.593 112.661 221.637V222.169H107.467V222.505C107.467 223.751 108.265 224.689 109.609 224.689C110.519 224.689 111.219 224.241 111.597 223.443L112.395 224.017C111.933 224.997 110.897 225.669 109.539 225.669ZM109.539 219.047C108.321 219.047 107.467 219.971 107.467 221.231V221.329H111.457V221.175C111.457 219.901 110.687 219.047 109.539 219.047Z" fill="#525252"/>
</g>
</g>
<rect x="13" y="154" width="93" height="37" fill="#FCF200" fill-opacity="0.5"/>
<defs>
<filter id="filter0_d_106_242699" x="0" y="48.001" width="172" height="204" filterUnits="userSpaceOnUse" color-interpolation-filters="sRGB">
<feFlood flood-opacity="0" result="BackgroundImageFix"/>
<feColorMatrix in="SourceAlpha" type="matrix" values="0 0 0 0 0 0 0 0 0 0 0 0 0 0 0 0 0 0 127 0" result="hardAlpha"/>
<feOffset dy="2"/>
<feGaussianBlur stdDeviation="3"/>
<feComposite in2="hardAlpha" operator="out"/>
<feColorMatrix type="matrix" values="0 0 0 0 0 0 0 0 0 0 0 0 0 0 0 0 0 0 0.3 0"/>
<feBlend mode="normal" in2="BackgroundImageFix" result="effect1_dropShadow_106_242699"/>
<feBlend mode="normal" in="SourceGraphic" in2="effect1_dropShadow_106_242699" result="shape"/>
</filter>
<clipPath id="clip0_106_242699">
<rect width="128" height="18" fill="white" transform="translate(22 67.001)"/>
</clipPath>
<clipPath id="clip1_106_242699">
<rect width="160" height="1" fill="white" transform="translate(6 100.001)"/>
</clipPath>
<clipPath id="clip2_106_242699">
<rect width="128" height="18" fill="white" transform="translate(22 115.501)"/>
</clipPath>
<clipPath id="clip3_106_242699">
<rect width="160" height="1" fill="white" transform="translate(6 148.001)"/>
</clipPath>
<clipPath id="clip4_106_242699">
<rect width="128" height="18" fill="white" transform="translate(22 163.501)"/>
</clipPath>
<clipPath id="clip5_106_242699">
<rect width="160" height="1" fill="white" transform="translate(6 196.001)"/>
</clipPath>
<clipPath id="clip6_106_242699">
<rect width="128" height="18" fill="white" transform="translate(22 211.501)"/>
</clipPath>
</defs>
</svg>
