<svg width="1104" height="720" viewBox="0 0 1104 720" fill="none" xmlns="http://www.w3.org/2000/svg">
<g id="Redis, High availability architecture">
<g id="Infrastructure">
<path d="M8 0.5H1096C1100.14 0.5 1103.5 3.85786 1103.5 8V712C1103.5 716.142 1100.14 719.5 1096 719.5H8C3.85786 719.5 0.5 716.142 0.5 712V8C0.500011 3.85787 3.85787 0.5 8 0.5Z" fill="white"/>
<path d="M8 0.5H1096C1100.14 0.5 1103.5 3.85786 1103.5 8V712C1103.5 716.142 1100.14 719.5 1096 719.5H8C3.85786 719.5 0.5 716.142 0.5 712V8C0.500011 3.85787 3.85787 0.5 8 0.5Z" stroke="#8D8D8D"/>
<path id="Background white" d="M1 7.99999C1 4.134 4.13401 1 8 1H1096C1099.87 1 1103 4.13401 1103 8V712C1103 715.866 1099.87 719 1096 719H7.99998C4.13398 719 1 715.866 1 712V7.99999Z" fill="white"/>
<g id="Content" clip-path="url(#clip0_473_4794)">
<g id="Label + Text">
<path id="Label" d="M61.18 29H56.742V27.516H58.03V20.712H56.742V19.228H61.18V20.712H59.878V27.516H61.18V29ZM63.2279 29V19.228H67.7499C69.3599 19.228 70.3399 20.222 70.3399 21.734C70.3399 23.218 69.4859 23.778 68.5899 23.834V23.918C69.4439 23.932 70.7039 24.534 70.7039 26.2C70.7039 27.768 69.6259 29 68.1839 29H63.2279ZM65.0759 24.814V27.432H67.6519C68.3519 27.432 68.7719 27.054 68.7719 26.368V25.892C68.7719 25.206 68.3519 24.814 67.6519 24.814H65.0759ZM65.0759 20.796V23.302H67.3579C68.0299 23.302 68.4219 22.91 68.4219 22.266V21.832C68.4219 21.174 68.0299 20.796 67.3579 20.796H65.0759ZM72.6711 29V19.228H74.7571L77.2631 24.002H77.3191L79.7971 19.228H81.7991V29H80.0491V21.986H79.9931L79.2371 23.54L77.2351 27.236L75.2331 23.54L74.4771 21.986H74.4211V29H72.6711ZM91.5234 29.168C88.9474 29.168 87.3094 27.474 87.3094 24.184C87.3094 20.894 88.9474 19.06 91.5234 19.06C93.2734 19.06 94.4074 19.802 95.0934 21.314L93.5114 22.154C93.2314 21.286 92.6154 20.698 91.5234 20.698C90.1514 20.698 89.2694 21.692 89.2694 23.358V24.898C89.2694 26.578 90.1514 27.53 91.5234 27.53C92.6294 27.53 93.3154 26.858 93.6374 25.976L95.1354 26.858C94.4354 28.314 93.2734 29.168 91.5234 29.168ZM99.5178 29H98.5518C97.3338 29 96.7598 28.356 96.7598 27.236V18.64H98.5518V27.572H99.5178V29ZM103.933 29.168C101.847 29.168 100.545 27.684 100.545 25.332C100.545 22.994 101.847 21.524 103.933 21.524C106.033 21.524 107.335 22.994 107.335 25.332C107.335 27.684 106.033 29.168 103.933 29.168ZM103.933 27.726C104.871 27.726 105.459 27.124 105.459 26.018V24.66C105.459 23.568 104.871 22.966 103.933 22.966C103.009 22.966 102.421 23.568 102.421 24.66V26.018C102.421 27.124 103.009 27.726 103.933 27.726ZM113.452 29V27.782H113.382C113.13 28.51 112.542 29.168 111.338 29.168C109.84 29.168 109 28.132 109 26.312V21.692H110.792V26.13C110.792 27.138 111.17 27.684 112.024 27.684C112.738 27.684 113.452 27.306 113.452 26.522V21.692H115.244V29H113.452ZM122.01 29V27.782H121.94C121.674 28.608 120.89 29.168 119.924 29.168C118.09 29.168 117.068 27.782 117.068 25.332C117.068 22.896 118.09 21.524 119.924 21.524C120.89 21.524 121.688 22.056 121.94 22.896H122.01V18.64H123.802V29H122.01ZM120.498 27.684C121.352 27.684 122.01 27.25 122.01 26.494V24.17C122.01 23.456 121.352 22.994 120.498 22.994C119.574 22.994 118.944 23.68 118.944 24.716V25.976C118.944 27.012 119.574 27.684 120.498 27.684Z" fill="black"/>
</g>
<g id="Icon">
<g id="Cloud">
<rect width="24" height="24" transform="translate(16 12)" fill="white" fill-opacity="0.01" style="mix-blend-mode:multiply"/>
<path id="Vector" d="M27.9998 17.25C28.3801 17.2499 28.7594 17.2876 29.1323 17.3625C30.3105 17.5882 31.394 18.1618 32.243 19.0094C33.0919 19.857 33.6673 20.9396 33.8948 22.1175L34.0898 23.13L35.1023 23.31C36.1249 23.4859 37.0437 24.0407 37.6755 24.8639C38.3072 25.6871 38.6055 26.7181 38.5109 27.7515C38.4163 28.7848 37.9357 29.7446 37.1649 30.4393C36.3942 31.134 35.3899 31.5128 34.3523 31.5H21.6248C20.5872 31.5128 19.5829 31.134 18.8121 30.4393C18.0414 29.7446 17.5608 28.7848 17.4662 27.7515C17.3715 26.7181 17.6698 25.6871 18.3016 24.8639C18.9333 24.0407 19.8521 23.4859 20.8748 23.31L21.8798 23.13L22.0748 22.1175C22.3391 20.7422 23.0762 19.5027 24.1583 18.6138C25.2404 17.7248 26.5994 17.2423 27.9998 17.25ZM27.9998 15.75C26.2542 15.7486 24.5629 16.356 23.2171 17.4677C21.8713 18.5793 20.9554 20.1256 20.6273 21.84C19.246 22.0901 18.0082 22.8476 17.1569 23.9637C16.3056 25.0798 15.9024 26.4738 16.0264 27.8721C16.1504 29.2703 16.7928 30.5716 17.8273 31.5204C18.8617 32.4692 20.2136 32.997 21.6173 33H34.3673C35.771 32.997 37.1228 32.4692 38.1573 31.5204C39.1918 30.5716 39.8341 29.2703 39.9582 27.8721C40.0822 26.4738 39.679 25.0798 38.8277 23.9637C37.9764 22.8476 36.7385 22.0901 35.3573 21.84C35.0748 20.3654 34.3562 19.0095 33.2945 17.9478C32.2328 16.8861 30.8769 16.1675 29.4023 15.885C28.9399 15.7972 28.4704 15.7521 27.9998 15.75Z" fill="black"/>
</g>
</g>
</g>
</g>
<g id="Location">
<rect x="48.5" y="72.5" width="1007" height="503" fill="white" fill-opacity="0.01" style="mix-blend-mode:multiply"/>
<rect x="48.5" y="72.5" width="1007" height="503" stroke="#0F62FE"/>
<rect id="Background white_2" x="49" y="73" width="1006" height="502" fill="white"/>
<rect id="Background color" x="49" y="73" width="1006" height="502" fill="#EDF5FF"/>
<g id="Content_2" clip-path="url(#clip1_473_4794)">
<g id="Label + Text_2">
<path id="Label_2" d="M109.18 101H104.742V99.516H106.03V92.712H104.742V91.228H109.18V92.712H107.878V99.516H109.18V101ZM115.022 101.168C112.446 101.168 110.808 99.474 110.808 96.184C110.808 92.894 112.446 91.06 115.022 91.06C116.772 91.06 117.906 91.802 118.592 93.314L117.01 94.154C116.73 93.286 116.114 92.698 115.022 92.698C113.65 92.698 112.768 93.692 112.768 95.358V96.898C112.768 98.578 113.65 99.53 115.022 99.53C116.128 99.53 116.814 98.858 117.136 97.976L118.634 98.858C117.934 100.314 116.772 101.168 115.022 101.168ZM120.37 101V91.228H123.926C126.474 91.228 128.14 92.866 128.14 96.114C128.14 99.362 126.474 101 123.926 101H120.37ZM122.218 99.362H123.926C125.298 99.362 126.18 98.55 126.18 96.884V95.344C126.18 93.678 125.298 92.866 123.926 92.866H122.218V99.362ZM135.499 97.234V101H133.651V91.228H138.061C139.839 91.228 140.945 92.404 140.945 94.252C140.945 95.596 140.329 96.618 139.125 97.024L141.127 101H139.069L137.249 97.234H135.499ZM135.499 95.68H137.879C138.593 95.68 139.027 95.288 139.027 94.574V93.93C139.027 93.216 138.593 92.838 137.879 92.838H135.499V95.68ZM145.745 101.168C143.589 101.168 142.301 99.67 142.301 97.332C142.301 95.022 143.547 93.524 145.689 93.524C147.971 93.524 149.021 95.204 149.021 97.206V97.794H144.163V97.976C144.163 99.026 144.765 99.74 145.941 99.74C146.823 99.74 147.355 99.32 147.803 98.746L148.769 99.824C148.167 100.65 147.103 101.168 145.745 101.168ZM145.717 94.868C144.779 94.868 144.163 95.568 144.163 96.576V96.688H147.159V96.562C147.159 95.554 146.641 94.868 145.717 94.868ZM155.294 101V99.782H155.224C154.958 100.608 154.174 101.168 153.208 101.168C151.374 101.168 150.352 99.782 150.352 97.332C150.352 94.896 151.374 93.524 153.208 93.524C154.174 93.524 154.972 94.056 155.224 94.896H155.294V90.64H157.086V101H155.294ZM153.782 99.684C154.636 99.684 155.294 99.25 155.294 98.494V96.17C155.294 95.456 154.636 94.994 153.782 94.994C152.858 94.994 152.228 95.68 152.228 96.716V97.976C152.228 99.012 152.858 99.684 153.782 99.684ZM160.208 92.628C159.466 92.628 159.158 92.25 159.158 91.732V91.452C159.158 90.934 159.466 90.556 160.208 90.556C160.936 90.556 161.258 90.934 161.258 91.452V91.732C161.258 92.25 160.936 92.628 160.208 92.628ZM159.312 101V93.692H161.104V101H159.312ZM165.735 101.168C164.349 101.168 163.439 100.664 162.711 99.824L163.803 98.76C164.335 99.376 164.979 99.754 165.805 99.754C166.659 99.754 167.023 99.432 167.023 98.914C167.023 98.494 166.771 98.228 166.127 98.144L165.399 98.046C163.831 97.85 162.963 97.164 162.963 95.834C162.963 94.42 164.069 93.524 165.735 93.524C167.163 93.524 167.891 93.944 168.591 94.672L167.541 95.722C167.121 95.274 166.505 94.938 165.791 94.938C165.021 94.938 164.685 95.246 164.685 95.694C164.685 96.184 164.951 96.408 165.637 96.52L166.379 96.618C167.975 96.842 168.745 97.556 168.745 98.774C168.745 100.188 167.555 101.168 165.735 101.168Z" fill="black"/>
</g>
<g id="Icon_2">
<g id="Database--redis">
<rect width="24" height="24" transform="translate(64 84)" fill="white" fill-opacity="0.01" style="mix-blend-mode:multiply"/>
<g id="Vector_2">
<path d="M83.2867 100.5H83.2004C83.0246 101.013 82.6881 101.456 82.2409 101.764C81.7936 102.071 81.2593 102.227 80.717 102.207C78.4577 102.207 77.1986 100.5 77.1986 97.4817C77.1986 94.4808 78.4577 92.7907 80.717 92.7907C81.2588 92.7617 81.7953 92.9114 82.2439 93.2167C82.6925 93.522 83.0285 93.9661 83.2004 94.4808H83.2867V89.2383H85.4942V102H83.2867V100.5ZM83.2867 98.9131V96.0499C83.2867 95.1703 82.4761 94.6013 81.4239 94.6013C81.1543 94.6002 80.8874 94.656 80.6408 94.765C80.3942 94.8741 80.1734 95.0339 79.9928 95.2341C79.8122 95.4343 79.6758 95.6703 79.5926 95.9268C79.5094 96.1833 79.4812 96.4544 79.51 96.7225V98.275C79.4815 98.5422 79.5099 98.8125 79.5935 99.0679C79.677 99.3233 79.8136 99.5581 79.9945 99.7569C80.1753 99.9557 80.3962 100.114 80.6427 100.221C80.8891 100.328 81.1554 100.382 81.4241 100.379C82.4761 100.379 83.2867 99.8445 83.2867 98.9131Z" fill="black"/>
<path d="M68.9182 102H66.6416V89.9623H72.0742C74.2642 89.9623 75.627 91.411 75.627 93.6876C75.6878 94.4253 75.5001 95.1621 75.0938 95.7809C74.6876 96.3997 74.0861 96.8648 73.385 97.1023L75.8513 102H73.3163L71.074 97.3607H68.9182V102ZM71.8501 95.4463C72.0367 95.4689 72.2261 95.4496 72.4043 95.3898C72.5826 95.3301 72.7454 95.2314 72.8808 95.101C73.0162 94.9705 73.1208 94.8115 73.1871 94.6356C73.2535 94.4597 73.2798 94.2712 73.2642 94.0838V93.2904C73.2794 93.1039 73.2526 92.9163 73.1859 92.7415C73.1191 92.5666 73.0141 92.409 72.8785 92.28C72.7429 92.151 72.5802 92.054 72.4022 91.9961C72.2243 91.9382 72.0356 91.9208 71.8501 91.9453H68.9182V95.4463H71.8501Z" fill="black"/>
</g>
</g>
</g>
<line id="Border" x1="50" y1="72" x2="50" y2="120" stroke="#0F62FE" stroke-width="4"/>
</g>
</g>
<g id="Frame 16">
<g id="Frame 7">
<g id="Location_2">
<rect width="240" height="336" transform="translate(144 144)" fill="white"/>
<rect id="Background white_3" x="144" y="144" width="240" height="336" fill="white"/>
<g id="Content_3" clip-path="url(#clip2_473_4794)">
<g id="Label + Text_3">
<path id="Label_3" d="M209.114 173H207.196L206.412 170.508H202.94L202.17 173H200.294L203.57 163.228H205.866L209.114 173ZM205.964 168.926L204.704 164.908H204.634L203.388 168.926H205.964ZM213.915 173H211.787L209.351 165.692H211.115L212.137 168.842L212.851 171.446H212.949L213.663 168.842L214.657 165.692H216.365L213.915 173ZM219.404 173.168C217.92 173.168 217.08 172.314 217.08 171.012C217.08 169.514 218.214 168.772 220.202 168.772H221.448V168.24C221.448 167.428 221.042 166.952 220.09 166.952C219.25 166.952 218.774 167.372 218.424 167.876L217.36 166.924C217.892 166.084 218.746 165.524 220.216 165.524C222.19 165.524 223.24 166.462 223.24 168.128V171.572H223.968V173H222.974C222.204 173 221.728 172.496 221.616 171.74H221.532C221.294 172.678 220.496 173.168 219.404 173.168ZM220.006 171.866C220.804 171.866 221.448 171.502 221.448 170.816V169.85H220.3C219.362 169.85 218.9 170.172 218.9 170.746V170.984C218.9 171.572 219.306 171.866 220.006 171.866ZM226.474 164.628C225.732 164.628 225.424 164.25 225.424 163.732V163.452C225.424 162.934 225.732 162.556 226.474 162.556C227.202 162.556 227.524 162.934 227.524 163.452V163.732C227.524 164.25 227.202 164.628 226.474 164.628ZM225.578 173V165.692H227.37V173H225.578ZM232.366 173H231.4C230.182 173 229.608 172.356 229.608 171.236V162.64H231.4V171.572H232.366V173ZM235.689 173.168C234.205 173.168 233.365 172.314 233.365 171.012C233.365 169.514 234.499 168.772 236.487 168.772H237.733V168.24C237.733 167.428 237.327 166.952 236.375 166.952C235.535 166.952 235.059 167.372 234.709 167.876L233.645 166.924C234.177 166.084 235.031 165.524 236.501 165.524C238.475 165.524 239.525 166.462 239.525 168.128V171.572H240.253V173H239.259C238.489 173 238.013 172.496 237.901 171.74H237.817C237.579 172.678 236.781 173.168 235.689 173.168ZM236.291 171.866C237.089 171.866 237.733 171.502 237.733 170.816V169.85H236.585C235.647 169.85 235.185 170.172 235.185 170.746V170.984C235.185 171.572 235.591 171.866 236.291 171.866ZM241.863 173V162.64H243.655V166.896H243.711C243.977 166.056 244.761 165.524 245.727 165.524C247.575 165.524 248.597 166.896 248.597 169.332C248.597 171.782 247.575 173.168 245.727 173.168C244.761 173.168 243.991 172.608 243.711 171.782H243.655V173H241.863ZM245.153 171.684C246.077 171.684 246.721 171.012 246.721 169.976V168.716C246.721 167.68 246.077 166.994 245.153 166.994C244.299 166.994 243.655 167.456 243.655 168.17V170.494C243.655 171.25 244.299 171.684 245.153 171.684ZM251.314 164.628C250.572 164.628 250.264 164.25 250.264 163.732V163.452C250.264 162.934 250.572 162.556 251.314 162.556C252.042 162.556 252.364 162.934 252.364 163.452V163.732C252.364 164.25 252.042 164.628 251.314 164.628ZM250.418 173V165.692H252.21V173H250.418ZM257.205 173H256.239C255.021 173 254.447 172.356 254.447 171.236V162.64H256.239V171.572H257.205V173ZM259.618 164.628C258.876 164.628 258.568 164.25 258.568 163.732V163.452C258.568 162.934 258.876 162.556 259.618 162.556C260.346 162.556 260.668 162.934 260.668 163.452V163.732C260.668 164.25 260.346 164.628 259.618 164.628ZM258.722 173V165.692H260.514V173H258.722ZM265.033 173C263.801 173 263.143 172.328 263.143 171.138V167.12H262.065V165.692H262.625C263.157 165.692 263.325 165.44 263.325 164.936V163.69H264.935V165.692H266.433V167.12H264.935V171.572H266.321V173H265.033ZM271.354 169.556L272.628 165.692H274.308L271.368 174.302C271.004 175.352 270.486 175.8 269.282 175.8H268.204V174.372H269.52L269.856 173.35L267.238 165.692H269.016L270.29 169.556L270.766 171.404H270.85L271.354 169.556ZM285.936 171.362V173H278.614V171.348L283.668 164.866H278.866V163.228H285.796V164.88L280.728 171.362H285.936ZM290.488 173.168C288.402 173.168 287.1 171.684 287.1 169.332C287.1 166.994 288.402 165.524 290.488 165.524C292.588 165.524 293.89 166.994 293.89 169.332C293.89 171.684 292.588 173.168 290.488 173.168ZM290.488 171.726C291.426 171.726 292.014 171.124 292.014 170.018V168.66C292.014 167.568 291.426 166.966 290.488 166.966C289.564 166.966 288.976 167.568 288.976 168.66V170.018C288.976 171.124 289.564 171.726 290.488 171.726ZM297.431 173H295.639V165.692H297.431V166.91H297.501C297.795 166.126 298.411 165.524 299.545 165.524C301.043 165.524 301.883 166.56 301.883 168.38V173H300.091V168.562C300.091 167.526 299.741 166.994 298.887 166.994C298.145 166.994 297.431 167.386 297.431 168.17V173ZM306.984 173.168C304.828 173.168 303.54 171.67 303.54 169.332C303.54 167.022 304.786 165.524 306.928 165.524C309.21 165.524 310.26 167.204 310.26 169.206V169.794H305.402V169.976C305.402 171.026 306.004 171.74 307.18 171.74C308.062 171.74 308.594 171.32 309.042 170.746L310.008 171.824C309.406 172.65 308.342 173.168 306.984 173.168ZM306.956 166.868C306.018 166.868 305.402 167.568 305.402 168.576V168.688H308.398V168.562C308.398 167.554 307.88 166.868 306.956 166.868ZM323.543 173H321.625L320.841 170.508H317.369L316.599 173H314.723L317.999 163.228H320.295L323.543 173ZM320.393 168.926L319.133 164.908H319.063L317.817 168.926H320.393Z" fill="black"/>
</g>
<g id="Icon_3">
<g id="Data--center">
<rect width="24" height="24" transform="translate(160 156)" fill="white" fill-opacity="0.01" style="mix-blend-mode:multiply"/>
<g id="Vector_3">
<path d="M181 163.5H177.25V160.5C177.25 160.102 177.091 159.721 176.81 159.44C176.529 159.159 176.148 159 175.75 159H168.25C167.852 159 167.471 159.159 167.19 159.44C166.909 159.721 166.75 160.102 166.75 160.5V163.5H163C162.602 163.5 162.221 163.659 161.94 163.94C161.659 164.221 161.5 164.602 161.5 165V177C161.5 177.398 161.659 177.779 161.94 178.06C162.221 178.341 162.602 178.5 163 178.5H181C181.398 178.5 181.779 178.341 182.06 178.06C182.341 177.779 182.5 177.398 182.5 177V165C182.5 164.602 182.341 164.221 182.06 163.94C181.779 163.659 181.398 163.5 181 163.5ZM163 177V165H166.75V166.5H165.25V168H166.75V169.5H165.25V171H166.75V172.5H165.25V174H166.75V177H163ZM175.75 177H168.25V160.5H175.75V177ZM181 177H177.25V174H178.75V172.5H177.25V171H178.75V169.5H177.25V168H178.75V166.5H177.25V165H181V177Z" fill="black"/>
<path d="M173.5 162H170.5V163.5H173.5V162Z" fill="black"/>
<path d="M173.5 165H170.5V166.5H173.5V165Z" fill="black"/>
<path d="M173.5 168H170.5V169.5H173.5V168Z" fill="black"/>
</g>
</g>
</g>
</g>
<path id="Dash border" d="M150 144V144.5H154V144H158V144.5H162V144H166V144.5H170V144H174V144.5H178V144H182V144.5H186V144H190V144.5H194V144H198V144.5H202V144H206V144.5H210V144H214V144.5H218V144H222V144.5H226V144H230V144.5H234V144H238V144.5H242V144H246V144.5H250V144H254V144.5H258V144H262V144.5H266V144H270V144.5H274V144H278V144.5H282V144H286V144.5H290V144H294V144.5H298V144H302V144.5H306V144H310V144.5H314V144H318V144.5H322V144H326V144.5H330V144H334V144.5H338V144H342V144.5H346V144H350V144.5H354V144H358V144.5H362V144H366V144.5H370V144H374V144.5H378V144H382V144.5H383.5V146H384V150H383.5V154H384V158H383.5V162H384V166H383.5V170H384V174H383.5V178H384V182H383.5V186H384V190H383.5V194H384V198H383.5V202H384V206H383.5V210H384V214H383.5V218H384V222H383.5V226H384V230H383.5V234H384V238H383.5V242H384V246H383.5V250H384V254H383.5V258H384V262H383.5V266H384V270H383.5V274H384V278H383.5V282H384V286H383.5V290H384V294H383.5V298H384V302H383.5V306H384V310H383.5V314H384V318H383.5V322H384V326H383.5V330H384V334H383.5V338H384V342H383.5V346H384V350H383.5V354H384V358H383.5V362H384V366H383.5V370H384V374H383.5V378H384V382H383.5V386H384V390H383.5V394H384V398H383.5V402H384V406H383.5V410H384V414H383.5V418H384V422H383.5V426H384V430H383.5V434H384V438H383.5V442H384V446H383.5V450H384V454H383.5V458H384V462H383.5V466H384V470H383.5V474H384V478H383.5V479.5H382V480H378V479.5H374V480H370V479.5H366V480H362V479.5H358V480H354V479.5H350V480H346V479.5H342V480H338V479.5H334V480H330V479.5H326V480H322V479.5H318V480H314V479.5H310V480H306V479.5H302V480H298V479.5H294V480H290V479.5H286V480H282V479.5H278V480H274V479.5H270V480H266V479.5H262V480H258V479.5H254V480H250V479.5H246V480H242V479.5H238V480H234V479.5H230V480H226V479.5H222V480H218V479.5H214V480H210V479.5H206V480H202V479.5H198V480H194V479.5H190V480H186V479.5H182V480H178V479.5H174V480H170V479.5H166V480H162V479.5H158V480H154V479.5H150V480H146V479.5H144.5V478H144V474H144.5V470H144V466H144.5V462H144V458H144.5V454H144V450H144.5V446H144V442H144.5V438H144V434H144.5V430H144V426H144.5V422H144V418H144.5V414H144V410H144.5V406H144V402H144.5V398H144V394H144.5V390H144V386H144.5V382H144V378H144.5V374H144V370H144.5V366H144V362H144.5V358H144V354H144.5V350H144V346H144.5V342H144V338H144.5V334H144V330H144.5V326H144V322H144.5V318H144V314H144.5V310H144V306H144.5V302H144V298H144.5V294H144V290H144.5V286H144V282H144.5V278H144V274H144.5V270H144V266H144.5V262H144V258H144.5V254H144V250H144.5V246H144V242H144.5V238H144V234H144.5V230H144V226H144.5V222H144V218H144.5V214H144V210H144.5V206H144V202H144.5V198H144V194H144.5V190H144V186H144.5V182H144V178H144.5V174H144V170H144.5V166H144V162H144.5V158H144V154H144.5V150H144V146H144.5V144.5H146V144H150Z" stroke="black" stroke-dasharray="4 4"/>
</g>
<g id="Control plane">
<rect width="64" height="80" transform="translate(232 352)" fill="white" fill-opacity="0.01" style="mix-blend-mode:multiply"/>
<g id="Icon_4">
<path id="Background color_2" d="M248 355H280C284.418 355 288 358.582 288 363V395C288 399.418 284.418 403 280 403H248C243.582 403 240 399.418 240 395V363C240 358.582 243.582 355 248 355Z" fill="#0F62FE"/>
<g id="Diamond--outline">
<rect width="24" height="24" transform="translate(252 367)" fill="white" fill-opacity="0.01"/>
<path id="Vector_4" d="M274.043 377.895L265.105 368.957C264.8 368.652 264.4 368.5 264 368.5C263.6 368.5 263.2 368.652 262.895 368.957L253.957 377.895C253.652 378.2 253.5 378.6 253.5 379C253.5 379.4 253.652 379.8 253.957 380.105L262.895 389.043C263.2 389.348 263.6 389.5 264 389.5C264.4 389.5 264.8 389.348 265.105 389.043L274.043 380.105C274.348 379.8 274.5 379.4 274.5 379C274.5 378.6 274.348 378.2 274.043 377.895ZM264 388.027L254.973 379L264 369.973L273.027 379L264 388.027Z" fill="white"/>
</g>
</g>
<g id="Label + Text_4">
<path id="Label_4" d="M240.699 425.168C239.033 425.168 237.885 424.51 237.059 423.544L238.305 422.34C238.977 423.124 239.803 423.544 240.811 423.544C241.945 423.544 242.533 422.998 242.533 422.172C242.533 421.514 242.225 421.108 241.203 420.926L240.279 420.786C238.305 420.478 237.353 419.54 237.353 417.944C237.353 416.194 238.711 415.06 240.895 415.06C242.365 415.06 243.457 415.564 244.241 416.502L242.981 417.692C242.505 417.09 241.833 416.684 240.797 416.684C239.747 416.684 239.201 417.104 239.201 417.832C239.201 418.574 239.621 418.882 240.559 419.05L241.469 419.218C243.443 419.568 244.367 420.45 244.367 422.06C244.367 423.908 243.037 425.168 240.699 425.168ZM249.222 425.168C247.066 425.168 245.778 423.67 245.778 421.332C245.778 419.022 247.024 417.524 249.166 417.524C251.448 417.524 252.498 419.204 252.498 421.206V421.794H247.64V421.976C247.64 423.026 248.242 423.74 249.418 423.74C250.3 423.74 250.832 423.32 251.28 422.746L252.246 423.824C251.644 424.65 250.58 425.168 249.222 425.168ZM249.194 418.868C248.256 418.868 247.64 419.568 247.64 420.576V420.688H250.636V420.562C250.636 419.554 250.118 418.868 249.194 418.868ZM256.026 425H254.234V417.692H256.026V418.91H256.096C256.39 418.126 257.006 417.524 258.14 417.524C259.638 417.524 260.478 418.56 260.478 420.38V425H258.686V420.562C258.686 419.526 258.336 418.994 257.482 418.994C256.74 418.994 256.026 419.386 256.026 420.17V425ZM264.907 425C263.675 425 263.017 424.328 263.017 423.138V419.12H261.939V417.692H262.499C263.031 417.692 263.199 417.44 263.199 416.936V415.69H264.809V417.692H266.307V419.12H264.809V423.572H266.195V425H264.907ZM268.917 416.628C268.175 416.628 267.867 416.25 267.867 415.732V415.452C267.867 414.934 268.175 414.556 268.917 414.556C269.645 414.556 269.967 414.934 269.967 415.452V415.732C269.967 416.25 269.645 416.628 268.917 416.628ZM268.021 425V417.692H269.813V425H268.021ZM273.842 425H272.05V417.692H273.842V418.91H273.912C274.206 418.126 274.822 417.524 275.956 417.524C277.454 417.524 278.294 418.56 278.294 420.38V425H276.502V420.562C276.502 419.526 276.152 418.994 275.298 418.994C274.556 418.994 273.842 419.386 273.842 420.17V425ZM283.395 425.168C281.239 425.168 279.951 423.67 279.951 421.332C279.951 419.022 281.197 417.524 283.339 417.524C285.621 417.524 286.671 419.204 286.671 421.206V421.794H281.813V421.976C281.813 423.026 282.415 423.74 283.591 423.74C284.473 423.74 285.005 423.32 285.453 422.746L286.419 423.824C285.817 424.65 284.753 425.168 283.395 425.168ZM283.367 418.868C282.429 418.868 281.813 419.568 281.813 420.576V420.688H284.809V420.562C284.809 419.554 284.291 418.868 283.367 418.868ZM291.166 425H290.2C288.982 425 288.408 424.356 288.408 423.236V414.64H290.2V423.572H291.166V425Z" fill="black"/>
</g>
</g>
<g id="Create a VSI">
<rect width="64" height="74" transform="translate(232 232)" fill="white" fill-opacity="0.01" style="mix-blend-mode:multiply"/>
<g id="Icon_5">
<rect width="48" height="48" transform="translate(240 232)" fill="white" fill-opacity="0.01" style="mix-blend-mode:multiply"/>
<circle id="Background" cx="264" cy="256" r="24" fill="#0F62FE"/>
<g id="Db2--database">
<rect width="24" height="24" transform="translate(252 244)" fill="white" fill-opacity="0.01"/>
<path id="Vector_5" d="M264 246.25C260.027 246.25 255.75 247.189 255.75 249.25V262.75C255.75 264.811 260.027 265.75 264 265.75C267.973 265.75 272.25 264.811 272.25 262.75V249.25C272.25 247.189 267.973 246.25 264 246.25ZM264 247.75C268.348 247.75 270.596 248.826 270.748 249.25C270.596 249.674 268.348 250.75 264 250.75C259.619 250.75 257.37 249.658 257.25 249.263V249.26C257.37 248.842 259.619 247.75 264 247.75ZM257.25 251.071C258.846 251.871 261.482 252.25 264 252.25C266.518 252.25 269.154 251.871 270.75 251.071V253.74C270.63 254.158 268.381 255.25 264 255.25C259.612 255.25 257.363 254.155 257.25 253.75V251.071ZM257.25 255.571C258.846 256.371 261.482 256.75 264 256.75C266.518 256.75 269.154 256.371 270.75 255.571V258.24C270.63 258.658 268.381 259.75 264 259.75C259.612 259.75 257.363 258.655 257.25 258.25V255.571ZM264 264.25C259.612 264.25 257.363 263.155 257.25 262.75V260.071C258.846 260.871 261.482 261.25 264 261.25C266.518 261.25 269.154 260.871 270.75 260.071V262.74C270.63 263.158 268.381 264.25 264 264.25Z" fill="white"/>
</g>
</g>
<g id="Label + Text_5">
<path id="Label_5" d="M248.202 302H242.504V292.228H244.352V300.362H248.202V302ZM252.67 302.168C250.514 302.168 249.226 300.67 249.226 298.332C249.226 296.022 250.472 294.524 252.614 294.524C254.896 294.524 255.946 296.204 255.946 298.206V298.794H251.088V298.976C251.088 300.026 251.69 300.74 252.866 300.74C253.748 300.74 254.28 300.32 254.728 299.746L255.694 300.824C255.092 301.65 254.028 302.168 252.67 302.168ZM252.642 295.868C251.704 295.868 251.088 296.568 251.088 297.576V297.688H254.084V297.562C254.084 296.554 253.566 295.868 252.642 295.868ZM259.489 302.168C258.005 302.168 257.165 301.314 257.165 300.012C257.165 298.514 258.299 297.772 260.287 297.772H261.533V297.24C261.533 296.428 261.127 295.952 260.175 295.952C259.335 295.952 258.859 296.372 258.509 296.876L257.445 295.924C257.977 295.084 258.831 294.524 260.301 294.524C262.275 294.524 263.325 295.462 263.325 297.128V300.572H264.053V302H263.059C262.289 302 261.813 301.496 261.701 300.74H261.617C261.379 301.678 260.581 302.168 259.489 302.168ZM260.091 300.866C260.889 300.866 261.533 300.502 261.533 299.816V298.85H260.385C259.447 298.85 258.985 299.172 258.985 299.746V299.984C258.985 300.572 259.391 300.866 260.091 300.866ZM270.199 302V300.782H270.129C269.863 301.608 269.079 302.168 268.113 302.168C266.279 302.168 265.257 300.782 265.257 298.332C265.257 295.896 266.279 294.524 268.113 294.524C269.079 294.524 269.877 295.056 270.129 295.896H270.199V291.64H271.991V302H270.199ZM268.687 300.684C269.541 300.684 270.199 300.25 270.199 299.494V297.17C270.199 296.456 269.541 295.994 268.687 295.994C267.763 295.994 267.133 296.68 267.133 297.716V298.976C267.133 300.012 267.763 300.684 268.687 300.684ZM277.171 302.168C275.015 302.168 273.727 300.67 273.727 298.332C273.727 296.022 274.973 294.524 277.115 294.524C279.397 294.524 280.447 296.204 280.447 298.206V298.794H275.589V298.976C275.589 300.026 276.191 300.74 277.367 300.74C278.249 300.74 278.781 300.32 279.229 299.746L280.195 300.824C279.593 301.65 278.529 302.168 277.171 302.168ZM277.143 295.868C276.205 295.868 275.589 296.568 275.589 297.576V297.688H278.585V297.562C278.585 296.554 278.067 295.868 277.143 295.868ZM283.976 302H282.184V294.692H283.976V296.204H284.046C284.228 295.434 284.816 294.692 285.978 294.692H286.37V296.386H285.81C284.606 296.386 283.976 296.722 283.976 297.52V302Z" fill="black"/>
</g>
</g>
</g>
<g id="Frame 8">
<g id="Location_3">
<rect width="240" height="336" transform="translate(432 144)" fill="white"/>
<rect id="Background white_4" x="432" y="144" width="240" height="336" fill="white"/>
<g id="Content_4" clip-path="url(#clip3_473_4794)">
<g id="Label + Text_6">
<path id="Label_6" d="M497.114 173H495.196L494.412 170.508H490.94L490.17 173H488.294L491.57 163.228H493.866L497.114 173ZM493.964 168.926L492.704 164.908H492.634L491.388 168.926H493.964ZM501.915 173H499.787L497.351 165.692H499.115L500.137 168.842L500.851 171.446H500.949L501.663 168.842L502.657 165.692H504.365L501.915 173ZM507.404 173.168C505.92 173.168 505.08 172.314 505.08 171.012C505.08 169.514 506.214 168.772 508.202 168.772H509.448V168.24C509.448 167.428 509.042 166.952 508.09 166.952C507.25 166.952 506.774 167.372 506.424 167.876L505.36 166.924C505.892 166.084 506.746 165.524 508.216 165.524C510.19 165.524 511.24 166.462 511.24 168.128V171.572H511.968V173H510.974C510.204 173 509.728 172.496 509.616 171.74H509.532C509.294 172.678 508.496 173.168 507.404 173.168ZM508.006 171.866C508.804 171.866 509.448 171.502 509.448 170.816V169.85H508.3C507.362 169.85 506.9 170.172 506.9 170.746V170.984C506.9 171.572 507.306 171.866 508.006 171.866ZM514.474 164.628C513.732 164.628 513.424 164.25 513.424 163.732V163.452C513.424 162.934 513.732 162.556 514.474 162.556C515.202 162.556 515.524 162.934 515.524 163.452V163.732C515.524 164.25 515.202 164.628 514.474 164.628ZM513.578 173V165.692H515.37V173H513.578ZM520.366 173H519.4C518.182 173 517.608 172.356 517.608 171.236V162.64H519.4V171.572H520.366V173ZM523.689 173.168C522.205 173.168 521.365 172.314 521.365 171.012C521.365 169.514 522.499 168.772 524.487 168.772H525.733V168.24C525.733 167.428 525.327 166.952 524.375 166.952C523.535 166.952 523.059 167.372 522.709 167.876L521.645 166.924C522.177 166.084 523.031 165.524 524.501 165.524C526.475 165.524 527.525 166.462 527.525 168.128V171.572H528.253V173H527.259C526.489 173 526.013 172.496 525.901 171.74H525.817C525.579 172.678 524.781 173.168 523.689 173.168ZM524.291 171.866C525.089 171.866 525.733 171.502 525.733 170.816V169.85H524.585C523.647 169.85 523.185 170.172 523.185 170.746V170.984C523.185 171.572 523.591 171.866 524.291 171.866ZM529.863 173V162.64H531.655V166.896H531.711C531.977 166.056 532.761 165.524 533.727 165.524C535.575 165.524 536.597 166.896 536.597 169.332C536.597 171.782 535.575 173.168 533.727 173.168C532.761 173.168 531.991 172.608 531.711 171.782H531.655V173H529.863ZM533.153 171.684C534.077 171.684 534.721 171.012 534.721 169.976V168.716C534.721 167.68 534.077 166.994 533.153 166.994C532.299 166.994 531.655 167.456 531.655 168.17V170.494C531.655 171.25 532.299 171.684 533.153 171.684ZM539.314 164.628C538.572 164.628 538.264 164.25 538.264 163.732V163.452C538.264 162.934 538.572 162.556 539.314 162.556C540.042 162.556 540.364 162.934 540.364 163.452V163.732C540.364 164.25 540.042 164.628 539.314 164.628ZM538.418 173V165.692H540.21V173H538.418ZM545.205 173H544.239C543.021 173 542.447 172.356 542.447 171.236V162.64H544.239V171.572H545.205V173ZM547.618 164.628C546.876 164.628 546.568 164.25 546.568 163.732V163.452C546.568 162.934 546.876 162.556 547.618 162.556C548.346 162.556 548.668 162.934 548.668 163.452V163.732C548.668 164.25 548.346 164.628 547.618 164.628ZM546.722 173V165.692H548.514V173H546.722ZM553.033 173C551.801 173 551.143 172.328 551.143 171.138V167.12H550.065V165.692H550.625C551.157 165.692 551.325 165.44 551.325 164.936V163.69H552.935V165.692H554.433V167.12H552.935V171.572H554.321V173H553.033ZM559.354 169.556L560.628 165.692H562.308L559.368 174.302C559.004 175.352 558.486 175.8 557.282 175.8H556.204V174.372H557.52L557.856 173.35L555.238 165.692H557.016L558.29 169.556L558.766 171.404H558.85L559.354 169.556ZM573.936 171.362V173H566.614V171.348L571.668 164.866H566.866V163.228H573.796V164.88L568.728 171.362H573.936ZM578.488 173.168C576.402 173.168 575.1 171.684 575.1 169.332C575.1 166.994 576.402 165.524 578.488 165.524C580.588 165.524 581.89 166.994 581.89 169.332C581.89 171.684 580.588 173.168 578.488 173.168ZM578.488 171.726C579.426 171.726 580.014 171.124 580.014 170.018V168.66C580.014 167.568 579.426 166.966 578.488 166.966C577.564 166.966 576.976 167.568 576.976 168.66V170.018C576.976 171.124 577.564 171.726 578.488 171.726ZM585.431 173H583.639V165.692H585.431V166.91H585.501C585.795 166.126 586.411 165.524 587.545 165.524C589.043 165.524 589.883 166.56 589.883 168.38V173H588.091V168.562C588.091 167.526 587.741 166.994 586.887 166.994C586.145 166.994 585.431 167.386 585.431 168.17V173ZM594.984 173.168C592.828 173.168 591.54 171.67 591.54 169.332C591.54 167.022 592.786 165.524 594.928 165.524C597.21 165.524 598.26 167.204 598.26 169.206V169.794H593.402V169.976C593.402 171.026 594.004 171.74 595.18 171.74C596.062 171.74 596.594 171.32 597.042 170.746L598.008 171.824C597.406 172.65 596.342 173.168 594.984 173.168ZM594.956 166.868C594.018 166.868 593.402 167.568 593.402 168.576V168.688H596.398V168.562C596.398 167.554 595.88 166.868 594.956 166.868ZM603.577 173V163.228H608.099C609.709 163.228 610.689 164.222 610.689 165.734C610.689 167.218 609.835 167.778 608.939 167.834V167.918C609.793 167.932 611.053 168.534 611.053 170.2C611.053 171.768 609.975 173 608.533 173H603.577ZM605.425 168.814V171.432H608.001C608.701 171.432 609.121 171.054 609.121 170.368V169.892C609.121 169.206 608.701 168.814 608.001 168.814H605.425ZM605.425 164.796V167.302H607.707C608.379 167.302 608.771 166.91 608.771 166.266V165.832C608.771 165.174 608.379 164.796 607.707 164.796H605.425Z" fill="black"/>
</g>
<g id="Icon_6">
<g id="Data--center_2">
<rect width="24" height="24" transform="translate(448 156)" fill="white" fill-opacity="0.01" style="mix-blend-mode:multiply"/>
<g id="Vector_6">
<path d="M469 163.5H465.25V160.5C465.25 160.102 465.091 159.721 464.81 159.44C464.529 159.159 464.148 159 463.75 159H456.25C455.852 159 455.471 159.159 455.19 159.44C454.909 159.721 454.75 160.102 454.75 160.5V163.5H451C450.602 163.5 450.221 163.659 449.94 163.94C449.659 164.221 449.5 164.602 449.5 165V177C449.5 177.398 449.659 177.779 449.94 178.06C450.221 178.341 450.602 178.5 451 178.5H469C469.398 178.5 469.779 178.341 470.06 178.06C470.341 177.779 470.5 177.398 470.5 177V165C470.5 164.602 470.341 164.221 470.06 163.94C469.779 163.659 469.398 163.5 469 163.5ZM451 177V165H454.75V166.5H453.25V168H454.75V169.5H453.25V171H454.75V172.5H453.25V174H454.75V177H451ZM463.75 177H456.25V160.5H463.75V177ZM469 177H465.25V174H466.75V172.5H465.25V171H466.75V169.5H465.25V168H466.75V166.5H465.25V165H469V177Z" fill="black"/>
<path d="M461.5 162H458.5V163.5H461.5V162Z" fill="black"/>
<path d="M461.5 165H458.5V166.5H461.5V165Z" fill="black"/>
<path d="M461.5 168H458.5V169.5H461.5V168Z" fill="black"/>
</g>
</g>
</g>
</g>
<path id="Dash border_2" d="M438 144V144.5H442V144H446V144.5H450V144H454V144.5H458V144H462V144.5H466V144H470V144.5H474V144H478V144.5H482V144H486V144.5H490V144H494V144.5H498V144H502V144.5H506V144H510V144.5H514V144H518V144.5H522V144H526V144.5H530V144H534V144.5H538V144H542V144.5H546V144H550V144.5H554V144H558V144.5H562V144H566V144.5H570V144H574V144.5H578V144H582V144.5H586V144H590V144.5H594V144H598V144.5H602V144H606V144.5H610V144H614V144.5H618V144H622V144.5H626V144H630V144.5H634V144H638V144.5H642V144H646V144.5H650V144H654V144.5H658V144H662V144.5H666V144H670V144.5H671.5V146H672V150H671.5V154H672V158H671.5V162H672V166H671.5V170H672V174H671.5V178H672V182H671.5V186H672V190H671.5V194H672V198H671.5V202H672V206H671.5V210H672V214H671.5V218H672V222H671.5V226H672V230H671.5V234H672V238H671.5V242H672V246H671.5V250H672V254H671.5V258H672V262H671.5V266H672V270H671.5V274H672V278H671.5V282H672V286H671.5V290H672V294H671.5V298H672V302H671.5V306H672V310H671.5V314H672V318H671.5V322H672V326H671.5V330H672V334H671.5V338H672V342H671.5V346H672V350H671.5V354H672V358H671.5V362H672V366H671.5V370H672V374H671.5V378H672V382H671.5V386H672V390H671.5V394H672V398H671.5V402H672V406H671.5V410H672V414H671.5V418H672V422H671.5V426H672V430H671.5V434H672V438H671.5V442H672V446H671.5V450H672V454H671.5V458H672V462H671.5V466H672V470H671.5V474H672V478H671.5V479.5H670V480H666V479.5H662V480H658V479.5H654V480H650V479.5H646V480H642V479.5H638V480H634V479.5H630V480H626V479.5H622V480H618V479.5H614V480H610V479.5H606V480H602V479.5H598V480H594V479.5H590V480H586V479.5H582V480H578V479.5H574V480H570V479.5H566V480H562V479.5H558V480H554V479.5H550V480H546V479.5H542V480H538V479.5H534V480H530V479.5H526V480H522V479.5H518V480H514V479.5H510V480H506V479.5H502V480H498V479.5H494V480H490V479.5H486V480H482V479.5H478V480H474V479.5H470V480H466V479.5H462V480H458V479.5H454V480H450V479.5H446V480H442V479.5H438V480H434V479.5H432.5V478H432V474H432.5V470H432V466H432.5V462H432V458H432.5V454H432V450H432.5V446H432V442H432.5V438H432V434H432.5V430H432V426H432.5V422H432V418H432.5V414H432V410H432.5V406H432V402H432.5V398H432V394H432.5V390H432V386H432.5V382H432V378H432.5V374H432V370H432.5V366H432V362H432.5V358H432V354H432.5V350H432V346H432.5V342H432V338H432.5V334H432V330H432.5V326H432V322H432.5V318H432V314H432.5V310H432V306H432.5V302H432V298H432.5V294H432V290H432.5V286H432V282H432.5V278H432V274H432.5V270H432V266H432.5V262H432V258H432.5V254H432V250H432.5V246H432V242H432.5V238H432V234H432.5V230H432V226H432.5V222H432V218H432.5V214H432V210H432.5V206H432V202H432.5V198H432V194H432.5V190H432V186H432.5V182H432V178H432.5V174H432V170H432.5V166H432V162H432.5V158H432V154H432.5V150H432V146H432.5V144.5H434V144H438Z" stroke="black" stroke-dasharray="4 4"/>
</g>
<g id="Control plane_2">
<rect width="64" height="80" transform="translate(520 352)" fill="white" fill-opacity="0.01" style="mix-blend-mode:multiply"/>
<g id="Icon_7">
<path id="Background color_3" d="M536 355H568C572.418 355 576 358.582 576 363V395C576 399.418 572.418 403 568 403H536C531.582 403 528 399.418 528 395V363C528 358.582 531.582 355 536 355Z" fill="#0F62FE"/>
<g id="Diamond--outline_2">
<rect width="24" height="24" transform="translate(540 367)" fill="white" fill-opacity="0.01"/>
<path id="Vector_7" d="M562.043 377.895L553.105 368.957C552.8 368.652 552.4 368.5 552 368.5C551.6 368.5 551.2 368.652 550.895 368.957L541.957 377.895C541.652 378.2 541.5 378.6 541.5 379C541.5 379.4 541.652 379.8 541.957 380.105L550.895 389.043C551.2 389.348 551.6 389.5 552 389.5C552.4 389.5 552.8 389.348 553.105 389.043L562.043 380.105C562.348 379.8 562.5 379.4 562.5 379C562.5 378.6 562.348 378.2 562.043 377.895ZM552 388.027L542.973 379L552 369.973L561.027 379L552 388.027Z" fill="white"/>
</g>
</g>
<g id="Label + Text_7">
<path id="Label_7" d="M528.699 425.168C527.033 425.168 525.885 424.51 525.059 423.544L526.305 422.34C526.977 423.124 527.803 423.544 528.811 423.544C529.945 423.544 530.533 422.998 530.533 422.172C530.533 421.514 530.225 421.108 529.203 420.926L528.279 420.786C526.305 420.478 525.353 419.54 525.353 417.944C525.353 416.194 526.711 415.06 528.895 415.06C530.365 415.06 531.457 415.564 532.241 416.502L530.981 417.692C530.505 417.09 529.833 416.684 528.797 416.684C527.747 416.684 527.201 417.104 527.201 417.832C527.201 418.574 527.621 418.882 528.559 419.05L529.469 419.218C531.443 419.568 532.367 420.45 532.367 422.06C532.367 423.908 531.037 425.168 528.699 425.168ZM537.222 425.168C535.066 425.168 533.778 423.67 533.778 421.332C533.778 419.022 535.024 417.524 537.166 417.524C539.448 417.524 540.498 419.204 540.498 421.206V421.794H535.64V421.976C535.64 423.026 536.242 423.74 537.418 423.74C538.3 423.74 538.832 423.32 539.28 422.746L540.246 423.824C539.644 424.65 538.58 425.168 537.222 425.168ZM537.194 418.868C536.256 418.868 535.64 419.568 535.64 420.576V420.688H538.636V420.562C538.636 419.554 538.118 418.868 537.194 418.868ZM544.026 425H542.234V417.692H544.026V418.91H544.096C544.39 418.126 545.006 417.524 546.14 417.524C547.638 417.524 548.478 418.56 548.478 420.38V425H546.686V420.562C546.686 419.526 546.336 418.994 545.482 418.994C544.74 418.994 544.026 419.386 544.026 420.17V425ZM552.907 425C551.675 425 551.017 424.328 551.017 423.138V419.12H549.939V417.692H550.499C551.031 417.692 551.199 417.44 551.199 416.936V415.69H552.809V417.692H554.307V419.12H552.809V423.572H554.195V425H552.907ZM556.917 416.628C556.175 416.628 555.867 416.25 555.867 415.732V415.452C555.867 414.934 556.175 414.556 556.917 414.556C557.645 414.556 557.967 414.934 557.967 415.452V415.732C557.967 416.25 557.645 416.628 556.917 416.628ZM556.021 425V417.692H557.813V425H556.021ZM561.842 425H560.05V417.692H561.842V418.91H561.912C562.206 418.126 562.822 417.524 563.956 417.524C565.454 417.524 566.294 418.56 566.294 420.38V425H564.502V420.562C564.502 419.526 564.152 418.994 563.298 418.994C562.556 418.994 561.842 419.386 561.842 420.17V425ZM571.395 425.168C569.239 425.168 567.951 423.67 567.951 421.332C567.951 419.022 569.197 417.524 571.339 417.524C573.621 417.524 574.671 419.204 574.671 421.206V421.794H569.813V421.976C569.813 423.026 570.415 423.74 571.591 423.74C572.473 423.74 573.005 423.32 573.453 422.746L574.419 423.824C573.817 424.65 572.753 425.168 571.395 425.168ZM571.367 418.868C570.429 418.868 569.813 419.568 569.813 420.576V420.688H572.809V420.562C572.809 419.554 572.291 418.868 571.367 418.868ZM579.166 425H578.2C576.982 425 576.408 424.356 576.408 423.236V414.64H578.2V423.572H579.166V425Z" fill="black"/>
</g>
</g>
<g id="Create a VSI_2">
<rect width="64" height="74" transform="translate(520 232)" fill="white" fill-opacity="0.01" style="mix-blend-mode:multiply"/>
<g id="Icon_8">
<rect width="48" height="48" transform="translate(528 232)" fill="white" fill-opacity="0.01" style="mix-blend-mode:multiply"/>
<circle id="Background_2" cx="552" cy="256" r="24" fill="#0F62FE"/>
<g id="Replicate">
<rect width="24" height="24" transform="translate(540 244)" fill="white" fill-opacity="0.01"/>
<g id="Vector_8">
<path d="M561 250H562.5V247C562.5 246.602 562.341 246.221 562.06 245.94C561.779 245.659 561.398 245.5 561 245.5H558V247H561V250Z" fill="white"/>
<path d="M555.75 245.5H552.75V247H555.75V245.5Z" fill="white"/>
<path d="M562.5 252.25H561V255.25H562.5V252.25Z" fill="white"/>
<path d="M561 257.5V260.5H558V251.5C558 251.102 557.841 250.721 557.56 250.44C557.279 250.159 556.898 250 556.5 250H547.5V247H550.5V245.5H547.5C547.102 245.5 546.721 245.659 546.44 245.94C546.159 246.221 546 246.602 546 247V250H543C542.602 250 542.221 250.159 541.94 250.44C541.659 250.721 541.5 251.102 541.5 251.5V265C541.5 265.398 541.659 265.779 541.94 266.06C542.221 266.341 542.602 266.5 543 266.5H556.5C556.898 266.5 557.279 266.341 557.56 266.06C557.841 265.779 558 265.398 558 265V262H561C561.398 262 561.779 261.841 562.06 261.56C562.341 261.279 562.5 260.898 562.5 260.5V257.5H561ZM556.5 265H543V251.5H556.5V265Z" fill="white"/>
</g>
</g>
</g>
<g id="Label + Text_8">
<path id="Label_8" d="M530.378 298.234V302H528.53V292.228H532.94C534.718 292.228 535.824 293.404 535.824 295.252C535.824 296.596 535.208 297.618 534.004 298.024L536.006 302H533.948L532.128 298.234H530.378ZM530.378 296.68H532.758C533.472 296.68 533.906 296.288 533.906 295.574V294.93C533.906 294.216 533.472 293.838 532.758 293.838H530.378V296.68ZM540.624 302.168C538.468 302.168 537.18 300.67 537.18 298.332C537.18 296.022 538.426 294.524 540.568 294.524C542.85 294.524 543.9 296.204 543.9 298.206V298.794H539.042V298.976C539.042 300.026 539.644 300.74 540.82 300.74C541.702 300.74 542.234 300.32 542.682 299.746L543.648 300.824C543.046 301.65 541.982 302.168 540.624 302.168ZM540.596 295.868C539.658 295.868 539.042 296.568 539.042 297.576V297.688H542.038V297.562C542.038 296.554 541.52 295.868 540.596 295.868ZM545.637 304.8V294.692H547.429V295.896H547.485C547.751 295.056 548.535 294.524 549.501 294.524C551.349 294.524 552.371 295.896 552.371 298.332C552.371 300.782 551.349 302.168 549.501 302.168C548.535 302.168 547.765 301.608 547.485 300.782H547.429V304.8H545.637ZM548.927 300.684C549.851 300.684 550.495 300.012 550.495 298.976V297.716C550.495 296.68 549.851 295.994 548.927 295.994C548.073 295.994 547.429 296.456 547.429 297.17V299.494C547.429 300.25 548.073 300.684 548.927 300.684ZM556.949 302H555.983C554.765 302 554.191 301.356 554.191 300.236V291.64H555.983V300.572H556.949V302ZM559.363 293.628C558.621 293.628 558.313 293.25 558.313 292.732V292.452C558.313 291.934 558.621 291.556 559.363 291.556C560.091 291.556 560.413 291.934 560.413 292.452V292.732C560.413 293.25 560.091 293.628 559.363 293.628ZM558.467 302V294.692H560.259V302H558.467ZM565.38 302.168C563.224 302.168 562.006 300.684 562.006 298.332C562.006 295.994 563.224 294.524 565.38 294.524C566.85 294.524 567.816 295.224 568.25 296.372L566.78 297.03C566.612 296.414 566.15 295.966 565.38 295.966C564.386 295.966 563.882 296.666 563.882 297.688V299.018C563.882 300.04 564.386 300.726 565.38 300.726C566.234 300.726 566.654 300.236 566.92 299.578L568.292 300.236C567.816 301.524 566.794 302.168 565.38 302.168ZM571.639 302.168C570.155 302.168 569.315 301.314 569.315 300.012C569.315 298.514 570.449 297.772 572.437 297.772H573.683V297.24C573.683 296.428 573.277 295.952 572.325 295.952C571.485 295.952 571.009 296.372 570.659 296.876L569.595 295.924C570.127 295.084 570.981 294.524 572.451 294.524C574.425 294.524 575.475 295.462 575.475 297.128V300.572H576.203V302H575.209C574.439 302 573.963 301.496 573.851 300.74H573.767C573.529 301.678 572.731 302.168 571.639 302.168ZM572.241 300.866C573.039 300.866 573.683 300.502 573.683 299.816V298.85H572.535C571.597 298.85 571.135 299.172 571.135 299.746V299.984C571.135 300.572 571.541 300.866 572.241 300.866Z" fill="black"/>
</g>
</g>
</g>
<g id="Frame 9">
<g id="Location_4">
<rect width="240" height="336" transform="translate(720 144)" fill="white"/>
<rect id="Background white_5" x="720" y="144" width="240" height="336" fill="white"/>
<g id="Content_5" clip-path="url(#clip4_473_4794)">
<g id="Label + Text_9">
<path id="Label_9" d="M785.114 173H783.196L782.412 170.508H778.94L778.17 173H776.294L779.57 163.228H781.866L785.114 173ZM781.964 168.926L780.704 164.908H780.634L779.388 168.926H781.964ZM789.915 173H787.787L785.351 165.692H787.115L788.137 168.842L788.851 171.446H788.949L789.663 168.842L790.657 165.692H792.365L789.915 173ZM795.404 173.168C793.92 173.168 793.08 172.314 793.08 171.012C793.08 169.514 794.214 168.772 796.202 168.772H797.448V168.24C797.448 167.428 797.042 166.952 796.09 166.952C795.25 166.952 794.774 167.372 794.424 167.876L793.36 166.924C793.892 166.084 794.746 165.524 796.216 165.524C798.19 165.524 799.24 166.462 799.24 168.128V171.572H799.968V173H798.974C798.204 173 797.728 172.496 797.616 171.74H797.532C797.294 172.678 796.496 173.168 795.404 173.168ZM796.006 171.866C796.804 171.866 797.448 171.502 797.448 170.816V169.85H796.3C795.362 169.85 794.9 170.172 794.9 170.746V170.984C794.9 171.572 795.306 171.866 796.006 171.866ZM802.474 164.628C801.732 164.628 801.424 164.25 801.424 163.732V163.452C801.424 162.934 801.732 162.556 802.474 162.556C803.202 162.556 803.524 162.934 803.524 163.452V163.732C803.524 164.25 803.202 164.628 802.474 164.628ZM801.578 173V165.692H803.37V173H801.578ZM808.366 173H807.4C806.182 173 805.608 172.356 805.608 171.236V162.64H807.4V171.572H808.366V173ZM811.689 173.168C810.205 173.168 809.365 172.314 809.365 171.012C809.365 169.514 810.499 168.772 812.487 168.772H813.733V168.24C813.733 167.428 813.327 166.952 812.375 166.952C811.535 166.952 811.059 167.372 810.709 167.876L809.645 166.924C810.177 166.084 811.031 165.524 812.501 165.524C814.475 165.524 815.525 166.462 815.525 168.128V171.572H816.253V173H815.259C814.489 173 814.013 172.496 813.901 171.74H813.817C813.579 172.678 812.781 173.168 811.689 173.168ZM812.291 171.866C813.089 171.866 813.733 171.502 813.733 170.816V169.85H812.585C811.647 169.85 811.185 170.172 811.185 170.746V170.984C811.185 171.572 811.591 171.866 812.291 171.866ZM817.863 173V162.64H819.655V166.896H819.711C819.977 166.056 820.761 165.524 821.727 165.524C823.575 165.524 824.597 166.896 824.597 169.332C824.597 171.782 823.575 173.168 821.727 173.168C820.761 173.168 819.991 172.608 819.711 171.782H819.655V173H817.863ZM821.153 171.684C822.077 171.684 822.721 171.012 822.721 169.976V168.716C822.721 167.68 822.077 166.994 821.153 166.994C820.299 166.994 819.655 167.456 819.655 168.17V170.494C819.655 171.25 820.299 171.684 821.153 171.684ZM827.314 164.628C826.572 164.628 826.264 164.25 826.264 163.732V163.452C826.264 162.934 826.572 162.556 827.314 162.556C828.042 162.556 828.364 162.934 828.364 163.452V163.732C828.364 164.25 828.042 164.628 827.314 164.628ZM826.418 173V165.692H828.21V173H826.418ZM833.205 173H832.239C831.021 173 830.447 172.356 830.447 171.236V162.64H832.239V171.572H833.205V173ZM835.618 164.628C834.876 164.628 834.568 164.25 834.568 163.732V163.452C834.568 162.934 834.876 162.556 835.618 162.556C836.346 162.556 836.668 162.934 836.668 163.452V163.732C836.668 164.25 836.346 164.628 835.618 164.628ZM834.722 173V165.692H836.514V173H834.722ZM841.033 173C839.801 173 839.143 172.328 839.143 171.138V167.12H838.065V165.692H838.625C839.157 165.692 839.325 165.44 839.325 164.936V163.69H840.935V165.692H842.433V167.12H840.935V171.572H842.321V173H841.033ZM847.354 169.556L848.628 165.692H850.308L847.368 174.302C847.004 175.352 846.486 175.8 845.282 175.8H844.204V174.372H845.52L845.856 173.35L843.238 165.692H845.016L846.29 169.556L846.766 171.404H846.85L847.354 169.556ZM861.936 171.362V173H854.614V171.348L859.668 164.866H854.866V163.228H861.796V164.88L856.728 171.362H861.936ZM866.488 173.168C864.402 173.168 863.1 171.684 863.1 169.332C863.1 166.994 864.402 165.524 866.488 165.524C868.588 165.524 869.89 166.994 869.89 169.332C869.89 171.684 868.588 173.168 866.488 173.168ZM866.488 171.726C867.426 171.726 868.014 171.124 868.014 170.018V168.66C868.014 167.568 867.426 166.966 866.488 166.966C865.564 166.966 864.976 167.568 864.976 168.66V170.018C864.976 171.124 865.564 171.726 866.488 171.726ZM873.431 173H871.639V165.692H873.431V166.91H873.501C873.795 166.126 874.411 165.524 875.545 165.524C877.043 165.524 877.883 166.56 877.883 168.38V173H876.091V168.562C876.091 167.526 875.741 166.994 874.887 166.994C874.145 166.994 873.431 167.386 873.431 168.17V173ZM882.984 173.168C880.828 173.168 879.54 171.67 879.54 169.332C879.54 167.022 880.786 165.524 882.928 165.524C885.21 165.524 886.26 167.204 886.26 169.206V169.794H881.402V169.976C881.402 171.026 882.004 171.74 883.18 171.74C884.062 171.74 884.594 171.32 885.042 170.746L886.008 171.824C885.406 172.65 884.342 173.168 882.984 173.168ZM882.956 166.868C882.018 166.868 881.402 167.568 881.402 168.576V168.688H884.398V168.562C884.398 167.554 883.88 166.868 882.956 166.868ZM895.371 173.168C892.795 173.168 891.157 171.474 891.157 168.184C891.157 164.894 892.795 163.06 895.371 163.06C897.121 163.06 898.255 163.802 898.941 165.314L897.359 166.154C897.079 165.286 896.463 164.698 895.371 164.698C893.999 164.698 893.117 165.692 893.117 167.358V168.898C893.117 170.578 893.999 171.53 895.371 171.53C896.477 171.53 897.163 170.858 897.485 169.976L898.983 170.858C898.283 172.314 897.121 173.168 895.371 173.168Z" fill="black"/>
</g>
<g id="Icon_9">
<g id="Data--center_3">
<rect width="24" height="24" transform="translate(736 156)" fill="white" fill-opacity="0.01" style="mix-blend-mode:multiply"/>
<g id="Vector_9">
<path d="M757 163.5H753.25V160.5C753.25 160.102 753.091 159.721 752.81 159.44C752.529 159.159 752.148 159 751.75 159H744.25C743.852 159 743.471 159.159 743.19 159.44C742.909 159.721 742.75 160.102 742.75 160.5V163.5H739C738.602 163.5 738.221 163.659 737.94 163.94C737.659 164.221 737.5 164.602 737.5 165V177C737.5 177.398 737.659 177.779 737.94 178.06C738.221 178.341 738.602 178.5 739 178.5H757C757.398 178.5 757.779 178.341 758.06 178.06C758.341 177.779 758.5 177.398 758.5 177V165C758.5 164.602 758.341 164.221 758.06 163.94C757.779 163.659 757.398 163.5 757 163.5ZM739 177V165H742.75V166.5H741.25V168H742.75V169.5H741.25V171H742.75V172.5H741.25V174H742.75V177H739ZM751.75 177H744.25V160.5H751.75V177ZM757 177H753.25V174H754.75V172.5H753.25V171H754.75V169.5H753.25V168H754.75V166.5H753.25V165H757V177Z" fill="black"/>
<path d="M749.5 162H746.5V163.5H749.5V162Z" fill="black"/>
<path d="M749.5 165H746.5V166.5H749.5V165Z" fill="black"/>
<path d="M749.5 168H746.5V169.5H749.5V168Z" fill="black"/>
</g>
</g>
</g>
</g>
<path id="Dash border_3" d="M726 144V144.5H730V144H734V144.5H738V144H742V144.5H746V144H750V144.5H754V144H758V144.5H762V144H766V144.5H770V144H774V144.5H778V144H782V144.5H786V144H790V144.5H794V144H798V144.5H802V144H806V144.5H810V144H814V144.5H818V144H822V144.5H826V144H830V144.5H834V144H838V144.5H842V144H846V144.5H850V144H854V144.5H858V144H862V144.5H866V144H870V144.5H874V144H878V144.5H882V144H886V144.5H890V144H894V144.5H898V144H902V144.5H906V144H910V144.5H914V144H918V144.5H922V144H926V144.5H930V144H934V144.5H938V144H942V144.5H946V144H950V144.5H954V144H958V144.5H959.5V146H960V150H959.5V154H960V158H959.5V162H960V166H959.5V170H960V174H959.5V178H960V182H959.5V186H960V190H959.5V194H960V198H959.5V202H960V206H959.5V210H960V214H959.5V218H960V222H959.5V226H960V230H959.5V234H960V238H959.5V242H960V246H959.5V250H960V254H959.5V258H960V262H959.5V266H960V270H959.5V274H960V278H959.5V282H960V286H959.5V290H960V294H959.5V298H960V302H959.5V306H960V310H959.5V314H960V318H959.5V322H960V326H959.5V330H960V334H959.5V338H960V342H959.5V346H960V350H959.5V354H960V358H959.5V362H960V366H959.5V370H960V374H959.5V378H960V382H959.5V386H960V390H959.5V394H960V398H959.5V402H960V406H959.5V410H960V414H959.5V418H960V422H959.5V426H960V430H959.5V434H960V438H959.5V442H960V446H959.5V450H960V454H959.5V458H960V462H959.5V466H960V470H959.5V474H960V478H959.5V479.5H958V480H954V479.5H950V480H946V479.5H942V480H938V479.5H934V480H930V479.5H926V480H922V479.5H918V480H914V479.5H910V480H906V479.5H902V480H898V479.5H894V480H890V479.5H886V480H882V479.5H878V480H874V479.5H870V480H866V479.5H862V480H858V479.5H854V480H850V479.5H846V480H842V479.5H838V480H834V479.5H830V480H826V479.5H822V480H818V479.5H814V480H810V479.5H806V480H802V479.5H798V480H794V479.5H790V480H786V479.5H782V480H778V479.5H774V480H770V479.5H766V480H762V479.5H758V480H754V479.5H750V480H746V479.5H742V480H738V479.5H734V480H730V479.5H726V480H722V479.5H720.5V478H720V474H720.5V470H720V466H720.5V462H720V458H720.5V454H720V450H720.5V446H720V442H720.5V438H720V434H720.5V430H720V426H720.5V422H720V418H720.5V414H720V410H720.5V406H720V402H720.5V398H720V394H720.5V390H720V386H720.5V382H720V378H720.5V374H720V370H720.5V366H720V362H720.5V358H720V354H720.5V350H720V346H720.5V342H720V338H720.5V334H720V330H720.5V326H720V322H720.5V318H720V314H720.5V310H720V306H720.5V302H720V298H720.5V294H720V290H720.5V286H720V282H720.5V278H720V274H720.5V270H720V266H720.5V262H720V258H720.5V254H720V250H720.5V246H720V242H720.5V238H720V234H720.5V230H720V226H720.5V222H720V218H720.5V214H720V210H720.5V206H720V202H720.5V198H720V194H720.5V190H720V186H720.5V182H720V178H720.5V174H720V170H720.5V166H720V162H720.5V158H720V154H720.5V150H720V146H720.5V144.5H722V144H726Z" stroke="black" stroke-dasharray="4 4"/>
</g>
<g id="Control plane_3">
<rect width="64" height="80" transform="translate(808 352)" fill="white" fill-opacity="0.01" style="mix-blend-mode:multiply"/>
<g id="Icon_10">
<path id="Background color_4" d="M824 355H856C860.418 355 864 358.582 864 363V395C864 399.418 860.418 403 856 403H824C819.582 403 816 399.418 816 395V363C816 358.582 819.582 355 824 355Z" fill="#0F62FE"/>
<g id="Diamond--outline_3">
<rect width="24" height="24" transform="translate(828 367)" fill="white" fill-opacity="0.01"/>
<path id="Vector_10" d="M850.043 377.895L841.105 368.957C840.8 368.652 840.4 368.5 840 368.5C839.6 368.5 839.2 368.652 838.895 368.957L829.957 377.895C829.652 378.2 829.5 378.6 829.5 379C829.5 379.4 829.652 379.8 829.957 380.105L838.895 389.043C839.2 389.348 839.6 389.5 840 389.5C840.4 389.5 840.8 389.348 841.105 389.043L850.043 380.105C850.348 379.8 850.5 379.4 850.5 379C850.5 378.6 850.348 378.2 850.043 377.895ZM840 388.027L830.973 379L840 369.973L849.027 379L840 388.027Z" fill="white"/>
</g>
</g>
<g id="Label + Text_10">
<path id="Label_10" d="M816.699 425.168C815.033 425.168 813.885 424.51 813.059 423.544L814.305 422.34C814.977 423.124 815.803 423.544 816.811 423.544C817.945 423.544 818.533 422.998 818.533 422.172C818.533 421.514 818.225 421.108 817.203 420.926L816.279 420.786C814.305 420.478 813.353 419.54 813.353 417.944C813.353 416.194 814.711 415.06 816.895 415.06C818.365 415.06 819.457 415.564 820.241 416.502L818.981 417.692C818.505 417.09 817.833 416.684 816.797 416.684C815.747 416.684 815.201 417.104 815.201 417.832C815.201 418.574 815.621 418.882 816.559 419.05L817.469 419.218C819.443 419.568 820.367 420.45 820.367 422.06C820.367 423.908 819.037 425.168 816.699 425.168ZM825.222 425.168C823.066 425.168 821.778 423.67 821.778 421.332C821.778 419.022 823.024 417.524 825.166 417.524C827.448 417.524 828.498 419.204 828.498 421.206V421.794H823.64V421.976C823.64 423.026 824.242 423.74 825.418 423.74C826.3 423.74 826.832 423.32 827.28 422.746L828.246 423.824C827.644 424.65 826.58 425.168 825.222 425.168ZM825.194 418.868C824.256 418.868 823.64 419.568 823.64 420.576V420.688H826.636V420.562C826.636 419.554 826.118 418.868 825.194 418.868ZM832.026 425H830.234V417.692H832.026V418.91H832.096C832.39 418.126 833.006 417.524 834.14 417.524C835.638 417.524 836.478 418.56 836.478 420.38V425H834.686V420.562C834.686 419.526 834.336 418.994 833.482 418.994C832.74 418.994 832.026 419.386 832.026 420.17V425ZM840.907 425C839.675 425 839.017 424.328 839.017 423.138V419.12H837.939V417.692H838.499C839.031 417.692 839.199 417.44 839.199 416.936V415.69H840.809V417.692H842.307V419.12H840.809V423.572H842.195V425H840.907ZM844.917 416.628C844.175 416.628 843.867 416.25 843.867 415.732V415.452C843.867 414.934 844.175 414.556 844.917 414.556C845.645 414.556 845.967 414.934 845.967 415.452V415.732C845.967 416.25 845.645 416.628 844.917 416.628ZM844.021 425V417.692H845.813V425H844.021ZM849.842 425H848.05V417.692H849.842V418.91H849.912C850.206 418.126 850.822 417.524 851.956 417.524C853.454 417.524 854.294 418.56 854.294 420.38V425H852.502V420.562C852.502 419.526 852.152 418.994 851.298 418.994C850.556 418.994 849.842 419.386 849.842 420.17V425ZM859.395 425.168C857.239 425.168 855.951 423.67 855.951 421.332C855.951 419.022 857.197 417.524 859.339 417.524C861.621 417.524 862.671 419.204 862.671 421.206V421.794H857.813V421.976C857.813 423.026 858.415 423.74 859.591 423.74C860.473 423.74 861.005 423.32 861.453 422.746L862.419 423.824C861.817 424.65 860.753 425.168 859.395 425.168ZM859.367 418.868C858.429 418.868 857.813 419.568 857.813 420.576V420.688H860.809V420.562C860.809 419.554 860.291 418.868 859.367 418.868ZM867.166 425H866.2C864.982 425 864.408 424.356 864.408 423.236V414.64H866.2V423.572H867.166V425Z" fill="black"/>
</g>
</g>
</g>
</g>
<g id="Control plane_4">
<rect x="48.5" y="624.5" width="1007" height="47" fill="white"/>
<rect x="48.5" y="624.5" width="1007" height="47" stroke="#0F62FE"/>
<rect id="Background white_6" x="49" y="625" width="1006" height="46" fill="white"/>
<g id="Content_6" clip-path="url(#clip5_473_4794)">
<g id="Label + Text_11">
<path id="Label_11" d="M471.487 653H467.049V651.516H468.337V644.712H467.049V643.228H471.487V644.712H470.185V651.516H471.487V653ZM473.535 653V643.228H478.057C479.667 643.228 480.647 644.222 480.647 645.734C480.647 647.218 479.793 647.778 478.897 647.834V647.918C479.751 647.932 481.011 648.534 481.011 650.2C481.011 651.768 479.933 653 478.491 653H473.535ZM475.383 648.814V651.432H477.959C478.659 651.432 479.079 651.054 479.079 650.368V649.892C479.079 649.206 478.659 648.814 477.959 648.814H475.383ZM475.383 644.796V647.302H477.665C478.337 647.302 478.729 646.91 478.729 646.266V645.832C478.729 645.174 478.337 644.796 477.665 644.796H475.383ZM482.978 653V643.228H485.064L487.57 648.002H487.626L490.104 643.228H492.106V653H490.356V645.986H490.3L489.544 647.54L487.542 651.236L485.54 647.54L484.784 645.986H484.728V653H482.978ZM501.83 653.168C499.254 653.168 497.616 651.474 497.616 648.184C497.616 644.894 499.254 643.06 501.83 643.06C503.58 643.06 504.714 643.802 505.4 645.314L503.818 646.154C503.538 645.286 502.922 644.698 501.83 644.698C500.458 644.698 499.576 645.692 499.576 647.358V648.898C499.576 650.578 500.458 651.53 501.83 651.53C502.936 651.53 503.622 650.858 503.944 649.976L505.442 650.858C504.742 652.314 503.58 653.168 501.83 653.168ZM509.825 653H508.859C507.641 653 507.067 652.356 507.067 651.236V642.64H508.859V651.572H509.825V653ZM514.24 653.168C512.154 653.168 510.852 651.684 510.852 649.332C510.852 646.994 512.154 645.524 514.24 645.524C516.34 645.524 517.642 646.994 517.642 649.332C517.642 651.684 516.34 653.168 514.24 653.168ZM514.24 651.726C515.178 651.726 515.766 651.124 515.766 650.018V648.66C515.766 647.568 515.178 646.966 514.24 646.966C513.316 646.966 512.728 647.568 512.728 648.66V650.018C512.728 651.124 513.316 651.726 514.24 651.726ZM523.759 653V651.782H523.689C523.437 652.51 522.849 653.168 521.645 653.168C520.147 653.168 519.307 652.132 519.307 650.312V645.692H521.099V650.13C521.099 651.138 521.477 651.684 522.331 651.684C523.045 651.684 523.759 651.306 523.759 650.522V645.692H525.551V653H523.759ZM532.317 653V651.782H532.247C531.981 652.608 531.197 653.168 530.231 653.168C528.397 653.168 527.375 651.782 527.375 649.332C527.375 646.896 528.397 645.524 530.231 645.524C531.197 645.524 531.995 646.056 532.247 646.896H532.317V642.64H534.109V653H532.317ZM530.805 651.684C531.659 651.684 532.317 651.25 532.317 650.494V648.17C532.317 647.456 531.659 646.994 530.805 646.994C529.881 646.994 529.251 647.68 529.251 648.716V649.976C529.251 651.012 529.881 651.684 530.805 651.684ZM543.752 653.168C541.19 653.168 539.496 651.418 539.496 648.114C539.496 644.81 541.19 643.06 543.752 643.06C546.328 643.06 548.008 644.81 548.008 648.114C548.008 651.418 546.328 653.168 543.752 653.168ZM543.752 651.53C545.152 651.53 546.048 650.536 546.048 648.87V647.358C546.048 645.692 545.152 644.698 543.752 644.698C542.352 644.698 541.456 645.692 541.456 647.358V648.87C541.456 650.536 542.352 651.53 543.752 651.53ZM549.931 653V642.64H551.723V646.896H551.779C552.045 646.056 552.829 645.524 553.795 645.524C555.643 645.524 556.665 646.896 556.665 649.332C556.665 651.782 555.643 653.168 553.795 653.168C552.829 653.168 552.059 652.608 551.779 651.782H551.723V653H549.931ZM553.221 651.684C554.145 651.684 554.789 651.012 554.789 649.976V648.716C554.789 647.68 554.145 646.994 553.221 646.994C552.367 646.994 551.723 647.456 551.723 648.17V650.494C551.723 651.25 552.367 651.684 553.221 651.684ZM558.486 654.372V645.692H560.278V653.882C560.278 655.1 559.69 655.8 558.346 655.8H557.366V654.372H558.486ZM559.382 644.628C558.64 644.628 558.332 644.25 558.332 643.732V643.452C558.332 642.934 558.64 642.556 559.382 642.556C560.11 642.556 560.432 642.934 560.432 643.452V643.732C560.432 644.25 560.11 644.628 559.382 644.628ZM565.469 653.168C563.313 653.168 562.025 651.67 562.025 649.332C562.025 647.022 563.271 645.524 565.413 645.524C567.695 645.524 568.745 647.204 568.745 649.206V649.794H563.887V649.976C563.887 651.026 564.489 651.74 565.665 651.74C566.547 651.74 567.079 651.32 567.527 650.746L568.493 651.824C567.891 652.65 566.827 653.168 565.469 653.168ZM565.441 646.868C564.503 646.868 563.887 647.568 563.887 648.576V648.688H566.883V648.562C566.883 647.554 566.365 646.868 565.441 646.868ZM573.365 653.168C571.209 653.168 569.991 651.684 569.991 649.332C569.991 646.994 571.209 645.524 573.365 645.524C574.835 645.524 575.801 646.224 576.235 647.372L574.765 648.03C574.597 647.414 574.135 646.966 573.365 646.966C572.371 646.966 571.867 647.666 571.867 648.688V650.018C571.867 651.04 572.371 651.726 573.365 651.726C574.219 651.726 574.639 651.236 574.905 650.578L576.277 651.236C575.801 652.524 574.779 653.168 573.365 653.168ZM580.101 653C578.869 653 578.211 652.328 578.211 651.138V647.12H577.133V645.692H577.693C578.225 645.692 578.393 645.44 578.393 644.936V643.69H580.003V645.692H581.501V647.12H580.003V651.572H581.389V653H580.101ZM589.834 653.168C588.168 653.168 587.02 652.51 586.194 651.544L587.44 650.34C588.112 651.124 588.938 651.544 589.946 651.544C591.08 651.544 591.668 650.998 591.668 650.172C591.668 649.514 591.36 649.108 590.338 648.926L589.414 648.786C587.44 648.478 586.488 647.54 586.488 645.944C586.488 644.194 587.846 643.06 590.03 643.06C591.5 643.06 592.592 643.564 593.376 644.502L592.116 645.692C591.64 645.09 590.968 644.684 589.932 644.684C588.882 644.684 588.336 645.104 588.336 645.832C588.336 646.574 588.756 646.882 589.694 647.05L590.604 647.218C592.578 647.568 593.502 648.45 593.502 650.06C593.502 651.908 592.172 653.168 589.834 653.168ZM597.63 653C596.398 653 595.74 652.328 595.74 651.138V647.12H594.662V645.692H595.222C595.754 645.692 595.922 645.44 595.922 644.936V643.69H597.532V645.692H599.03V647.12H597.532V651.572H598.918V653H597.63ZM603.588 653.168C601.502 653.168 600.2 651.684 600.2 649.332C600.2 646.994 601.502 645.524 603.588 645.524C605.688 645.524 606.99 646.994 606.99 649.332C606.99 651.684 605.688 653.168 603.588 653.168ZM603.588 651.726C604.526 651.726 605.114 651.124 605.114 650.018V648.66C605.114 647.568 604.526 646.966 603.588 646.966C602.664 646.966 602.076 647.568 602.076 648.66V650.018C602.076 651.124 602.664 651.726 603.588 651.726ZM610.53 653H608.738V645.692H610.53V647.204H610.6C610.782 646.434 611.37 645.692 612.532 645.692H612.924V647.386H612.364C611.16 647.386 610.53 647.722 610.53 648.52V653ZM616.05 653.168C614.566 653.168 613.726 652.314 613.726 651.012C613.726 649.514 614.86 648.772 616.848 648.772H618.094V648.24C618.094 647.428 617.688 646.952 616.736 646.952C615.896 646.952 615.42 647.372 615.07 647.876L614.006 646.924C614.538 646.084 615.392 645.524 616.862 645.524C618.836 645.524 619.886 646.462 619.886 648.128V651.572H620.614V653H619.62C618.85 653 618.374 652.496 618.262 651.74H618.178C617.94 652.678 617.142 653.168 616.05 653.168ZM616.652 651.866C617.45 651.866 618.094 651.502 618.094 650.816V649.85H616.946C616.008 649.85 615.546 650.172 615.546 650.746V650.984C615.546 651.572 615.952 651.866 616.652 651.866ZM628.818 653.616C628.818 655.142 627.782 655.968 624.982 655.968C622.518 655.968 621.58 655.324 621.58 654.246C621.58 653.434 622.07 652.972 622.882 652.846V652.692C622.28 652.538 621.944 652.062 621.944 651.474C621.944 650.718 622.588 650.34 623.288 650.186V650.13C622.406 649.724 621.958 648.968 621.958 648.002C621.958 646.518 623.008 645.524 624.982 645.524C625.43 645.524 625.892 645.58 626.256 645.706V645.468C626.256 644.754 626.62 644.404 627.292 644.404H628.426V645.776H626.872V645.972C627.628 646.392 628.006 647.106 628.006 648.002C628.006 649.472 626.97 650.452 624.982 650.452C624.562 650.452 624.184 650.41 623.862 650.326C623.582 650.452 623.344 650.662 623.344 650.984C623.344 651.348 623.652 651.53 624.296 651.53H626.256C628.048 651.53 628.818 652.3 628.818 653.616ZM627.138 653.826C627.138 653.364 626.802 653.084 625.892 653.084H623.4C623.134 653.28 623.022 653.546 623.022 653.84C623.022 654.4 623.442 654.736 624.562 654.736H625.458C626.62 654.736 627.138 654.442 627.138 653.826ZM624.982 649.234C625.836 649.234 626.298 648.842 626.298 648.114V647.876C626.298 647.134 625.836 646.756 624.982 646.756C624.128 646.756 623.666 647.134 623.666 647.876V648.114C623.666 648.842 624.128 649.234 624.982 649.234ZM632.885 653.168C630.729 653.168 629.441 651.67 629.441 649.332C629.441 647.022 630.687 645.524 632.829 645.524C635.111 645.524 636.161 647.204 636.161 649.206V649.794H631.303V649.976C631.303 651.026 631.905 651.74 633.081 651.74C633.963 651.74 634.495 651.32 634.943 650.746L635.909 651.824C635.307 652.65 634.243 653.168 632.885 653.168ZM632.857 646.868C631.919 646.868 631.303 647.568 631.303 648.576V648.688H634.299V648.562C634.299 647.554 633.781 646.868 632.857 646.868ZM641.03 648.632C641.03 645.93 642.094 643.578 643.494 642.36H645.188C643.676 643.76 642.71 645.86 642.71 648.128V649.164C642.71 651.488 643.69 653.574 645.188 654.932H643.494C642.122 653.756 641.03 651.362 641.03 648.632ZM650.149 653.168C647.573 653.168 645.935 651.474 645.935 648.184C645.935 644.894 647.573 643.06 650.149 643.06C651.899 643.06 653.033 643.802 653.719 645.314L652.137 646.154C651.857 645.286 651.241 644.698 650.149 644.698C648.777 644.698 647.895 645.692 647.895 647.358V648.898C647.895 650.578 648.777 651.53 650.149 651.53C651.255 651.53 651.941 650.858 652.263 649.976L653.761 650.858C653.061 652.314 651.899 653.168 650.149 653.168ZM659.156 653.168C656.594 653.168 654.9 651.418 654.9 648.114C654.9 644.81 656.594 643.06 659.156 643.06C661.732 643.06 663.412 644.81 663.412 648.114C663.412 651.418 661.732 653.168 659.156 653.168ZM659.156 651.53C660.556 651.53 661.452 650.536 661.452 648.87V647.358C661.452 645.692 660.556 644.698 659.156 644.698C657.756 644.698 656.86 645.692 656.86 647.358V648.87C656.86 650.536 657.756 651.53 659.156 651.53ZM668.444 653.168C666.778 653.168 665.63 652.51 664.804 651.544L666.05 650.34C666.722 651.124 667.548 651.544 668.556 651.544C669.69 651.544 670.278 650.998 670.278 650.172C670.278 649.514 669.97 649.108 668.948 648.926L668.024 648.786C666.05 648.478 665.098 647.54 665.098 645.944C665.098 644.194 666.456 643.06 668.64 643.06C670.11 643.06 671.202 643.564 671.986 644.502L670.726 645.692C670.25 645.09 669.578 644.684 668.542 644.684C667.492 644.684 666.946 645.104 666.946 645.832C666.946 646.574 667.366 646.882 668.304 647.05L669.214 647.218C671.188 647.568 672.112 648.45 672.112 650.06C672.112 651.908 670.782 653.168 668.444 653.168ZM676.994 648.632C676.994 651.362 675.902 653.756 674.53 654.932H672.836C674.334 653.574 675.314 651.488 675.314 649.164V648.128C675.314 645.86 674.348 643.76 672.836 642.36H674.53C675.93 643.578 676.994 645.93 676.994 648.632Z" fill="black"/>
</g>
<g id="Icon_11">
<g id="Object-storage">
<rect width="24" height="24" transform="translate(64 636)" fill="white" fill-opacity="0.01" style="mix-blend-mode:multiply"/>
<g id="Vector_11">
<path d="M85 651H83.5V652.5H85V657H67V652.5H74.5V651H67C66.6023 651 66.221 651.159 65.9398 651.44C65.6586 651.721 65.5005 652.102 65.5 652.5V657C65.5005 657.398 65.6586 657.779 65.9398 658.06C66.221 658.341 66.6023 658.5 67 658.5H85C85.3977 658.5 85.779 658.341 86.0602 658.06C86.3414 657.779 86.4995 657.398 86.5 657V652.5C86.4995 652.102 86.3414 651.721 86.0602 651.44C85.779 651.159 85.3977 651 85 651Z" fill="black"/>
<path d="M69.25 655.5C69.6642 655.5 70 655.164 70 654.75C70 654.336 69.6642 654 69.25 654C68.8358 654 68.5 654.336 68.5 654.75C68.5 655.164 68.8358 655.5 69.25 655.5Z" fill="black"/>
<path d="M86.5 642H80.5V646.5H76V652.5H82V648H86.5V642ZM80.5 651H77.5V648H80.5V651ZM85 646.5H82V643.5H85V646.5Z" fill="black"/>
<path d="M77.5 643.5H71.5V637.5H77.5V643.5ZM73 642H76V639H73V642Z" fill="black"/>
</g>
</g>
</g>
</g>
</g>
</g>
<defs>
<clipPath id="clip0_473_4794">
<rect width="1104" height="48" fill="white"/>
</clipPath>
<clipPath id="clip1_473_4794">
<rect width="1008" height="48" fill="white" transform="translate(48 72)"/>
</clipPath>
<clipPath id="clip2_473_4794">
<rect width="240" height="48" fill="white" transform="translate(144 144)"/>
</clipPath>
<clipPath id="clip3_473_4794">
<rect width="240" height="48" fill="white" transform="translate(432 144)"/>
</clipPath>
<clipPath id="clip4_473_4794">
<rect width="240" height="48" fill="white" transform="translate(720 144)"/>
</clipPath>
<clipPath id="clip5_473_4794">
<rect width="1008" height="48" fill="white" transform="translate(48 624)"/>
</clipPath>
</defs>
</svg>
