<svg width="1584" height="1080" viewBox="0 0 1584 1080" fill="none" xmlns="http://www.w3.org/2000/svg">
<rect width="1584" height="1080" fill="white"/>
<path d="M248 192.5H1336C1340.14 192.5 1343.5 195.858 1343.5 200V904C1343.5 908.142 1340.14 911.5 1336 911.5H248C243.858 911.5 240.5 908.142 240.5 904V200C240.5 195.858 243.858 192.5 248 192.5Z" fill="white"/>
<path d="M248 192.5H1336C1340.14 192.5 1343.5 195.858 1343.5 200V904C1343.5 908.142 1340.14 911.5 1336 911.5H248C243.858 911.5 240.5 908.142 240.5 904V200C240.5 195.858 243.858 192.5 248 192.5Z" stroke="#8D8D8D"/>
<path d="M241 200C241 196.134 244.134 193 248 193H1336C1339.87 193 1343 196.134 1343 200V904C1343 907.866 1339.87 911 1336 911H248C244.134 911 241 907.866 241 904V200Z" fill="white"/>
<g clip-path="url(#clip0_121_9021)">
<path d="M301.18 221H296.742V219.516H298.03V212.712H296.742V211.228H301.18V212.712H299.878V219.516H301.18V221ZM303.228 221V211.228H307.75C309.36 211.228 310.34 212.222 310.34 213.734C310.34 215.218 309.486 215.778 308.59 215.834V215.918C309.444 215.932 310.704 216.534 310.704 218.2C310.704 219.768 309.626 221 308.184 221H303.228ZM305.076 216.814V219.432H307.652C308.352 219.432 308.772 219.054 308.772 218.368V217.892C308.772 217.206 308.352 216.814 307.652 216.814H305.076ZM305.076 212.796V215.302H307.358C308.03 215.302 308.422 214.91 308.422 214.266V213.832C308.422 213.174 308.03 212.796 307.358 212.796H305.076ZM312.671 221V211.228H314.757L317.263 216.002H317.319L319.797 211.228H321.799V221H320.049V213.986H319.993L319.237 215.54L317.235 219.236L315.233 215.54L314.477 213.986H314.421V221H312.671ZM331.523 221.168C328.947 221.168 327.309 219.474 327.309 216.184C327.309 212.894 328.947 211.06 331.523 211.06C333.273 211.06 334.407 211.802 335.093 213.314L333.511 214.154C333.231 213.286 332.615 212.698 331.523 212.698C330.151 212.698 329.269 213.692 329.269 215.358V216.898C329.269 218.578 330.151 219.53 331.523 219.53C332.629 219.53 333.315 218.858 333.637 217.976L335.135 218.858C334.435 220.314 333.273 221.168 331.523 221.168ZM339.518 221H338.552C337.334 221 336.76 220.356 336.76 219.236V210.64H338.552V219.572H339.518V221ZM343.933 221.168C341.847 221.168 340.545 219.684 340.545 217.332C340.545 214.994 341.847 213.524 343.933 213.524C346.033 213.524 347.335 214.994 347.335 217.332C347.335 219.684 346.033 221.168 343.933 221.168ZM343.933 219.726C344.871 219.726 345.459 219.124 345.459 218.018V216.66C345.459 215.568 344.871 214.966 343.933 214.966C343.009 214.966 342.421 215.568 342.421 216.66V218.018C342.421 219.124 343.009 219.726 343.933 219.726ZM353.452 221V219.782H353.382C353.13 220.51 352.542 221.168 351.338 221.168C349.84 221.168 349 220.132 349 218.312V213.692H350.792V218.13C350.792 219.138 351.17 219.684 352.024 219.684C352.738 219.684 353.452 219.306 353.452 218.522V213.692H355.244V221H353.452ZM362.01 221V219.782H361.94C361.674 220.608 360.89 221.168 359.924 221.168C358.09 221.168 357.068 219.782 357.068 217.332C357.068 214.896 358.09 213.524 359.924 213.524C360.89 213.524 361.688 214.056 361.94 214.896H362.01V210.64H363.802V221H362.01ZM360.498 219.684C361.352 219.684 362.01 219.25 362.01 218.494V216.17C362.01 215.456 361.352 214.994 360.498 214.994C359.574 214.994 358.944 215.68 358.944 216.716V217.976C358.944 219.012 359.574 219.684 360.498 219.684Z" fill="black"/>
<rect width="24" height="24" transform="translate(256 204)" fill="white" fill-opacity="0.01" style="mix-blend-mode:multiply"/>
<path d="M268 209.25C268.38 209.25 268.759 209.288 269.132 209.363C270.311 209.588 271.394 210.162 272.243 211.009C273.092 211.857 273.667 212.94 273.895 214.118L274.09 215.13L275.102 215.31C276.125 215.486 277.044 216.041 277.675 216.864C278.307 217.687 278.606 218.718 278.511 219.751C278.416 220.785 277.936 221.745 277.165 222.439C276.394 223.134 275.39 223.513 274.352 223.5H261.625C260.587 223.513 259.583 223.134 258.812 222.439C258.041 221.745 257.561 220.785 257.466 219.751C257.372 218.718 257.67 217.687 258.302 216.864C258.933 216.041 259.852 215.486 260.875 215.31L261.88 215.13L262.075 214.118C262.339 212.742 263.076 211.503 264.158 210.614C265.24 209.725 266.599 209.242 268 209.25ZM268 207.75C266.254 207.749 264.563 208.356 263.217 209.468C261.871 210.579 260.955 212.126 260.627 213.84C259.246 214.09 258.008 214.848 257.157 215.964C256.306 217.08 255.902 218.474 256.026 219.872C256.15 221.27 256.793 222.572 257.827 223.52C258.862 224.469 260.214 224.997 261.617 225H274.367C275.771 224.997 277.123 224.469 278.157 223.52C279.192 222.572 279.834 221.27 279.958 219.872C280.082 218.474 279.679 217.08 278.828 215.964C277.976 214.848 276.739 214.09 275.357 213.84C275.075 212.365 274.356 211.009 273.295 209.948C272.233 208.886 270.877 208.167 269.402 207.885C268.94 207.797 268.47 207.752 268 207.75Z" fill="black"/>
</g>
<rect x="288.5" y="264.5" width="1007" height="503" fill="white" fill-opacity="0.01" style="mix-blend-mode:multiply"/>
<rect x="288.5" y="264.5" width="1007" height="503" stroke="#0F62FE"/>
<rect x="289" y="265" width="1006" height="502" fill="white"/>
<rect x="289" y="265" width="1006" height="502" fill="#EDF5FF"/>
<g clip-path="url(#clip1_121_9021)">
<path d="M349.18 293H344.742V291.516H346.03V284.712H344.742V283.228H349.18V284.712H347.878V291.516H349.18V293ZM355.022 293.168C352.446 293.168 350.808 291.474 350.808 288.184C350.808 284.894 352.446 283.06 355.022 283.06C356.772 283.06 357.906 283.802 358.592 285.314L357.01 286.154C356.73 285.286 356.114 284.698 355.022 284.698C353.65 284.698 352.768 285.692 352.768 287.358V288.898C352.768 290.578 353.65 291.53 355.022 291.53C356.128 291.53 356.814 290.858 357.136 289.976L358.634 290.858C357.934 292.314 356.772 293.168 355.022 293.168ZM360.37 293V283.228H363.926C366.474 283.228 368.14 284.866 368.14 288.114C368.14 291.362 366.474 293 363.926 293H360.37ZM362.218 291.362H363.926C365.298 291.362 366.18 290.55 366.18 288.884V287.344C366.18 285.678 365.298 284.866 363.926 284.866H362.218V291.362ZM375.499 289.234V293H373.651V283.228H378.061C379.839 283.228 380.945 284.404 380.945 286.252C380.945 287.596 380.329 288.618 379.125 289.024L381.127 293H379.069L377.249 289.234H375.499ZM375.499 287.68H377.879C378.593 287.68 379.027 287.288 379.027 286.574V285.93C379.027 285.216 378.593 284.838 377.879 284.838H375.499V287.68ZM385.745 293.168C383.589 293.168 382.301 291.67 382.301 289.332C382.301 287.022 383.547 285.524 385.689 285.524C387.971 285.524 389.021 287.204 389.021 289.206V289.794H384.163V289.976C384.163 291.026 384.765 291.74 385.941 291.74C386.823 291.74 387.355 291.32 387.803 290.746L388.769 291.824C388.167 292.65 387.103 293.168 385.745 293.168ZM385.717 286.868C384.779 286.868 384.163 287.568 384.163 288.576V288.688H387.159V288.562C387.159 287.554 386.641 286.868 385.717 286.868ZM395.294 293V291.782H395.224C394.958 292.608 394.174 293.168 393.208 293.168C391.374 293.168 390.352 291.782 390.352 289.332C390.352 286.896 391.374 285.524 393.208 285.524C394.174 285.524 394.972 286.056 395.224 286.896H395.294V282.64H397.086V293H395.294ZM393.782 291.684C394.636 291.684 395.294 291.25 395.294 290.494V288.17C395.294 287.456 394.636 286.994 393.782 286.994C392.858 286.994 392.228 287.68 392.228 288.716V289.976C392.228 291.012 392.858 291.684 393.782 291.684ZM400.208 284.628C399.466 284.628 399.158 284.25 399.158 283.732V283.452C399.158 282.934 399.466 282.556 400.208 282.556C400.936 282.556 401.258 282.934 401.258 283.452V283.732C401.258 284.25 400.936 284.628 400.208 284.628ZM399.312 293V285.692H401.104V293H399.312ZM405.735 293.168C404.349 293.168 403.439 292.664 402.711 291.824L403.803 290.76C404.335 291.376 404.979 291.754 405.805 291.754C406.659 291.754 407.023 291.432 407.023 290.914C407.023 290.494 406.771 290.228 406.127 290.144L405.399 290.046C403.831 289.85 402.963 289.164 402.963 287.834C402.963 286.42 404.069 285.524 405.735 285.524C407.163 285.524 407.891 285.944 408.591 286.672L407.541 287.722C407.121 287.274 406.505 286.938 405.791 286.938C405.021 286.938 404.685 287.246 404.685 287.694C404.685 288.184 404.951 288.408 405.637 288.52L406.379 288.618C407.975 288.842 408.745 289.556 408.745 290.774C408.745 292.188 407.555 293.168 405.735 293.168Z" fill="black"/>
<rect width="24" height="24" transform="translate(304 276)" fill="white" fill-opacity="0.01" style="mix-blend-mode:multiply"/>
<path d="M323.287 292.5H323.2C323.025 293.014 322.688 293.457 322.241 293.764C321.794 294.072 321.259 294.227 320.717 294.207C318.458 294.207 317.199 292.5 317.199 289.482C317.199 286.481 318.458 284.791 320.717 284.791C321.259 284.762 321.795 284.912 322.244 285.217C322.693 285.522 323.029 285.966 323.2 286.481H323.287V281.239H325.494V294H323.287V292.5ZM323.287 290.913V288.05C323.287 287.171 322.476 286.602 321.424 286.602C321.154 286.6 320.887 286.656 320.641 286.765C320.394 286.874 320.173 287.034 319.993 287.234C319.812 287.435 319.676 287.671 319.593 287.927C319.509 288.184 319.481 288.455 319.51 288.723V290.275C319.481 290.542 319.51 290.813 319.593 291.068C319.677 291.324 319.814 291.558 319.994 291.757C320.175 291.956 320.396 292.114 320.643 292.221C320.889 292.329 321.155 292.382 321.424 292.379C322.476 292.379 323.287 291.845 323.287 290.913Z" fill="black"/>
<path d="M308.918 294H306.642V281.963H312.074C314.264 281.963 315.627 283.411 315.627 285.688C315.688 286.426 315.5 287.162 315.094 287.781C314.688 288.4 314.086 288.865 313.385 289.103L315.851 294H313.316L311.074 289.361H308.918V294ZM311.85 287.447C312.037 287.469 312.226 287.45 312.404 287.39C312.583 287.33 312.745 287.232 312.881 287.101C313.016 286.971 313.121 286.812 313.187 286.636C313.253 286.46 313.28 286.271 313.264 286.084V285.291C313.279 285.104 313.253 284.917 313.186 284.742C313.119 284.567 313.014 284.409 312.879 284.28C312.743 284.151 312.58 284.054 312.402 283.996C312.224 283.938 312.036 283.921 311.85 283.946H308.918V287.447H311.85Z" fill="black"/>
<line x1="290" y1="264" x2="290" y2="312" stroke="#0F62FE" stroke-width="4"/>
</g>
<rect width="240" height="336" transform="translate(384 336)" fill="white"/>
<rect x="384" y="336" width="240" height="336" fill="white"/>
<g clip-path="url(#clip2_121_9021)">
<path d="M449.114 365H447.196L446.412 362.508H442.94L442.17 365H440.294L443.57 355.228H445.866L449.114 365ZM445.964 360.926L444.704 356.908H444.634L443.388 360.926H445.964ZM453.915 365H451.787L449.351 357.692H451.115L452.137 360.842L452.851 363.446H452.949L453.663 360.842L454.657 357.692H456.365L453.915 365ZM459.404 365.168C457.92 365.168 457.08 364.314 457.08 363.012C457.08 361.514 458.214 360.772 460.202 360.772H461.448V360.24C461.448 359.428 461.042 358.952 460.09 358.952C459.25 358.952 458.774 359.372 458.424 359.876L457.36 358.924C457.892 358.084 458.746 357.524 460.216 357.524C462.19 357.524 463.24 358.462 463.24 360.128V363.572H463.968V365H462.974C462.204 365 461.728 364.496 461.616 363.74H461.532C461.294 364.678 460.496 365.168 459.404 365.168ZM460.006 363.866C460.804 363.866 461.448 363.502 461.448 362.816V361.85H460.3C459.362 361.85 458.9 362.172 458.9 362.746V362.984C458.9 363.572 459.306 363.866 460.006 363.866ZM466.474 356.628C465.732 356.628 465.424 356.25 465.424 355.732V355.452C465.424 354.934 465.732 354.556 466.474 354.556C467.202 354.556 467.524 354.934 467.524 355.452V355.732C467.524 356.25 467.202 356.628 466.474 356.628ZM465.578 365V357.692H467.37V365H465.578ZM472.366 365H471.4C470.182 365 469.608 364.356 469.608 363.236V354.64H471.4V363.572H472.366V365ZM475.689 365.168C474.205 365.168 473.365 364.314 473.365 363.012C473.365 361.514 474.499 360.772 476.487 360.772H477.733V360.24C477.733 359.428 477.327 358.952 476.375 358.952C475.535 358.952 475.059 359.372 474.709 359.876L473.645 358.924C474.177 358.084 475.031 357.524 476.501 357.524C478.475 357.524 479.525 358.462 479.525 360.128V363.572H480.253V365H479.259C478.489 365 478.013 364.496 477.901 363.74H477.817C477.579 364.678 476.781 365.168 475.689 365.168ZM476.291 363.866C477.089 363.866 477.733 363.502 477.733 362.816V361.85H476.585C475.647 361.85 475.185 362.172 475.185 362.746V362.984C475.185 363.572 475.591 363.866 476.291 363.866ZM481.863 365V354.64H483.655V358.896H483.711C483.977 358.056 484.761 357.524 485.727 357.524C487.575 357.524 488.597 358.896 488.597 361.332C488.597 363.782 487.575 365.168 485.727 365.168C484.761 365.168 483.991 364.608 483.711 363.782H483.655V365H481.863ZM485.153 363.684C486.077 363.684 486.721 363.012 486.721 361.976V360.716C486.721 359.68 486.077 358.994 485.153 358.994C484.299 358.994 483.655 359.456 483.655 360.17V362.494C483.655 363.25 484.299 363.684 485.153 363.684ZM491.314 356.628C490.572 356.628 490.264 356.25 490.264 355.732V355.452C490.264 354.934 490.572 354.556 491.314 354.556C492.042 354.556 492.364 354.934 492.364 355.452V355.732C492.364 356.25 492.042 356.628 491.314 356.628ZM490.418 365V357.692H492.21V365H490.418ZM497.205 365H496.239C495.021 365 494.447 364.356 494.447 363.236V354.64H496.239V363.572H497.205V365ZM499.618 356.628C498.876 356.628 498.568 356.25 498.568 355.732V355.452C498.568 354.934 498.876 354.556 499.618 354.556C500.346 354.556 500.668 354.934 500.668 355.452V355.732C500.668 356.25 500.346 356.628 499.618 356.628ZM498.722 365V357.692H500.514V365H498.722ZM505.033 365C503.801 365 503.143 364.328 503.143 363.138V359.12H502.065V357.692H502.625C503.157 357.692 503.325 357.44 503.325 356.936V355.69H504.935V357.692H506.433V359.12H504.935V363.572H506.321V365H505.033ZM511.354 361.556L512.628 357.692H514.308L511.368 366.302C511.004 367.352 510.486 367.8 509.282 367.8H508.204V366.372H509.52L509.856 365.35L507.238 357.692H509.016L510.29 361.556L510.766 363.404H510.85L511.354 361.556ZM525.936 363.362V365H518.614V363.348L523.668 356.866H518.866V355.228H525.796V356.88L520.728 363.362H525.936ZM530.488 365.168C528.402 365.168 527.1 363.684 527.1 361.332C527.1 358.994 528.402 357.524 530.488 357.524C532.588 357.524 533.89 358.994 533.89 361.332C533.89 363.684 532.588 365.168 530.488 365.168ZM530.488 363.726C531.426 363.726 532.014 363.124 532.014 362.018V360.66C532.014 359.568 531.426 358.966 530.488 358.966C529.564 358.966 528.976 359.568 528.976 360.66V362.018C528.976 363.124 529.564 363.726 530.488 363.726ZM537.431 365H535.639V357.692H537.431V358.91H537.501C537.795 358.126 538.411 357.524 539.545 357.524C541.043 357.524 541.883 358.56 541.883 360.38V365H540.091V360.562C540.091 359.526 539.741 358.994 538.887 358.994C538.145 358.994 537.431 359.386 537.431 360.17V365ZM546.984 365.168C544.828 365.168 543.54 363.67 543.54 361.332C543.54 359.022 544.786 357.524 546.928 357.524C549.21 357.524 550.26 359.204 550.26 361.206V361.794H545.402V361.976C545.402 363.026 546.004 363.74 547.18 363.74C548.062 363.74 548.594 363.32 549.042 362.746L550.008 363.824C549.406 364.65 548.342 365.168 546.984 365.168ZM546.956 358.868C546.018 358.868 545.402 359.568 545.402 360.576V360.688H548.398V360.562C548.398 359.554 547.88 358.868 546.956 358.868ZM563.543 365H561.625L560.841 362.508H557.369L556.599 365H554.723L557.999 355.228H560.295L563.543 365ZM560.393 360.926L559.133 356.908H559.063L557.817 360.926H560.393Z" fill="black"/>
<rect width="24" height="24" transform="translate(400 348)" fill="white" fill-opacity="0.01" style="mix-blend-mode:multiply"/>
<path d="M421 355.5H417.25V352.5C417.25 352.102 417.091 351.721 416.81 351.44C416.529 351.159 416.148 351 415.75 351H408.25C407.852 351 407.471 351.159 407.19 351.44C406.909 351.721 406.75 352.102 406.75 352.5V355.5H403C402.602 355.5 402.221 355.659 401.94 355.94C401.659 356.221 401.5 356.602 401.5 357V369C401.5 369.398 401.659 369.779 401.94 370.06C402.221 370.341 402.602 370.5 403 370.5H421C421.398 370.5 421.779 370.341 422.06 370.06C422.341 369.779 422.5 369.398 422.5 369V357C422.5 356.602 422.341 356.221 422.06 355.94C421.779 355.659 421.398 355.5 421 355.5ZM403 369V357H406.75V358.5H405.25V360H406.75V361.5H405.25V363H406.75V364.5H405.25V366H406.75V369H403ZM415.75 369H408.25V352.5H415.75V369ZM421 369H417.25V366H418.75V364.5H417.25V363H418.75V361.5H417.25V360H418.75V358.5H417.25V357H421V369Z" fill="black"/>
<path d="M413.5 354H410.5V355.5H413.5V354Z" fill="black"/>
<path d="M413.5 357H410.5V358.5H413.5V357Z" fill="black"/>
<path d="M413.5 360H410.5V361.5H413.5V360Z" fill="black"/>
</g>
<path d="M390 336V336.5H394V336H398V336.5H402V336H406V336.5H410V336H414V336.5H418V336H422V336.5H426V336H430V336.5H434V336H438V336.5H442V336H446V336.5H450V336H454V336.5H458V336H462V336.5H466V336H470V336.5H474V336H478V336.5H482V336H486V336.5H490V336H494V336.5H498V336H502V336.5H506V336H510V336.5H514V336H518V336.5H522V336H526V336.5H530V336H534V336.5H538V336H542V336.5H546V336H550V336.5H554V336H558V336.5H562V336H566V336.5H570V336H574V336.5H578V336H582V336.5H586V336H590V336.5H594V336H598V336.5H602V336H606V336.5H610V336H614V336.5H618V336H622V336.5H623.5V338H624V342H623.5V346H624V350H623.5V354H624V358H623.5V362H624V366H623.5V370H624V374H623.5V378H624V382H623.5V386H624V390H623.5V394H624V398H623.5V402H624V406H623.5V410H624V414H623.5V418H624V422H623.5V426H624V430H623.5V434H624V438H623.5V442H624V446H623.5V450H624V454H623.5V458H624V462H623.5V466H624V470H623.5V474H624V478H623.5V482H624V486H623.5V490H624V494H623.5V498H624V502H623.5V506H624V510H623.5V514H624V518H623.5V522H624V526H623.5V530H624V534H623.5V538H624V542H623.5V546H624V550H623.5V554H624V558H623.5V562H624V566H623.5V570H624V574H623.5V578H624V582H623.5V586H624V590H623.5V594H624V598H623.5V602H624V606H623.5V610H624V614H623.5V618H624V622H623.5V626H624V630H623.5V634H624V638H623.5V642H624V646H623.5V650H624V654H623.5V658H624V662H623.5V666H624V670H623.5V671.5H622V672H618V671.5H614V672H610V671.5H606V672H602V671.5H598V672H594V671.5H590V672H586V671.5H582V672H578V671.5H574V672H570V671.5H566V672H562V671.5H558V672H554V671.5H550V672H546V671.5H542V672H538V671.5H534V672H530V671.5H526V672H522V671.5H518V672H514V671.5H510V672H506V671.5H502V672H498V671.5H494V672H490V671.5H486V672H482V671.5H478V672H474V671.5H470V672H466V671.5H462V672H458V671.5H454V672H450V671.5H446V672H442V671.5H438V672H434V671.5H430V672H426V671.5H422V672H418V671.5H414V672H410V671.5H406V672H402V671.5H398V672H394V671.5H390V672H386V671.5H384.5V670H384V666H384.5V662H384V658H384.5V654H384V650H384.5V646H384V642H384.5V638H384V634H384.5V630H384V626H384.5V622H384V618H384.5V614H384V610H384.5V606H384V602H384.5V598H384V594H384.5V590H384V586H384.5V582H384V578H384.5V574H384V570H384.5V566H384V562H384.5V558H384V554H384.5V550H384V546H384.5V542H384V538H384.5V534H384V530H384.5V526H384V522H384.5V518H384V514H384.5V510H384V506H384.5V502H384V498H384.5V494H384V490H384.5V486H384V482H384.5V478H384V474H384.5V470H384V466H384.5V462H384V458H384.5V454H384V450H384.5V446H384V442H384.5V438H384V434H384.5V430H384V426H384.5V422H384V418H384.5V414H384V410H384.5V406H384V402H384.5V398H384V394H384.5V390H384V386H384.5V382H384V378H384.5V374H384V370H384.5V366H384V362H384.5V358H384V354H384.5V350H384V346H384.5V342H384V338H384.5V336.5H386V336H390Z" stroke="black" stroke-dasharray="4 4"/>
<rect width="64" height="80" transform="translate(472 544)" fill="white" fill-opacity="0.01" style="mix-blend-mode:multiply"/>
<path d="M488 547H520C524.418 547 528 550.582 528 555V587C528 591.418 524.418 595 520 595H488C483.582 595 480 591.418 480 587V555C480 550.582 483.582 547 488 547Z" fill="#0F62FE"/>
<rect width="24" height="24" transform="translate(492 559)" fill="white" fill-opacity="0.01"/>
<path d="M514.043 569.895L505.105 560.957C504.8 560.652 504.4 560.5 504 560.5C503.6 560.5 503.2 560.652 502.895 560.957L493.957 569.895C493.652 570.2 493.5 570.6 493.5 571C493.5 571.4 493.652 571.8 493.957 572.105L502.895 581.043C503.2 581.348 503.6 581.5 504 581.5C504.4 581.5 504.8 581.348 505.105 581.043L514.043 572.105C514.348 571.8 514.5 571.4 514.5 571C514.5 570.6 514.348 570.2 514.043 569.895ZM504 580.027L494.973 571L504 561.973L513.027 571L504 580.027Z" fill="white"/>
<path d="M480.699 617.168C479.033 617.168 477.885 616.51 477.059 615.544L478.305 614.34C478.977 615.124 479.803 615.544 480.811 615.544C481.945 615.544 482.533 614.998 482.533 614.172C482.533 613.514 482.225 613.108 481.203 612.926L480.279 612.786C478.305 612.478 477.353 611.54 477.353 609.944C477.353 608.194 478.711 607.06 480.895 607.06C482.365 607.06 483.457 607.564 484.241 608.502L482.981 609.692C482.505 609.09 481.833 608.684 480.797 608.684C479.747 608.684 479.201 609.104 479.201 609.832C479.201 610.574 479.621 610.882 480.559 611.05L481.469 611.218C483.443 611.568 484.367 612.45 484.367 614.06C484.367 615.908 483.037 617.168 480.699 617.168ZM489.222 617.168C487.066 617.168 485.778 615.67 485.778 613.332C485.778 611.022 487.024 609.524 489.166 609.524C491.448 609.524 492.498 611.204 492.498 613.206V613.794H487.64V613.976C487.64 615.026 488.242 615.74 489.418 615.74C490.3 615.74 490.832 615.32 491.28 614.746L492.246 615.824C491.644 616.65 490.58 617.168 489.222 617.168ZM489.194 610.868C488.256 610.868 487.64 611.568 487.64 612.576V612.688H490.636V612.562C490.636 611.554 490.118 610.868 489.194 610.868ZM496.026 617H494.234V609.692H496.026V610.91H496.096C496.39 610.126 497.006 609.524 498.14 609.524C499.638 609.524 500.478 610.56 500.478 612.38V617H498.686V612.562C498.686 611.526 498.336 610.994 497.482 610.994C496.74 610.994 496.026 611.386 496.026 612.17V617ZM504.907 617C503.675 617 503.017 616.328 503.017 615.138V611.12H501.939V609.692H502.499C503.031 609.692 503.199 609.44 503.199 608.936V607.69H504.809V609.692H506.307V611.12H504.809V615.572H506.195V617H504.907ZM508.917 608.628C508.175 608.628 507.867 608.25 507.867 607.732V607.452C507.867 606.934 508.175 606.556 508.917 606.556C509.645 606.556 509.967 606.934 509.967 607.452V607.732C509.967 608.25 509.645 608.628 508.917 608.628ZM508.021 617V609.692H509.813V617H508.021ZM513.842 617H512.05V609.692H513.842V610.91H513.912C514.206 610.126 514.822 609.524 515.956 609.524C517.454 609.524 518.294 610.56 518.294 612.38V617H516.502V612.562C516.502 611.526 516.152 610.994 515.298 610.994C514.556 610.994 513.842 611.386 513.842 612.17V617ZM523.395 617.168C521.239 617.168 519.951 615.67 519.951 613.332C519.951 611.022 521.197 609.524 523.339 609.524C525.621 609.524 526.671 611.204 526.671 613.206V613.794H521.813V613.976C521.813 615.026 522.415 615.74 523.591 615.74C524.473 615.74 525.005 615.32 525.453 614.746L526.419 615.824C525.817 616.65 524.753 617.168 523.395 617.168ZM523.367 610.868C522.429 610.868 521.813 611.568 521.813 612.576V612.688H524.809V612.562C524.809 611.554 524.291 610.868 523.367 610.868ZM531.166 617H530.2C528.982 617 528.408 616.356 528.408 615.236V606.64H530.2V615.572H531.166V617Z" fill="black"/>
<rect width="64" height="74" transform="translate(472 424)" fill="white" fill-opacity="0.01" style="mix-blend-mode:multiply"/>
<rect width="48" height="48" transform="translate(480 424)" fill="white" fill-opacity="0.01" style="mix-blend-mode:multiply"/>
<circle cx="504" cy="448" r="24" fill="#0F62FE"/>
<rect width="24" height="24" transform="translate(492 436)" fill="white" fill-opacity="0.01"/>
<path d="M504 438.25C500.027 438.25 495.75 439.189 495.75 441.25V454.75C495.75 456.811 500.027 457.75 504 457.75C507.973 457.75 512.25 456.811 512.25 454.75V441.25C512.25 439.189 507.973 438.25 504 438.25ZM504 439.75C508.348 439.75 510.596 440.826 510.748 441.25C510.596 441.674 508.348 442.75 504 442.75C499.619 442.75 497.37 441.658 497.25 441.263V441.26C497.37 440.842 499.619 439.75 504 439.75ZM497.25 443.071C498.846 443.871 501.482 444.25 504 444.25C506.518 444.25 509.154 443.871 510.75 443.071V445.74C510.63 446.158 508.381 447.25 504 447.25C499.612 447.25 497.363 446.155 497.25 445.75V443.071ZM497.25 447.571C498.846 448.371 501.482 448.75 504 448.75C506.518 448.75 509.154 448.371 510.75 447.571V450.24C510.63 450.658 508.381 451.75 504 451.75C499.612 451.75 497.363 450.655 497.25 450.25V447.571ZM504 456.25C499.612 456.25 497.363 455.155 497.25 454.75V452.071C498.846 452.871 501.482 453.25 504 453.25C506.518 453.25 509.154 452.871 510.75 452.071V454.74C510.63 455.158 508.381 456.25 504 456.25Z" fill="white"/>
<path d="M488.202 494H482.504V484.228H484.352V492.362H488.202V494ZM492.67 494.168C490.514 494.168 489.226 492.67 489.226 490.332C489.226 488.022 490.472 486.524 492.614 486.524C494.896 486.524 495.946 488.204 495.946 490.206V490.794H491.088V490.976C491.088 492.026 491.69 492.74 492.866 492.74C493.748 492.74 494.28 492.32 494.728 491.746L495.694 492.824C495.092 493.65 494.028 494.168 492.67 494.168ZM492.642 487.868C491.704 487.868 491.088 488.568 491.088 489.576V489.688H494.084V489.562C494.084 488.554 493.566 487.868 492.642 487.868ZM499.489 494.168C498.005 494.168 497.165 493.314 497.165 492.012C497.165 490.514 498.299 489.772 500.287 489.772H501.533V489.24C501.533 488.428 501.127 487.952 500.175 487.952C499.335 487.952 498.859 488.372 498.509 488.876L497.445 487.924C497.977 487.084 498.831 486.524 500.301 486.524C502.275 486.524 503.325 487.462 503.325 489.128V492.572H504.053V494H503.059C502.289 494 501.813 493.496 501.701 492.74H501.617C501.379 493.678 500.581 494.168 499.489 494.168ZM500.091 492.866C500.889 492.866 501.533 492.502 501.533 491.816V490.85H500.385C499.447 490.85 498.985 491.172 498.985 491.746V491.984C498.985 492.572 499.391 492.866 500.091 492.866ZM510.199 494V492.782H510.129C509.863 493.608 509.079 494.168 508.113 494.168C506.279 494.168 505.257 492.782 505.257 490.332C505.257 487.896 506.279 486.524 508.113 486.524C509.079 486.524 509.877 487.056 510.129 487.896H510.199V483.64H511.991V494H510.199ZM508.687 492.684C509.541 492.684 510.199 492.25 510.199 491.494V489.17C510.199 488.456 509.541 487.994 508.687 487.994C507.763 487.994 507.133 488.68 507.133 489.716V490.976C507.133 492.012 507.763 492.684 508.687 492.684ZM517.171 494.168C515.015 494.168 513.727 492.67 513.727 490.332C513.727 488.022 514.973 486.524 517.115 486.524C519.397 486.524 520.447 488.204 520.447 490.206V490.794H515.589V490.976C515.589 492.026 516.191 492.74 517.367 492.74C518.249 492.74 518.781 492.32 519.229 491.746L520.195 492.824C519.593 493.65 518.529 494.168 517.171 494.168ZM517.143 487.868C516.205 487.868 515.589 488.568 515.589 489.576V489.688H518.585V489.562C518.585 488.554 518.067 487.868 517.143 487.868ZM523.976 494H522.184V486.692H523.976V488.204H524.046C524.228 487.434 524.816 486.692 525.978 486.692H526.37V488.386H525.81C524.606 488.386 523.976 488.722 523.976 489.52V494Z" fill="black"/>
<rect width="240" height="336" transform="translate(672 336)" fill="white"/>
<rect x="672" y="336" width="240" height="336" fill="white"/>
<g clip-path="url(#clip3_121_9021)">
<path d="M737.114 365H735.196L734.412 362.508H730.94L730.17 365H728.294L731.57 355.228H733.866L737.114 365ZM733.964 360.926L732.704 356.908H732.634L731.388 360.926H733.964ZM741.915 365H739.787L737.351 357.692H739.115L740.137 360.842L740.851 363.446H740.949L741.663 360.842L742.657 357.692H744.365L741.915 365ZM747.404 365.168C745.92 365.168 745.08 364.314 745.08 363.012C745.08 361.514 746.214 360.772 748.202 360.772H749.448V360.24C749.448 359.428 749.042 358.952 748.09 358.952C747.25 358.952 746.774 359.372 746.424 359.876L745.36 358.924C745.892 358.084 746.746 357.524 748.216 357.524C750.19 357.524 751.24 358.462 751.24 360.128V363.572H751.968V365H750.974C750.204 365 749.728 364.496 749.616 363.74H749.532C749.294 364.678 748.496 365.168 747.404 365.168ZM748.006 363.866C748.804 363.866 749.448 363.502 749.448 362.816V361.85H748.3C747.362 361.85 746.9 362.172 746.9 362.746V362.984C746.9 363.572 747.306 363.866 748.006 363.866ZM754.474 356.628C753.732 356.628 753.424 356.25 753.424 355.732V355.452C753.424 354.934 753.732 354.556 754.474 354.556C755.202 354.556 755.524 354.934 755.524 355.452V355.732C755.524 356.25 755.202 356.628 754.474 356.628ZM753.578 365V357.692H755.37V365H753.578ZM760.366 365H759.4C758.182 365 757.608 364.356 757.608 363.236V354.64H759.4V363.572H760.366V365ZM763.689 365.168C762.205 365.168 761.365 364.314 761.365 363.012C761.365 361.514 762.499 360.772 764.487 360.772H765.733V360.24C765.733 359.428 765.327 358.952 764.375 358.952C763.535 358.952 763.059 359.372 762.709 359.876L761.645 358.924C762.177 358.084 763.031 357.524 764.501 357.524C766.475 357.524 767.525 358.462 767.525 360.128V363.572H768.253V365H767.259C766.489 365 766.013 364.496 765.901 363.74H765.817C765.579 364.678 764.781 365.168 763.689 365.168ZM764.291 363.866C765.089 363.866 765.733 363.502 765.733 362.816V361.85H764.585C763.647 361.85 763.185 362.172 763.185 362.746V362.984C763.185 363.572 763.591 363.866 764.291 363.866ZM769.863 365V354.64H771.655V358.896H771.711C771.977 358.056 772.761 357.524 773.727 357.524C775.575 357.524 776.597 358.896 776.597 361.332C776.597 363.782 775.575 365.168 773.727 365.168C772.761 365.168 771.991 364.608 771.711 363.782H771.655V365H769.863ZM773.153 363.684C774.077 363.684 774.721 363.012 774.721 361.976V360.716C774.721 359.68 774.077 358.994 773.153 358.994C772.299 358.994 771.655 359.456 771.655 360.17V362.494C771.655 363.25 772.299 363.684 773.153 363.684ZM779.314 356.628C778.572 356.628 778.264 356.25 778.264 355.732V355.452C778.264 354.934 778.572 354.556 779.314 354.556C780.042 354.556 780.364 354.934 780.364 355.452V355.732C780.364 356.25 780.042 356.628 779.314 356.628ZM778.418 365V357.692H780.21V365H778.418ZM785.205 365H784.239C783.021 365 782.447 364.356 782.447 363.236V354.64H784.239V363.572H785.205V365ZM787.618 356.628C786.876 356.628 786.568 356.25 786.568 355.732V355.452C786.568 354.934 786.876 354.556 787.618 354.556C788.346 354.556 788.668 354.934 788.668 355.452V355.732C788.668 356.25 788.346 356.628 787.618 356.628ZM786.722 365V357.692H788.514V365H786.722ZM793.033 365C791.801 365 791.143 364.328 791.143 363.138V359.12H790.065V357.692H790.625C791.157 357.692 791.325 357.44 791.325 356.936V355.69H792.935V357.692H794.433V359.12H792.935V363.572H794.321V365H793.033ZM799.354 361.556L800.628 357.692H802.308L799.368 366.302C799.004 367.352 798.486 367.8 797.282 367.8H796.204V366.372H797.52L797.856 365.35L795.238 357.692H797.016L798.29 361.556L798.766 363.404H798.85L799.354 361.556ZM813.936 363.362V365H806.614V363.348L811.668 356.866H806.866V355.228H813.796V356.88L808.728 363.362H813.936ZM818.488 365.168C816.402 365.168 815.1 363.684 815.1 361.332C815.1 358.994 816.402 357.524 818.488 357.524C820.588 357.524 821.89 358.994 821.89 361.332C821.89 363.684 820.588 365.168 818.488 365.168ZM818.488 363.726C819.426 363.726 820.014 363.124 820.014 362.018V360.66C820.014 359.568 819.426 358.966 818.488 358.966C817.564 358.966 816.976 359.568 816.976 360.66V362.018C816.976 363.124 817.564 363.726 818.488 363.726ZM825.431 365H823.639V357.692H825.431V358.91H825.501C825.795 358.126 826.411 357.524 827.545 357.524C829.043 357.524 829.883 358.56 829.883 360.38V365H828.091V360.562C828.091 359.526 827.741 358.994 826.887 358.994C826.145 358.994 825.431 359.386 825.431 360.17V365ZM834.984 365.168C832.828 365.168 831.54 363.67 831.54 361.332C831.54 359.022 832.786 357.524 834.928 357.524C837.21 357.524 838.26 359.204 838.26 361.206V361.794H833.402V361.976C833.402 363.026 834.004 363.74 835.18 363.74C836.062 363.74 836.594 363.32 837.042 362.746L838.008 363.824C837.406 364.65 836.342 365.168 834.984 365.168ZM834.956 358.868C834.018 358.868 833.402 359.568 833.402 360.576V360.688H836.398V360.562C836.398 359.554 835.88 358.868 834.956 358.868ZM843.577 365V355.228H848.099C849.709 355.228 850.689 356.222 850.689 357.734C850.689 359.218 849.835 359.778 848.939 359.834V359.918C849.793 359.932 851.053 360.534 851.053 362.2C851.053 363.768 849.975 365 848.533 365H843.577ZM845.425 360.814V363.432H848.001C848.701 363.432 849.121 363.054 849.121 362.368V361.892C849.121 361.206 848.701 360.814 848.001 360.814H845.425ZM845.425 356.796V359.302H847.707C848.379 359.302 848.771 358.91 848.771 358.266V357.832C848.771 357.174 848.379 356.796 847.707 356.796H845.425Z" fill="black"/>
<rect width="24" height="24" transform="translate(688 348)" fill="white" fill-opacity="0.01" style="mix-blend-mode:multiply"/>
<path d="M709 355.5H705.25V352.5C705.25 352.102 705.091 351.721 704.81 351.44C704.529 351.159 704.148 351 703.75 351H696.25C695.852 351 695.471 351.159 695.19 351.44C694.909 351.721 694.75 352.102 694.75 352.5V355.5H691C690.602 355.5 690.221 355.659 689.94 355.94C689.659 356.221 689.5 356.602 689.5 357V369C689.5 369.398 689.659 369.779 689.94 370.06C690.221 370.341 690.602 370.5 691 370.5H709C709.398 370.5 709.779 370.341 710.06 370.06C710.341 369.779 710.5 369.398 710.5 369V357C710.5 356.602 710.341 356.221 710.06 355.94C709.779 355.659 709.398 355.5 709 355.5ZM691 369V357H694.75V358.5H693.25V360H694.75V361.5H693.25V363H694.75V364.5H693.25V366H694.75V369H691ZM703.75 369H696.25V352.5H703.75V369ZM709 369H705.25V366H706.75V364.5H705.25V363H706.75V361.5H705.25V360H706.75V358.5H705.25V357H709V369Z" fill="black"/>
<path d="M701.5 354H698.5V355.5H701.5V354Z" fill="black"/>
<path d="M701.5 357H698.5V358.5H701.5V357Z" fill="black"/>
<path d="M701.5 360H698.5V361.5H701.5V360Z" fill="black"/>
</g>
<path d="M678 336V336.5H682V336H686V336.5H690V336H694V336.5H698V336H702V336.5H706V336H710V336.5H714V336H718V336.5H722V336H726V336.5H730V336H734V336.5H738V336H742V336.5H746V336H750V336.5H754V336H758V336.5H762V336H766V336.5H770V336H774V336.5H778V336H782V336.5H786V336H790V336.5H794V336H798V336.5H802V336H806V336.5H810V336H814V336.5H818V336H822V336.5H826V336H830V336.5H834V336H838V336.5H842V336H846V336.5H850V336H854V336.5H858V336H862V336.5H866V336H870V336.5H874V336H878V336.5H882V336H886V336.5H890V336H894V336.5H898V336H902V336.5H906V336H910V336.5H911.5V338H912V342H911.5V346H912V350H911.5V354H912V358H911.5V362H912V366H911.5V370H912V374H911.5V378H912V382H911.5V386H912V390H911.5V394H912V398H911.5V402H912V406H911.5V410H912V414H911.5V418H912V422H911.5V426H912V430H911.5V434H912V438H911.5V442H912V446H911.5V450H912V454H911.5V458H912V462H911.5V466H912V470H911.5V474H912V478H911.5V482H912V486H911.5V490H912V494H911.5V498H912V502H911.5V506H912V510H911.5V514H912V518H911.5V522H912V526H911.5V530H912V534H911.5V538H912V542H911.5V546H912V550H911.5V554H912V558H911.5V562H912V566H911.5V570H912V574H911.5V578H912V582H911.5V586H912V590H911.5V594H912V598H911.5V602H912V606H911.5V610H912V614H911.5V618H912V622H911.5V626H912V630H911.5V634H912V638H911.5V642H912V646H911.5V650H912V654H911.5V658H912V662H911.5V666H912V670H911.5V671.5H910V672H906V671.5H902V672H898V671.5H894V672H890V671.5H886V672H882V671.5H878V672H874V671.5H870V672H866V671.5H862V672H858V671.5H854V672H850V671.5H846V672H842V671.5H838V672H834V671.5H830V672H826V671.5H822V672H818V671.5H814V672H810V671.5H806V672H802V671.5H798V672H794V671.5H790V672H786V671.5H782V672H778V671.5H774V672H770V671.5H766V672H762V671.5H758V672H754V671.5H750V672H746V671.5H742V672H738V671.5H734V672H730V671.5H726V672H722V671.5H718V672H714V671.5H710V672H706V671.5H702V672H698V671.5H694V672H690V671.5H686V672H682V671.5H678V672H674V671.5H672.5V670H672V666H672.5V662H672V658H672.5V654H672V650H672.5V646H672V642H672.5V638H672V634H672.5V630H672V626H672.5V622H672V618H672.5V614H672V610H672.5V606H672V602H672.5V598H672V594H672.5V590H672V586H672.5V582H672V578H672.5V574H672V570H672.5V566H672V562H672.5V558H672V554H672.5V550H672V546H672.5V542H672V538H672.5V534H672V530H672.5V526H672V522H672.5V518H672V514H672.5V510H672V506H672.5V502H672V498H672.5V494H672V490H672.5V486H672V482H672.5V478H672V474H672.5V470H672V466H672.5V462H672V458H672.5V454H672V450H672.5V446H672V442H672.5V438H672V434H672.5V430H672V426H672.5V422H672V418H672.5V414H672V410H672.5V406H672V402H672.5V398H672V394H672.5V390H672V386H672.5V382H672V378H672.5V374H672V370H672.5V366H672V362H672.5V358H672V354H672.5V350H672V346H672.5V342H672V338H672.5V336.5H674V336H678Z" stroke="black" stroke-dasharray="4 4"/>
<rect width="64" height="80" transform="translate(760 544)" fill="white" fill-opacity="0.01" style="mix-blend-mode:multiply"/>
<path d="M776 547H808C812.418 547 816 550.582 816 555V587C816 591.418 812.418 595 808 595H776C771.582 595 768 591.418 768 587V555C768 550.582 771.582 547 776 547Z" fill="#0F62FE"/>
<rect width="24" height="24" transform="translate(780 559)" fill="white" fill-opacity="0.01"/>
<path d="M802.043 569.895L793.105 560.957C792.8 560.652 792.4 560.5 792 560.5C791.6 560.5 791.2 560.652 790.895 560.957L781.957 569.895C781.652 570.2 781.5 570.6 781.5 571C781.5 571.4 781.652 571.8 781.957 572.105L790.895 581.043C791.2 581.348 791.6 581.5 792 581.5C792.4 581.5 792.8 581.348 793.105 581.043L802.043 572.105C802.348 571.8 802.5 571.4 802.5 571C802.5 570.6 802.348 570.2 802.043 569.895ZM792 580.027L782.973 571L792 561.973L801.027 571L792 580.027Z" fill="white"/>
<path d="M768.699 617.168C767.033 617.168 765.885 616.51 765.059 615.544L766.305 614.34C766.977 615.124 767.803 615.544 768.811 615.544C769.945 615.544 770.533 614.998 770.533 614.172C770.533 613.514 770.225 613.108 769.203 612.926L768.279 612.786C766.305 612.478 765.353 611.54 765.353 609.944C765.353 608.194 766.711 607.06 768.895 607.06C770.365 607.06 771.457 607.564 772.241 608.502L770.981 609.692C770.505 609.09 769.833 608.684 768.797 608.684C767.747 608.684 767.201 609.104 767.201 609.832C767.201 610.574 767.621 610.882 768.559 611.05L769.469 611.218C771.443 611.568 772.367 612.45 772.367 614.06C772.367 615.908 771.037 617.168 768.699 617.168ZM777.222 617.168C775.066 617.168 773.778 615.67 773.778 613.332C773.778 611.022 775.024 609.524 777.166 609.524C779.448 609.524 780.498 611.204 780.498 613.206V613.794H775.64V613.976C775.64 615.026 776.242 615.74 777.418 615.74C778.3 615.74 778.832 615.32 779.28 614.746L780.246 615.824C779.644 616.65 778.58 617.168 777.222 617.168ZM777.194 610.868C776.256 610.868 775.64 611.568 775.64 612.576V612.688H778.636V612.562C778.636 611.554 778.118 610.868 777.194 610.868ZM784.026 617H782.234V609.692H784.026V610.91H784.096C784.39 610.126 785.006 609.524 786.14 609.524C787.638 609.524 788.478 610.56 788.478 612.38V617H786.686V612.562C786.686 611.526 786.336 610.994 785.482 610.994C784.74 610.994 784.026 611.386 784.026 612.17V617ZM792.907 617C791.675 617 791.017 616.328 791.017 615.138V611.12H789.939V609.692H790.499C791.031 609.692 791.199 609.44 791.199 608.936V607.69H792.809V609.692H794.307V611.12H792.809V615.572H794.195V617H792.907ZM796.917 608.628C796.175 608.628 795.867 608.25 795.867 607.732V607.452C795.867 606.934 796.175 606.556 796.917 606.556C797.645 606.556 797.967 606.934 797.967 607.452V607.732C797.967 608.25 797.645 608.628 796.917 608.628ZM796.021 617V609.692H797.813V617H796.021ZM801.842 617H800.05V609.692H801.842V610.91H801.912C802.206 610.126 802.822 609.524 803.956 609.524C805.454 609.524 806.294 610.56 806.294 612.38V617H804.502V612.562C804.502 611.526 804.152 610.994 803.298 610.994C802.556 610.994 801.842 611.386 801.842 612.17V617ZM811.395 617.168C809.239 617.168 807.951 615.67 807.951 613.332C807.951 611.022 809.197 609.524 811.339 609.524C813.621 609.524 814.671 611.204 814.671 613.206V613.794H809.813V613.976C809.813 615.026 810.415 615.74 811.591 615.74C812.473 615.74 813.005 615.32 813.453 614.746L814.419 615.824C813.817 616.65 812.753 617.168 811.395 617.168ZM811.367 610.868C810.429 610.868 809.813 611.568 809.813 612.576V612.688H812.809V612.562C812.809 611.554 812.291 610.868 811.367 610.868ZM819.166 617H818.2C816.982 617 816.408 616.356 816.408 615.236V606.64H818.2V615.572H819.166V617Z" fill="black"/>
<rect width="64" height="74" transform="translate(760 424)" fill="white" fill-opacity="0.01" style="mix-blend-mode:multiply"/>
<rect width="48" height="48" transform="translate(768 424)" fill="white" fill-opacity="0.01" style="mix-blend-mode:multiply"/>
<circle cx="792" cy="448" r="24" fill="#0F62FE"/>
<rect width="24" height="24" transform="translate(780 436)" fill="white" fill-opacity="0.01"/>
<path d="M801 442H802.5V439C802.5 438.602 802.341 438.221 802.06 437.94C801.779 437.659 801.398 437.5 801 437.5H798V439H801V442Z" fill="white"/>
<path d="M795.75 437.5H792.75V439H795.75V437.5Z" fill="white"/>
<path d="M802.5 444.25H801V447.25H802.5V444.25Z" fill="white"/>
<path d="M801 449.5V452.5H798V443.5C798 443.102 797.841 442.721 797.56 442.44C797.279 442.159 796.898 442 796.5 442H787.5V439H790.5V437.5H787.5C787.102 437.5 786.721 437.659 786.44 437.94C786.159 438.221 786 438.602 786 439V442H783C782.602 442 782.221 442.159 781.94 442.44C781.659 442.721 781.5 443.102 781.5 443.5V457C781.5 457.398 781.659 457.779 781.94 458.06C782.221 458.341 782.602 458.5 783 458.5H796.5C796.898 458.5 797.279 458.341 797.56 458.06C797.841 457.779 798 457.398 798 457V454H801C801.398 454 801.779 453.841 802.06 453.56C802.341 453.279 802.5 452.898 802.5 452.5V449.5H801ZM796.5 457H783V443.5H796.5V457Z" fill="white"/>
<path d="M770.378 490.234V494H768.53V484.228H772.94C774.718 484.228 775.824 485.404 775.824 487.252C775.824 488.596 775.208 489.618 774.004 490.024L776.006 494H773.948L772.128 490.234H770.378ZM770.378 488.68H772.758C773.472 488.68 773.906 488.288 773.906 487.574V486.93C773.906 486.216 773.472 485.838 772.758 485.838H770.378V488.68ZM780.624 494.168C778.468 494.168 777.18 492.67 777.18 490.332C777.18 488.022 778.426 486.524 780.568 486.524C782.85 486.524 783.9 488.204 783.9 490.206V490.794H779.042V490.976C779.042 492.026 779.644 492.74 780.82 492.74C781.702 492.74 782.234 492.32 782.682 491.746L783.648 492.824C783.046 493.65 781.982 494.168 780.624 494.168ZM780.596 487.868C779.658 487.868 779.042 488.568 779.042 489.576V489.688H782.038V489.562C782.038 488.554 781.52 487.868 780.596 487.868ZM785.637 496.8V486.692H787.429V487.896H787.485C787.751 487.056 788.535 486.524 789.501 486.524C791.349 486.524 792.371 487.896 792.371 490.332C792.371 492.782 791.349 494.168 789.501 494.168C788.535 494.168 787.765 493.608 787.485 492.782H787.429V496.8H785.637ZM788.927 492.684C789.851 492.684 790.495 492.012 790.495 490.976V489.716C790.495 488.68 789.851 487.994 788.927 487.994C788.073 487.994 787.429 488.456 787.429 489.17V491.494C787.429 492.25 788.073 492.684 788.927 492.684ZM796.949 494H795.983C794.765 494 794.191 493.356 794.191 492.236V483.64H795.983V492.572H796.949V494ZM799.363 485.628C798.621 485.628 798.313 485.25 798.313 484.732V484.452C798.313 483.934 798.621 483.556 799.363 483.556C800.091 483.556 800.413 483.934 800.413 484.452V484.732C800.413 485.25 800.091 485.628 799.363 485.628ZM798.467 494V486.692H800.259V494H798.467ZM805.38 494.168C803.224 494.168 802.006 492.684 802.006 490.332C802.006 487.994 803.224 486.524 805.38 486.524C806.85 486.524 807.816 487.224 808.25 488.372L806.78 489.03C806.612 488.414 806.15 487.966 805.38 487.966C804.386 487.966 803.882 488.666 803.882 489.688V491.018C803.882 492.04 804.386 492.726 805.38 492.726C806.234 492.726 806.654 492.236 806.92 491.578L808.292 492.236C807.816 493.524 806.794 494.168 805.38 494.168ZM811.639 494.168C810.155 494.168 809.315 493.314 809.315 492.012C809.315 490.514 810.449 489.772 812.437 489.772H813.683V489.24C813.683 488.428 813.277 487.952 812.325 487.952C811.485 487.952 811.009 488.372 810.659 488.876L809.595 487.924C810.127 487.084 810.981 486.524 812.451 486.524C814.425 486.524 815.475 487.462 815.475 489.128V492.572H816.203V494H815.209C814.439 494 813.963 493.496 813.851 492.74H813.767C813.529 493.678 812.731 494.168 811.639 494.168ZM812.241 492.866C813.039 492.866 813.683 492.502 813.683 491.816V490.85H812.535C811.597 490.85 811.135 491.172 811.135 491.746V491.984C811.135 492.572 811.541 492.866 812.241 492.866Z" fill="black"/>
<rect width="240" height="336" transform="translate(960 336)" fill="white"/>
<rect x="960" y="336" width="240" height="336" fill="white"/>
<g clip-path="url(#clip4_121_9021)">
<path d="M1025.11 365H1023.2L1022.41 362.508H1018.94L1018.17 365H1016.29L1019.57 355.228H1021.87L1025.11 365ZM1021.96 360.926L1020.7 356.908H1020.63L1019.39 360.926H1021.96ZM1029.92 365H1027.79L1025.35 357.692H1027.12L1028.14 360.842L1028.85 363.446H1028.95L1029.66 360.842L1030.66 357.692H1032.37L1029.92 365ZM1035.4 365.168C1033.92 365.168 1033.08 364.314 1033.08 363.012C1033.08 361.514 1034.21 360.772 1036.2 360.772H1037.45V360.24C1037.45 359.428 1037.04 358.952 1036.09 358.952C1035.25 358.952 1034.77 359.372 1034.42 359.876L1033.36 358.924C1033.89 358.084 1034.75 357.524 1036.22 357.524C1038.19 357.524 1039.24 358.462 1039.24 360.128V363.572H1039.97V365H1038.97C1038.2 365 1037.73 364.496 1037.62 363.74H1037.53C1037.29 364.678 1036.5 365.168 1035.4 365.168ZM1036.01 363.866C1036.8 363.866 1037.45 363.502 1037.45 362.816V361.85H1036.3C1035.36 361.85 1034.9 362.172 1034.9 362.746V362.984C1034.9 363.572 1035.31 363.866 1036.01 363.866ZM1042.47 356.628C1041.73 356.628 1041.42 356.25 1041.42 355.732V355.452C1041.42 354.934 1041.73 354.556 1042.47 354.556C1043.2 354.556 1043.52 354.934 1043.52 355.452V355.732C1043.52 356.25 1043.2 356.628 1042.47 356.628ZM1041.58 365V357.692H1043.37V365H1041.58ZM1048.37 365H1047.4C1046.18 365 1045.61 364.356 1045.61 363.236V354.64H1047.4V363.572H1048.37V365ZM1051.69 365.168C1050.2 365.168 1049.36 364.314 1049.36 363.012C1049.36 361.514 1050.5 360.772 1052.49 360.772H1053.73V360.24C1053.73 359.428 1053.33 358.952 1052.37 358.952C1051.53 358.952 1051.06 359.372 1050.71 359.876L1049.64 358.924C1050.18 358.084 1051.03 357.524 1052.5 357.524C1054.47 357.524 1055.52 358.462 1055.52 360.128V363.572H1056.25V365H1055.26C1054.49 365 1054.01 364.496 1053.9 363.74H1053.82C1053.58 364.678 1052.78 365.168 1051.69 365.168ZM1052.29 363.866C1053.09 363.866 1053.73 363.502 1053.73 362.816V361.85H1052.58C1051.65 361.85 1051.18 362.172 1051.18 362.746V362.984C1051.18 363.572 1051.59 363.866 1052.29 363.866ZM1057.86 365V354.64H1059.66V358.896H1059.71C1059.98 358.056 1060.76 357.524 1061.73 357.524C1063.58 357.524 1064.6 358.896 1064.6 361.332C1064.6 363.782 1063.58 365.168 1061.73 365.168C1060.76 365.168 1059.99 364.608 1059.71 363.782H1059.66V365H1057.86ZM1061.15 363.684C1062.08 363.684 1062.72 363.012 1062.72 361.976V360.716C1062.72 359.68 1062.08 358.994 1061.15 358.994C1060.3 358.994 1059.66 359.456 1059.66 360.17V362.494C1059.66 363.25 1060.3 363.684 1061.15 363.684ZM1067.31 356.628C1066.57 356.628 1066.26 356.25 1066.26 355.732V355.452C1066.26 354.934 1066.57 354.556 1067.31 354.556C1068.04 354.556 1068.36 354.934 1068.36 355.452V355.732C1068.36 356.25 1068.04 356.628 1067.31 356.628ZM1066.42 365V357.692H1068.21V365H1066.42ZM1073.2 365H1072.24C1071.02 365 1070.45 364.356 1070.45 363.236V354.64H1072.24V363.572H1073.2V365ZM1075.62 356.628C1074.88 356.628 1074.57 356.25 1074.57 355.732V355.452C1074.57 354.934 1074.88 354.556 1075.62 354.556C1076.35 354.556 1076.67 354.934 1076.67 355.452V355.732C1076.67 356.25 1076.35 356.628 1075.62 356.628ZM1074.72 365V357.692H1076.51V365H1074.72ZM1081.03 365C1079.8 365 1079.14 364.328 1079.14 363.138V359.12H1078.07V357.692H1078.63C1079.16 357.692 1079.33 357.44 1079.33 356.936V355.69H1080.94V357.692H1082.43V359.12H1080.94V363.572H1082.32V365H1081.03ZM1087.35 361.556L1088.63 357.692H1090.31L1087.37 366.302C1087 367.352 1086.49 367.8 1085.28 367.8H1084.2V366.372H1085.52L1085.86 365.35L1083.24 357.692H1085.02L1086.29 361.556L1086.77 363.404H1086.85L1087.35 361.556ZM1101.94 363.362V365H1094.61V363.348L1099.67 356.866H1094.87V355.228H1101.8V356.88L1096.73 363.362H1101.94ZM1106.49 365.168C1104.4 365.168 1103.1 363.684 1103.1 361.332C1103.1 358.994 1104.4 357.524 1106.49 357.524C1108.59 357.524 1109.89 358.994 1109.89 361.332C1109.89 363.684 1108.59 365.168 1106.49 365.168ZM1106.49 363.726C1107.43 363.726 1108.01 363.124 1108.01 362.018V360.66C1108.01 359.568 1107.43 358.966 1106.49 358.966C1105.56 358.966 1104.98 359.568 1104.98 360.66V362.018C1104.98 363.124 1105.56 363.726 1106.49 363.726ZM1113.43 365H1111.64V357.692H1113.43V358.91H1113.5C1113.8 358.126 1114.41 357.524 1115.55 357.524C1117.04 357.524 1117.88 358.56 1117.88 360.38V365H1116.09V360.562C1116.09 359.526 1115.74 358.994 1114.89 358.994C1114.15 358.994 1113.43 359.386 1113.43 360.17V365ZM1122.98 365.168C1120.83 365.168 1119.54 363.67 1119.54 361.332C1119.54 359.022 1120.79 357.524 1122.93 357.524C1125.21 357.524 1126.26 359.204 1126.26 361.206V361.794H1121.4V361.976C1121.4 363.026 1122 363.74 1123.18 363.74C1124.06 363.74 1124.59 363.32 1125.04 362.746L1126.01 363.824C1125.41 364.65 1124.34 365.168 1122.98 365.168ZM1122.96 358.868C1122.02 358.868 1121.4 359.568 1121.4 360.576V360.688H1124.4V360.562C1124.4 359.554 1123.88 358.868 1122.96 358.868ZM1135.37 365.168C1132.79 365.168 1131.16 363.474 1131.16 360.184C1131.16 356.894 1132.79 355.06 1135.37 355.06C1137.12 355.06 1138.25 355.802 1138.94 357.314L1137.36 358.154C1137.08 357.286 1136.46 356.698 1135.37 356.698C1134 356.698 1133.12 357.692 1133.12 359.358V360.898C1133.12 362.578 1134 363.53 1135.37 363.53C1136.48 363.53 1137.16 362.858 1137.48 361.976L1138.98 362.858C1138.28 364.314 1137.12 365.168 1135.37 365.168Z" fill="black"/>
<rect width="24" height="24" transform="translate(976 348)" fill="white" fill-opacity="0.01" style="mix-blend-mode:multiply"/>
<path d="M997 355.5H993.25V352.5C993.25 352.102 993.091 351.721 992.81 351.44C992.529 351.159 992.148 351 991.75 351H984.25C983.852 351 983.471 351.159 983.19 351.44C982.909 351.721 982.75 352.102 982.75 352.5V355.5H979C978.602 355.5 978.221 355.659 977.94 355.94C977.659 356.221 977.5 356.602 977.5 357V369C977.5 369.398 977.659 369.779 977.94 370.06C978.221 370.341 978.602 370.5 979 370.5H997C997.398 370.5 997.779 370.341 998.06 370.06C998.341 369.779 998.5 369.398 998.5 369V357C998.5 356.602 998.341 356.221 998.06 355.94C997.779 355.659 997.398 355.5 997 355.5ZM979 369V357H982.75V358.5H981.25V360H982.75V361.5H981.25V363H982.75V364.5H981.25V366H982.75V369H979ZM991.75 369H984.25V352.5H991.75V369ZM997 369H993.25V366H994.75V364.5H993.25V363H994.75V361.5H993.25V360H994.75V358.5H993.25V357H997V369Z" fill="black"/>
<path d="M989.5 354H986.5V355.5H989.5V354Z" fill="black"/>
<path d="M989.5 357H986.5V358.5H989.5V357Z" fill="black"/>
<path d="M989.5 360H986.5V361.5H989.5V360Z" fill="black"/>
</g>
<path d="M966 336V336.5H970V336H974V336.5H978V336H982V336.5H986V336H990V336.5H994V336H998V336.5H1002V336H1006V336.5H1010V336H1014V336.5H1018V336H1022V336.5H1026V336H1030V336.5H1034V336H1038V336.5H1042V336H1046V336.5H1050V336H1054V336.5H1058V336H1062V336.5H1066V336H1070V336.5H1074V336H1078V336.5H1082V336H1086V336.5H1090V336H1094V336.5H1098V336H1102V336.5H1106V336H1110V336.5H1114V336H1118V336.5H1122V336H1126V336.5H1130V336H1134V336.5H1138V336H1142V336.5H1146V336H1150V336.5H1154V336H1158V336.5H1162V336H1166V336.5H1170V336H1174V336.5H1178V336H1182V336.5H1186V336H1190V336.5H1194V336H1198V336.5H1199.5V338H1200V342H1199.5V346H1200V350H1199.5V354H1200V358H1199.5V362H1200V366H1199.5V370H1200V374H1199.5V378H1200V382H1199.5V386H1200V390H1199.5V394H1200V398H1199.5V402H1200V406H1199.5V410H1200V414H1199.5V418H1200V422H1199.5V426H1200V430H1199.5V434H1200V438H1199.5V442H1200V446H1199.5V450H1200V454H1199.5V458H1200V462H1199.5V466H1200V470H1199.5V474H1200V478H1199.5V482H1200V486H1199.5V490H1200V494H1199.5V498H1200V502H1199.5V506H1200V510H1199.5V514H1200V518H1199.5V522H1200V526H1199.5V530H1200V534H1199.5V538H1200V542H1199.5V546H1200V550H1199.5V554H1200V558H1199.5V562H1200V566H1199.5V570H1200V574H1199.5V578H1200V582H1199.5V586H1200V590H1199.5V594H1200V598H1199.5V602H1200V606H1199.5V610H1200V614H1199.5V618H1200V622H1199.5V626H1200V630H1199.5V634H1200V638H1199.5V642H1200V646H1199.5V650H1200V654H1199.5V658H1200V662H1199.5V666H1200V670H1199.5V671.5H1198V672H1194V671.5H1190V672H1186V671.5H1182V672H1178V671.5H1174V672H1170V671.5H1166V672H1162V671.5H1158V672H1154V671.5H1150V672H1146V671.5H1142V672H1138V671.5H1134V672H1130V671.5H1126V672H1122V671.5H1118V672H1114V671.5H1110V672H1106V671.5H1102V672H1098V671.5H1094V672H1090V671.5H1086V672H1082V671.5H1078V672H1074V671.5H1070V672H1066V671.5H1062V672H1058V671.5H1054V672H1050V671.5H1046V672H1042V671.5H1038V672H1034V671.5H1030V672H1026V671.5H1022V672H1018V671.5H1014V672H1010V671.5H1006V672H1002V671.5H998V672H994V671.5H990V672H986V671.5H982V672H978V671.5H974V672H970V671.5H966V672H962V671.5H960.5V670H960V666H960.5V662H960V658H960.5V654H960V650H960.5V646H960V642H960.5V638H960V634H960.5V630H960V626H960.5V622H960V618H960.5V614H960V610H960.5V606H960V602H960.5V598H960V594H960.5V590H960V586H960.5V582H960V578H960.5V574H960V570H960.5V566H960V562H960.5V558H960V554H960.5V550H960V546H960.5V542H960V538H960.5V534H960V530H960.5V526H960V522H960.5V518H960V514H960.5V510H960V506H960.5V502H960V498H960.5V494H960V490H960.5V486H960V482H960.5V478H960V474H960.5V470H960V466H960.5V462H960V458H960.5V454H960V450H960.5V446H960V442H960.5V438H960V434H960.5V430H960V426H960.5V422H960V418H960.5V414H960V410H960.5V406H960V402H960.5V398H960V394H960.5V390H960V386H960.5V382H960V378H960.5V374H960V370H960.5V366H960V362H960.5V358H960V354H960.5V350H960V346H960.5V342H960V338H960.5V336.5H962V336H966Z" stroke="black" stroke-dasharray="4 4"/>
<rect width="64" height="80" transform="translate(1048 544)" fill="white" fill-opacity="0.01" style="mix-blend-mode:multiply"/>
<path d="M1064 547H1096C1100.42 547 1104 550.582 1104 555V587C1104 591.418 1100.42 595 1096 595H1064C1059.58 595 1056 591.418 1056 587V555C1056 550.582 1059.58 547 1064 547Z" fill="#0F62FE"/>
<rect width="24" height="24" transform="translate(1068 559)" fill="white" fill-opacity="0.01"/>
<path d="M1090.04 569.895L1081.1 560.957C1080.8 560.652 1080.4 560.5 1080 560.5C1079.6 560.5 1079.2 560.652 1078.9 560.957L1069.96 569.895C1069.65 570.2 1069.5 570.6 1069.5 571C1069.5 571.4 1069.65 571.8 1069.96 572.105L1078.9 581.043C1079.2 581.348 1079.6 581.5 1080 581.5C1080.4 581.5 1080.8 581.348 1081.1 581.043L1090.04 572.105C1090.35 571.8 1090.5 571.4 1090.5 571C1090.5 570.6 1090.35 570.2 1090.04 569.895ZM1080 580.027L1070.97 571L1080 561.973L1089.03 571L1080 580.027Z" fill="white"/>
<path d="M1056.7 617.168C1055.03 617.168 1053.89 616.51 1053.06 615.544L1054.31 614.34C1054.98 615.124 1055.8 615.544 1056.81 615.544C1057.95 615.544 1058.53 614.998 1058.53 614.172C1058.53 613.514 1058.23 613.108 1057.2 612.926L1056.28 612.786C1054.31 612.478 1053.35 611.54 1053.35 609.944C1053.35 608.194 1054.71 607.06 1056.9 607.06C1058.37 607.06 1059.46 607.564 1060.24 608.502L1058.98 609.692C1058.51 609.09 1057.83 608.684 1056.8 608.684C1055.75 608.684 1055.2 609.104 1055.2 609.832C1055.2 610.574 1055.62 610.882 1056.56 611.05L1057.47 611.218C1059.44 611.568 1060.37 612.45 1060.37 614.06C1060.37 615.908 1059.04 617.168 1056.7 617.168ZM1065.22 617.168C1063.07 617.168 1061.78 615.67 1061.78 613.332C1061.78 611.022 1063.02 609.524 1065.17 609.524C1067.45 609.524 1068.5 611.204 1068.5 613.206V613.794H1063.64V613.976C1063.64 615.026 1064.24 615.74 1065.42 615.74C1066.3 615.74 1066.83 615.32 1067.28 614.746L1068.25 615.824C1067.64 616.65 1066.58 617.168 1065.22 617.168ZM1065.19 610.868C1064.26 610.868 1063.64 611.568 1063.64 612.576V612.688H1066.64V612.562C1066.64 611.554 1066.12 610.868 1065.19 610.868ZM1072.03 617H1070.23V609.692H1072.03V610.91H1072.1C1072.39 610.126 1073.01 609.524 1074.14 609.524C1075.64 609.524 1076.48 610.56 1076.48 612.38V617H1074.69V612.562C1074.69 611.526 1074.34 610.994 1073.48 610.994C1072.74 610.994 1072.03 611.386 1072.03 612.17V617ZM1080.91 617C1079.67 617 1079.02 616.328 1079.02 615.138V611.12H1077.94V609.692H1078.5C1079.03 609.692 1079.2 609.44 1079.2 608.936V607.69H1080.81V609.692H1082.31V611.12H1080.81V615.572H1082.19V617H1080.91ZM1084.92 608.628C1084.18 608.628 1083.87 608.25 1083.87 607.732V607.452C1083.87 606.934 1084.18 606.556 1084.92 606.556C1085.65 606.556 1085.97 606.934 1085.97 607.452V607.732C1085.97 608.25 1085.65 608.628 1084.92 608.628ZM1084.02 617V609.692H1085.81V617H1084.02ZM1089.84 617H1088.05V609.692H1089.84V610.91H1089.91C1090.21 610.126 1090.82 609.524 1091.96 609.524C1093.45 609.524 1094.29 610.56 1094.29 612.38V617H1092.5V612.562C1092.5 611.526 1092.15 610.994 1091.3 610.994C1090.56 610.994 1089.84 611.386 1089.84 612.17V617ZM1099.39 617.168C1097.24 617.168 1095.95 615.67 1095.95 613.332C1095.95 611.022 1097.2 609.524 1099.34 609.524C1101.62 609.524 1102.67 611.204 1102.67 613.206V613.794H1097.81V613.976C1097.81 615.026 1098.41 615.74 1099.59 615.74C1100.47 615.74 1101 615.32 1101.45 614.746L1102.42 615.824C1101.82 616.65 1100.75 617.168 1099.39 617.168ZM1099.37 610.868C1098.43 610.868 1097.81 611.568 1097.81 612.576V612.688H1100.81V612.562C1100.81 611.554 1100.29 610.868 1099.37 610.868ZM1107.17 617H1106.2C1104.98 617 1104.41 616.356 1104.41 615.236V606.64H1106.2V615.572H1107.17V617Z" fill="black"/>
<rect x="288.5" y="816.5" width="1007" height="47" fill="white"/>
<rect x="288.5" y="816.5" width="1007" height="47" stroke="#0F62FE"/>
<rect x="289" y="817" width="1006" height="46" fill="white"/>
<g clip-path="url(#clip5_121_9021)">
<path d="M711.487 845H707.049V843.516H708.337V836.712H707.049V835.228H711.487V836.712H710.185V843.516H711.487V845ZM713.535 845V835.228H718.057C719.667 835.228 720.647 836.222 720.647 837.734C720.647 839.218 719.793 839.778 718.897 839.834V839.918C719.751 839.932 721.011 840.534 721.011 842.2C721.011 843.768 719.933 845 718.491 845H713.535ZM715.383 840.814V843.432H717.959C718.659 843.432 719.079 843.054 719.079 842.368V841.892C719.079 841.206 718.659 840.814 717.959 840.814H715.383ZM715.383 836.796V839.302H717.665C718.337 839.302 718.729 838.91 718.729 838.266V837.832C718.729 837.174 718.337 836.796 717.665 836.796H715.383ZM722.978 845V835.228H725.064L727.57 840.002H727.626L730.104 835.228H732.106V845H730.356V837.986H730.3L729.544 839.54L727.542 843.236L725.54 839.54L724.784 837.986H724.728V845H722.978ZM741.83 845.168C739.254 845.168 737.616 843.474 737.616 840.184C737.616 836.894 739.254 835.06 741.83 835.06C743.58 835.06 744.714 835.802 745.4 837.314L743.818 838.154C743.538 837.286 742.922 836.698 741.83 836.698C740.458 836.698 739.576 837.692 739.576 839.358V840.898C739.576 842.578 740.458 843.53 741.83 843.53C742.936 843.53 743.622 842.858 743.944 841.976L745.442 842.858C744.742 844.314 743.58 845.168 741.83 845.168ZM749.825 845H748.859C747.641 845 747.067 844.356 747.067 843.236V834.64H748.859V843.572H749.825V845ZM754.24 845.168C752.154 845.168 750.852 843.684 750.852 841.332C750.852 838.994 752.154 837.524 754.24 837.524C756.34 837.524 757.642 838.994 757.642 841.332C757.642 843.684 756.34 845.168 754.24 845.168ZM754.24 843.726C755.178 843.726 755.766 843.124 755.766 842.018V840.66C755.766 839.568 755.178 838.966 754.24 838.966C753.316 838.966 752.728 839.568 752.728 840.66V842.018C752.728 843.124 753.316 843.726 754.24 843.726ZM763.759 845V843.782H763.689C763.437 844.51 762.849 845.168 761.645 845.168C760.147 845.168 759.307 844.132 759.307 842.312V837.692H761.099V842.13C761.099 843.138 761.477 843.684 762.331 843.684C763.045 843.684 763.759 843.306 763.759 842.522V837.692H765.551V845H763.759ZM772.317 845V843.782H772.247C771.981 844.608 771.197 845.168 770.231 845.168C768.397 845.168 767.375 843.782 767.375 841.332C767.375 838.896 768.397 837.524 770.231 837.524C771.197 837.524 771.995 838.056 772.247 838.896H772.317V834.64H774.109V845H772.317ZM770.805 843.684C771.659 843.684 772.317 843.25 772.317 842.494V840.17C772.317 839.456 771.659 838.994 770.805 838.994C769.881 838.994 769.251 839.68 769.251 840.716V841.976C769.251 843.012 769.881 843.684 770.805 843.684ZM783.752 845.168C781.19 845.168 779.496 843.418 779.496 840.114C779.496 836.81 781.19 835.06 783.752 835.06C786.328 835.06 788.008 836.81 788.008 840.114C788.008 843.418 786.328 845.168 783.752 845.168ZM783.752 843.53C785.152 843.53 786.048 842.536 786.048 840.87V839.358C786.048 837.692 785.152 836.698 783.752 836.698C782.352 836.698 781.456 837.692 781.456 839.358V840.87C781.456 842.536 782.352 843.53 783.752 843.53ZM789.931 845V834.64H791.723V838.896H791.779C792.045 838.056 792.829 837.524 793.795 837.524C795.643 837.524 796.665 838.896 796.665 841.332C796.665 843.782 795.643 845.168 793.795 845.168C792.829 845.168 792.059 844.608 791.779 843.782H791.723V845H789.931ZM793.221 843.684C794.145 843.684 794.789 843.012 794.789 841.976V840.716C794.789 839.68 794.145 838.994 793.221 838.994C792.367 838.994 791.723 839.456 791.723 840.17V842.494C791.723 843.25 792.367 843.684 793.221 843.684ZM798.486 846.372V837.692H800.278V845.882C800.278 847.1 799.69 847.8 798.346 847.8H797.366V846.372H798.486ZM799.382 836.628C798.64 836.628 798.332 836.25 798.332 835.732V835.452C798.332 834.934 798.64 834.556 799.382 834.556C800.11 834.556 800.432 834.934 800.432 835.452V835.732C800.432 836.25 800.11 836.628 799.382 836.628ZM805.469 845.168C803.313 845.168 802.025 843.67 802.025 841.332C802.025 839.022 803.271 837.524 805.413 837.524C807.695 837.524 808.745 839.204 808.745 841.206V841.794H803.887V841.976C803.887 843.026 804.489 843.74 805.665 843.74C806.547 843.74 807.079 843.32 807.527 842.746L808.493 843.824C807.891 844.65 806.827 845.168 805.469 845.168ZM805.441 838.868C804.503 838.868 803.887 839.568 803.887 840.576V840.688H806.883V840.562C806.883 839.554 806.365 838.868 805.441 838.868ZM813.365 845.168C811.209 845.168 809.991 843.684 809.991 841.332C809.991 838.994 811.209 837.524 813.365 837.524C814.835 837.524 815.801 838.224 816.235 839.372L814.765 840.03C814.597 839.414 814.135 838.966 813.365 838.966C812.371 838.966 811.867 839.666 811.867 840.688V842.018C811.867 843.04 812.371 843.726 813.365 843.726C814.219 843.726 814.639 843.236 814.905 842.578L816.277 843.236C815.801 844.524 814.779 845.168 813.365 845.168ZM820.101 845C818.869 845 818.211 844.328 818.211 843.138V839.12H817.133V837.692H817.693C818.225 837.692 818.393 837.44 818.393 836.936V835.69H820.003V837.692H821.501V839.12H820.003V843.572H821.389V845H820.101ZM829.834 845.168C828.168 845.168 827.02 844.51 826.194 843.544L827.44 842.34C828.112 843.124 828.938 843.544 829.946 843.544C831.08 843.544 831.668 842.998 831.668 842.172C831.668 841.514 831.36 841.108 830.338 840.926L829.414 840.786C827.44 840.478 826.488 839.54 826.488 837.944C826.488 836.194 827.846 835.06 830.03 835.06C831.5 835.06 832.592 835.564 833.376 836.502L832.116 837.692C831.64 837.09 830.968 836.684 829.932 836.684C828.882 836.684 828.336 837.104 828.336 837.832C828.336 838.574 828.756 838.882 829.694 839.05L830.604 839.218C832.578 839.568 833.502 840.45 833.502 842.06C833.502 843.908 832.172 845.168 829.834 845.168ZM837.63 845C836.398 845 835.74 844.328 835.74 843.138V839.12H834.662V837.692H835.222C835.754 837.692 835.922 837.44 835.922 836.936V835.69H837.532V837.692H839.03V839.12H837.532V843.572H838.918V845H837.63ZM843.588 845.168C841.502 845.168 840.2 843.684 840.2 841.332C840.2 838.994 841.502 837.524 843.588 837.524C845.688 837.524 846.99 838.994 846.99 841.332C846.99 843.684 845.688 845.168 843.588 845.168ZM843.588 843.726C844.526 843.726 845.114 843.124 845.114 842.018V840.66C845.114 839.568 844.526 838.966 843.588 838.966C842.664 838.966 842.076 839.568 842.076 840.66V842.018C842.076 843.124 842.664 843.726 843.588 843.726ZM850.53 845H848.738V837.692H850.53V839.204H850.6C850.782 838.434 851.37 837.692 852.532 837.692H852.924V839.386H852.364C851.16 839.386 850.53 839.722 850.53 840.52V845ZM856.05 845.168C854.566 845.168 853.726 844.314 853.726 843.012C853.726 841.514 854.86 840.772 856.848 840.772H858.094V840.24C858.094 839.428 857.688 838.952 856.736 838.952C855.896 838.952 855.42 839.372 855.07 839.876L854.006 838.924C854.538 838.084 855.392 837.524 856.862 837.524C858.836 837.524 859.886 838.462 859.886 840.128V843.572H860.614V845H859.62C858.85 845 858.374 844.496 858.262 843.74H858.178C857.94 844.678 857.142 845.168 856.05 845.168ZM856.652 843.866C857.45 843.866 858.094 843.502 858.094 842.816V841.85H856.946C856.008 841.85 855.546 842.172 855.546 842.746V842.984C855.546 843.572 855.952 843.866 856.652 843.866ZM868.818 845.616C868.818 847.142 867.782 847.968 864.982 847.968C862.518 847.968 861.58 847.324 861.58 846.246C861.58 845.434 862.07 844.972 862.882 844.846V844.692C862.28 844.538 861.944 844.062 861.944 843.474C861.944 842.718 862.588 842.34 863.288 842.186V842.13C862.406 841.724 861.958 840.968 861.958 840.002C861.958 838.518 863.008 837.524 864.982 837.524C865.43 837.524 865.892 837.58 866.256 837.706V837.468C866.256 836.754 866.62 836.404 867.292 836.404H868.426V837.776H866.872V837.972C867.628 838.392 868.006 839.106 868.006 840.002C868.006 841.472 866.97 842.452 864.982 842.452C864.562 842.452 864.184 842.41 863.862 842.326C863.582 842.452 863.344 842.662 863.344 842.984C863.344 843.348 863.652 843.53 864.296 843.53H866.256C868.048 843.53 868.818 844.3 868.818 845.616ZM867.138 845.826C867.138 845.364 866.802 845.084 865.892 845.084H863.4C863.134 845.28 863.022 845.546 863.022 845.84C863.022 846.4 863.442 846.736 864.562 846.736H865.458C866.62 846.736 867.138 846.442 867.138 845.826ZM864.982 841.234C865.836 841.234 866.298 840.842 866.298 840.114V839.876C866.298 839.134 865.836 838.756 864.982 838.756C864.128 838.756 863.666 839.134 863.666 839.876V840.114C863.666 840.842 864.128 841.234 864.982 841.234ZM872.885 845.168C870.729 845.168 869.441 843.67 869.441 841.332C869.441 839.022 870.687 837.524 872.829 837.524C875.111 837.524 876.161 839.204 876.161 841.206V841.794H871.303V841.976C871.303 843.026 871.905 843.74 873.081 843.74C873.963 843.74 874.495 843.32 874.943 842.746L875.909 843.824C875.307 844.65 874.243 845.168 872.885 845.168ZM872.857 838.868C871.919 838.868 871.303 839.568 871.303 840.576V840.688H874.299V840.562C874.299 839.554 873.781 838.868 872.857 838.868ZM881.03 840.632C881.03 837.93 882.094 835.578 883.494 834.36H885.188C883.676 835.76 882.71 837.86 882.71 840.128V841.164C882.71 843.488 883.69 845.574 885.188 846.932H883.494C882.122 845.756 881.03 843.362 881.03 840.632ZM890.149 845.168C887.573 845.168 885.935 843.474 885.935 840.184C885.935 836.894 887.573 835.06 890.149 835.06C891.899 835.06 893.033 835.802 893.719 837.314L892.137 838.154C891.857 837.286 891.241 836.698 890.149 836.698C888.777 836.698 887.895 837.692 887.895 839.358V840.898C887.895 842.578 888.777 843.53 890.149 843.53C891.255 843.53 891.941 842.858 892.263 841.976L893.761 842.858C893.061 844.314 891.899 845.168 890.149 845.168ZM899.156 845.168C896.594 845.168 894.9 843.418 894.9 840.114C894.9 836.81 896.594 835.06 899.156 835.06C901.732 835.06 903.412 836.81 903.412 840.114C903.412 843.418 901.732 845.168 899.156 845.168ZM899.156 843.53C900.556 843.53 901.452 842.536 901.452 840.87V839.358C901.452 837.692 900.556 836.698 899.156 836.698C897.756 836.698 896.86 837.692 896.86 839.358V840.87C896.86 842.536 897.756 843.53 899.156 843.53ZM908.444 845.168C906.778 845.168 905.63 844.51 904.804 843.544L906.05 842.34C906.722 843.124 907.548 843.544 908.556 843.544C909.69 843.544 910.278 842.998 910.278 842.172C910.278 841.514 909.97 841.108 908.948 840.926L908.024 840.786C906.05 840.478 905.098 839.54 905.098 837.944C905.098 836.194 906.456 835.06 908.64 835.06C910.11 835.06 911.202 835.564 911.986 836.502L910.726 837.692C910.25 837.09 909.578 836.684 908.542 836.684C907.492 836.684 906.946 837.104 906.946 837.832C906.946 838.574 907.366 838.882 908.304 839.05L909.214 839.218C911.188 839.568 912.112 840.45 912.112 842.06C912.112 843.908 910.782 845.168 908.444 845.168ZM916.994 840.632C916.994 843.362 915.902 845.756 914.53 846.932H912.836C914.334 845.574 915.314 843.488 915.314 841.164V840.128C915.314 837.86 914.348 835.76 912.836 834.36H914.53C915.93 835.578 916.994 837.93 916.994 840.632Z" fill="black"/>
<rect width="24" height="24" transform="translate(304 828)" fill="white" fill-opacity="0.01" style="mix-blend-mode:multiply"/>
<path d="M325 843H323.5V844.5H325V849H307V844.5H314.5V843H307C306.602 843 306.221 843.159 305.94 843.44C305.659 843.721 305.5 844.102 305.5 844.5V849C305.5 849.398 305.659 849.779 305.94 850.06C306.221 850.341 306.602 850.5 307 850.5H325C325.398 850.5 325.779 850.341 326.06 850.06C326.341 849.779 326.5 849.398 326.5 849V844.5C326.5 844.102 326.341 843.721 326.06 843.44C325.779 843.159 325.398 843 325 843Z" fill="black"/>
<path d="M309.25 847.5C309.664 847.5 310 847.164 310 846.75C310 846.336 309.664 846 309.25 846C308.836 846 308.5 846.336 308.5 846.75C308.5 847.164 308.836 847.5 309.25 847.5Z" fill="black"/>
<path d="M326.5 834H320.5V838.5H316V844.5H322V840H326.5V834ZM320.5 843H317.5V840H320.5V843ZM325 838.5H322V835.5H325V838.5Z" fill="black"/>
<path d="M317.5 835.5H311.5V829.5H317.5V835.5ZM313 834H316V831H313V834Z" fill="black"/>
</g>
<defs>
<clipPath id="clip0_121_9021">
<rect width="1104" height="48" fill="white" transform="translate(240 192)"/>
</clipPath>
<clipPath id="clip1_121_9021">
<rect width="1008" height="48" fill="white" transform="translate(288 264)"/>
</clipPath>
<clipPath id="clip2_121_9021">
<rect width="240" height="48" fill="white" transform="translate(384 336)"/>
</clipPath>
<clipPath id="clip3_121_9021">
<rect width="240" height="48" fill="white" transform="translate(672 336)"/>
</clipPath>
<clipPath id="clip4_121_9021">
<rect width="240" height="48" fill="white" transform="translate(960 336)"/>
</clipPath>
<clipPath id="clip5_121_9021">
<rect width="1008" height="48" fill="white" transform="translate(288 816)"/>
</clipPath>
</defs>
</svg>
