<svg width="1105" height="864" viewBox="0 0 1105 864" fill="none" xmlns="http://www.w3.org/2000/svg">
<path d="M8 0.5H1097C1101.14 0.5 1104.5 3.85786 1104.5 8V856C1104.5 860.142 1101.14 863.5 1097 863.5H8C3.85786 863.5 0.5 860.142 0.5 856V8L0.509766 7.61426C0.710546 3.65139 3.98725 0.5 8 0.5Z" fill="white"/>
<path d="M8 0.5H1097C1101.14 0.5 1104.5 3.85786 1104.5 8V856C1104.5 860.142 1101.14 863.5 1097 863.5H8C3.85786 863.5 0.5 860.142 0.5 856V8L0.509766 7.61426C0.710546 3.65139 3.98725 0.5 8 0.5Z" stroke="#8D8D8D"/>
<path d="M1 8.00001C1 4.13401 4.13401 1 8 1H1097C1100.87 1 1104 4.13401 1104 8V856C1104 859.866 1100.87 863 1097 863H8.00002C4.13403 863 1 859.866 1 856V8.00001Z" fill="white"/>
<g clip-path="url(#clip0_576_17677)">
<path d="M61.18 29H56.742V27.516H58.03V20.712H56.742V19.228H61.18V20.712H59.878V27.516H61.18V29ZM63.2279 29V19.228H67.7499C69.3599 19.228 70.3399 20.222 70.3399 21.734C70.3399 23.218 69.4859 23.778 68.5899 23.834V23.918C69.4439 23.932 70.7039 24.534 70.7039 26.2C70.7039 27.768 69.6259 29 68.1839 29H63.2279ZM65.0759 24.814V27.432H67.6519C68.3519 27.432 68.7719 27.054 68.7719 26.368V25.892C68.7719 25.206 68.3519 24.814 67.6519 24.814H65.0759ZM65.0759 20.796V23.302H67.3579C68.0299 23.302 68.4219 22.91 68.4219 22.266V21.832C68.4219 21.174 68.0299 20.796 67.3579 20.796H65.0759ZM72.6711 29V19.228H74.7571L77.2631 24.002H77.3191L79.7971 19.228H81.7991V29H80.0491V21.986H79.9931L79.2371 23.54L77.2351 27.236L75.2331 23.54L74.4771 21.986H74.4211V29H72.6711ZM91.5234 29.168C88.9474 29.168 87.3094 27.474 87.3094 24.184C87.3094 20.894 88.9474 19.06 91.5234 19.06C93.2734 19.06 94.4074 19.802 95.0934 21.314L93.5114 22.154C93.2314 21.286 92.6154 20.698 91.5234 20.698C90.1514 20.698 89.2694 21.692 89.2694 23.358V24.898C89.2694 26.578 90.1514 27.53 91.5234 27.53C92.6294 27.53 93.3154 26.858 93.6374 25.976L95.1354 26.858C94.4354 28.314 93.2734 29.168 91.5234 29.168ZM99.5178 29H98.5518C97.3338 29 96.7598 28.356 96.7598 27.236V18.64H98.5518V27.572H99.5178V29ZM103.933 29.168C101.847 29.168 100.545 27.684 100.545 25.332C100.545 22.994 101.847 21.524 103.933 21.524C106.033 21.524 107.335 22.994 107.335 25.332C107.335 27.684 106.033 29.168 103.933 29.168ZM103.933 27.726C104.871 27.726 105.459 27.124 105.459 26.018V24.66C105.459 23.568 104.871 22.966 103.933 22.966C103.009 22.966 102.421 23.568 102.421 24.66V26.018C102.421 27.124 103.009 27.726 103.933 27.726ZM113.452 29V27.782H113.382C113.13 28.51 112.542 29.168 111.338 29.168C109.84 29.168 109 28.132 109 26.312V21.692H110.792V26.13C110.792 27.138 111.17 27.684 112.024 27.684C112.738 27.684 113.452 27.306 113.452 26.522V21.692H115.244V29H113.452ZM122.01 29V27.782H121.94C121.674 28.608 120.89 29.168 119.924 29.168C118.09 29.168 117.068 27.782 117.068 25.332C117.068 22.896 118.09 21.524 119.924 21.524C120.89 21.524 121.688 22.056 121.94 22.896H122.01V18.64H123.802V29H122.01ZM120.498 27.684C121.352 27.684 122.01 27.25 122.01 26.494V24.17C122.01 23.456 121.352 22.994 120.498 22.994C119.574 22.994 118.944 23.68 118.944 24.716V25.976C118.944 27.012 119.574 27.684 120.498 27.684Z" fill="black"/>
<rect width="24" height="24" transform="translate(16 12)" fill="white" fill-opacity="0.01" style="mix-blend-mode:multiply"/>
<path d="M27.9998 17.25C28.3801 17.2499 28.7594 17.2876 29.1323 17.3625C30.3105 17.5882 31.394 18.1618 32.243 19.0094C33.0919 19.857 33.6673 20.9396 33.8948 22.1175L34.0898 23.13L35.1023 23.31C36.1249 23.4859 37.0437 24.0407 37.6755 24.8639C38.3072 25.6871 38.6055 26.7181 38.5109 27.7515C38.4163 28.7848 37.9357 29.7446 37.1649 30.4393C36.3942 31.134 35.3899 31.5128 34.3523 31.5H21.6248C20.5872 31.5128 19.5829 31.134 18.8121 30.4393C18.0414 29.7446 17.5608 28.7848 17.4662 27.7515C17.3715 26.7181 17.6698 25.6871 18.3016 24.8639C18.9333 24.0407 19.8521 23.4859 20.8748 23.31L21.8798 23.13L22.0748 22.1175C22.3391 20.7422 23.0762 19.5027 24.1583 18.6138C25.2404 17.7248 26.5994 17.2423 27.9998 17.25ZM27.9998 15.75C26.2542 15.7486 24.5629 16.356 23.2171 17.4677C21.8713 18.5793 20.9554 20.1256 20.6273 21.84C19.246 22.0901 18.0082 22.8476 17.1569 23.9637C16.3056 25.0798 15.9024 26.4738 16.0264 27.8721C16.1504 29.2703 16.7928 30.5716 17.8273 31.5204C18.8617 32.4692 20.2136 32.997 21.6173 33H34.3673C35.771 32.997 37.1228 32.4692 38.1573 31.5204C39.1918 30.5716 39.8341 29.2703 39.9582 27.8721C40.0822 26.4738 39.679 25.0798 38.8277 23.9637C37.9764 22.8476 36.7385 22.0901 35.3573 21.84C35.0748 20.3654 34.3562 19.0095 33.2945 17.9478C32.2328 16.8861 30.8769 16.1675 29.4023 15.885C28.9399 15.7972 28.4704 15.7521 27.9998 15.75Z" fill="black"/>
</g>
<rect x="48.5" y="96.5" width="1007" height="431" fill="white" fill-opacity="0.01" style="mix-blend-mode:multiply"/>
<rect x="48.5" y="96.5" width="1007" height="431" stroke="#0F62FE"/>
<rect x="49" y="97" width="1006" height="430" fill="white"/>
<rect x="49" y="97" width="1006" height="430" fill="#EDF5FF"/>
<g clip-path="url(#clip1_576_17677)">
<path d="M106.996 121.234V125H105.148V115.228H109.558C111.336 115.228 112.442 116.404 112.442 118.252C112.442 119.596 111.826 120.618 110.622 121.024L112.624 125H110.566L108.746 121.234H106.996ZM106.996 119.68H109.376C110.09 119.68 110.524 119.288 110.524 118.574V117.93C110.524 117.216 110.09 116.838 109.376 116.838H106.996V119.68ZM117.242 125.168C115.086 125.168 113.798 123.67 113.798 121.332C113.798 119.022 115.044 117.524 117.186 117.524C119.468 117.524 120.518 119.204 120.518 121.206V121.794H115.66V121.976C115.66 123.026 116.262 123.74 117.438 123.74C118.32 123.74 118.852 123.32 119.3 122.746L120.266 123.824C119.664 124.65 118.6 125.168 117.242 125.168ZM117.214 118.868C116.276 118.868 115.66 119.568 115.66 120.576V120.688H118.656V120.562C118.656 119.554 118.138 118.868 117.214 118.868ZM128.848 125.616C128.848 127.142 127.812 127.968 125.012 127.968C122.548 127.968 121.61 127.324 121.61 126.246C121.61 125.434 122.1 124.972 122.912 124.846V124.692C122.31 124.538 121.974 124.062 121.974 123.474C121.974 122.718 122.618 122.34 123.318 122.186V122.13C122.436 121.724 121.988 120.968 121.988 120.002C121.988 118.518 123.038 117.524 125.012 117.524C125.46 117.524 125.922 117.58 126.286 117.706V117.468C126.286 116.754 126.65 116.404 127.322 116.404H128.456V117.776H126.902V117.972C127.658 118.392 128.036 119.106 128.036 120.002C128.036 121.472 127 122.452 125.012 122.452C124.592 122.452 124.214 122.41 123.892 122.326C123.612 122.452 123.374 122.662 123.374 122.984C123.374 123.348 123.682 123.53 124.326 123.53H126.286C128.078 123.53 128.848 124.3 128.848 125.616ZM127.168 125.826C127.168 125.364 126.832 125.084 125.922 125.084H123.43C123.164 125.28 123.052 125.546 123.052 125.84C123.052 126.4 123.472 126.736 124.592 126.736H125.488C126.65 126.736 127.168 126.442 127.168 125.826ZM125.012 121.234C125.866 121.234 126.328 120.842 126.328 120.114V119.876C126.328 119.134 125.866 118.756 125.012 118.756C124.158 118.756 123.696 119.134 123.696 119.876V120.114C123.696 120.842 124.158 121.234 125.012 121.234ZM130.939 116.628C130.197 116.628 129.889 116.25 129.889 115.732V115.452C129.889 114.934 130.197 114.556 130.939 114.556C131.667 114.556 131.989 114.934 131.989 115.452V115.732C131.989 116.25 131.667 116.628 130.939 116.628ZM130.043 125V117.692H131.835V125H130.043ZM136.97 125.168C134.884 125.168 133.582 123.684 133.582 121.332C133.582 118.994 134.884 117.524 136.97 117.524C139.07 117.524 140.372 118.994 140.372 121.332C140.372 123.684 139.07 125.168 136.97 125.168ZM136.97 123.726C137.908 123.726 138.496 123.124 138.496 122.018V120.66C138.496 119.568 137.908 118.966 136.97 118.966C136.046 118.966 135.458 119.568 135.458 120.66V122.018C135.458 123.124 136.046 123.726 136.97 123.726ZM143.913 125H142.121V117.692H143.913V118.91H143.983C144.277 118.126 144.893 117.524 146.027 117.524C147.525 117.524 148.365 118.56 148.365 120.38V125H146.573V120.562C146.573 119.526 146.223 118.994 145.369 118.994C144.627 118.994 143.913 119.386 143.913 120.17V125Z" fill="black"/>
<rect width="24" height="24" transform="translate(64 108)" fill="white" fill-opacity="0.01" style="mix-blend-mode:multiply"/>
<path d="M76 121.5C75.2583 121.5 74.5333 121.28 73.9166 120.868C73.2999 120.456 72.8193 119.87 72.5355 119.185C72.2516 118.5 72.1774 117.746 72.3221 117.018C72.4668 116.291 72.8239 115.623 73.3484 115.098C73.8728 114.574 74.541 114.217 75.2684 114.072C75.9958 113.927 76.7498 114.002 77.4351 114.285C78.1203 114.569 78.706 115.05 79.118 115.667C79.5301 116.283 79.75 117.008 79.75 117.75C79.7489 118.744 79.3534 119.697 78.6504 120.4C77.9474 121.103 76.9942 121.499 76 121.5ZM76 115.5C75.555 115.5 75.12 115.632 74.75 115.879C74.38 116.126 74.0916 116.478 73.9213 116.889C73.751 117.3 73.7064 117.752 73.7932 118.189C73.8801 118.625 74.0943 119.026 74.409 119.341C74.7237 119.656 75.1246 119.87 75.5611 119.957C75.9975 120.044 76.4499 119.999 76.861 119.829C77.2722 119.658 77.6236 119.37 77.8708 119C78.118 118.63 78.25 118.195 78.25 117.75C78.2494 117.153 78.0121 116.582 77.5903 116.16C77.1685 115.738 76.5965 115.501 76 115.5Z" fill="black"/>
<path d="M76 130.5L69.6734 123.038C69.6375 122.996 69.4122 122.7 69.4122 122.7C68.3314 121.276 67.7475 119.537 67.75 117.75C67.75 115.562 68.6192 113.464 70.1664 111.916C71.7136 110.369 73.812 109.5 76 109.5C78.188 109.5 80.2865 110.369 81.8336 111.916C83.3808 113.464 84.25 115.562 84.25 117.75C84.2527 119.537 83.6692 121.275 82.5889 122.698L82.5878 122.7C82.5878 122.7 82.3628 122.996 82.3293 123.035L76 130.5ZM70.6094 121.796C70.6094 121.796 70.7844 122.027 70.8243 122.077L76 128.181L81.1825 122.068C81.2154 122.027 81.3916 121.794 81.3916 121.794C82.2746 120.631 82.7517 119.21 82.75 117.75C82.75 115.96 82.0388 114.243 80.773 112.977C79.5071 111.711 77.7902 111 76 111C74.2098 111 72.4929 111.711 71.227 112.977C69.9612 114.243 69.25 115.96 69.25 117.75C69.2483 119.211 69.7259 120.632 70.6094 121.796Z" fill="black"/>
<line x1="50" y1="96" x2="50" y2="144" stroke="#0F62FE" stroke-width="4"/>
</g>
<rect width="208" height="282" transform="translate(336 176)" fill="white"/>
<rect x="336" y="176" width="208" height="282" fill="white"/>
<g clip-path="url(#clip2_576_17677)">
<path d="M401.114 205H399.196L398.412 202.508H394.94L394.17 205H392.294L395.57 195.228H397.866L401.114 205ZM397.964 200.926L396.704 196.908H396.634L395.388 200.926H397.964ZM405.915 205H403.787L401.351 197.692H403.115L404.137 200.842L404.851 203.446H404.949L405.663 200.842L406.657 197.692H408.365L405.915 205ZM411.404 205.168C409.92 205.168 409.08 204.314 409.08 203.012C409.08 201.514 410.214 200.772 412.202 200.772H413.448V200.24C413.448 199.428 413.042 198.952 412.09 198.952C411.25 198.952 410.774 199.372 410.424 199.876L409.36 198.924C409.892 198.084 410.746 197.524 412.216 197.524C414.19 197.524 415.24 198.462 415.24 200.128V203.572H415.968V205H414.974C414.204 205 413.728 204.496 413.616 203.74H413.532C413.294 204.678 412.496 205.168 411.404 205.168ZM412.006 203.866C412.804 203.866 413.448 203.502 413.448 202.816V201.85H412.3C411.362 201.85 410.9 202.172 410.9 202.746V202.984C410.9 203.572 411.306 203.866 412.006 203.866ZM418.474 196.628C417.732 196.628 417.424 196.25 417.424 195.732V195.452C417.424 194.934 417.732 194.556 418.474 194.556C419.202 194.556 419.524 194.934 419.524 195.452V195.732C419.524 196.25 419.202 196.628 418.474 196.628ZM417.578 205V197.692H419.37V205H417.578ZM424.366 205H423.4C422.182 205 421.608 204.356 421.608 203.236V194.64H423.4V203.572H424.366V205ZM427.689 205.168C426.205 205.168 425.365 204.314 425.365 203.012C425.365 201.514 426.499 200.772 428.487 200.772H429.733V200.24C429.733 199.428 429.327 198.952 428.375 198.952C427.535 198.952 427.059 199.372 426.709 199.876L425.645 198.924C426.177 198.084 427.031 197.524 428.501 197.524C430.475 197.524 431.525 198.462 431.525 200.128V203.572H432.253V205H431.259C430.489 205 430.013 204.496 429.901 203.74H429.817C429.579 204.678 428.781 205.168 427.689 205.168ZM428.291 203.866C429.089 203.866 429.733 203.502 429.733 202.816V201.85H428.585C427.647 201.85 427.185 202.172 427.185 202.746V202.984C427.185 203.572 427.591 203.866 428.291 203.866ZM433.863 205V194.64H435.655V198.896H435.711C435.977 198.056 436.761 197.524 437.727 197.524C439.575 197.524 440.597 198.896 440.597 201.332C440.597 203.782 439.575 205.168 437.727 205.168C436.761 205.168 435.991 204.608 435.711 203.782H435.655V205H433.863ZM437.153 203.684C438.077 203.684 438.721 203.012 438.721 201.976V200.716C438.721 199.68 438.077 198.994 437.153 198.994C436.299 198.994 435.655 199.456 435.655 200.17V202.494C435.655 203.25 436.299 203.684 437.153 203.684ZM443.314 196.628C442.572 196.628 442.264 196.25 442.264 195.732V195.452C442.264 194.934 442.572 194.556 443.314 194.556C444.042 194.556 444.364 194.934 444.364 195.452V195.732C444.364 196.25 444.042 196.628 443.314 196.628ZM442.418 205V197.692H444.21V205H442.418ZM449.205 205H448.239C447.021 205 446.447 204.356 446.447 203.236V194.64H448.239V203.572H449.205V205ZM451.618 196.628C450.876 196.628 450.568 196.25 450.568 195.732V195.452C450.568 194.934 450.876 194.556 451.618 194.556C452.346 194.556 452.668 194.934 452.668 195.452V195.732C452.668 196.25 452.346 196.628 451.618 196.628ZM450.722 205V197.692H452.514V205H450.722ZM457.033 205C455.801 205 455.143 204.328 455.143 203.138V199.12H454.065V197.692H454.625C455.157 197.692 455.325 197.44 455.325 196.936V195.69H456.935V197.692H458.433V199.12H456.935V203.572H458.321V205H457.033ZM463.354 201.556L464.628 197.692H466.308L463.368 206.302C463.004 207.352 462.486 207.8 461.282 207.8H460.204V206.372H461.52L461.856 205.35L459.238 197.692H461.016L462.29 201.556L462.766 203.404H462.85L463.354 201.556ZM477.936 203.362V205H470.614V203.348L475.668 196.866H470.866V195.228H477.796V196.88L472.728 203.362H477.936ZM482.488 205.168C480.402 205.168 479.1 203.684 479.1 201.332C479.1 198.994 480.402 197.524 482.488 197.524C484.588 197.524 485.89 198.994 485.89 201.332C485.89 203.684 484.588 205.168 482.488 205.168ZM482.488 203.726C483.426 203.726 484.014 203.124 484.014 202.018V200.66C484.014 199.568 483.426 198.966 482.488 198.966C481.564 198.966 480.976 199.568 480.976 200.66V202.018C480.976 203.124 481.564 203.726 482.488 203.726ZM489.431 205H487.639V197.692H489.431V198.91H489.501C489.795 198.126 490.411 197.524 491.545 197.524C493.043 197.524 493.883 198.56 493.883 200.38V205H492.091V200.562C492.091 199.526 491.741 198.994 490.887 198.994C490.145 198.994 489.431 199.386 489.431 200.17V205ZM498.984 205.168C496.828 205.168 495.54 203.67 495.54 201.332C495.54 199.022 496.786 197.524 498.928 197.524C501.21 197.524 502.26 199.204 502.26 201.206V201.794H497.402V201.976C497.402 203.026 498.004 203.74 499.18 203.74C500.062 203.74 500.594 203.32 501.042 202.746L502.008 203.824C501.406 204.65 500.342 205.168 498.984 205.168ZM498.956 198.868C498.018 198.868 497.402 199.568 497.402 200.576V200.688H500.398V200.562C500.398 199.554 499.88 198.868 498.956 198.868ZM514.073 203.446V205H507.297V203.292L510.363 200.604C511.399 199.694 511.875 199.022 511.875 198.168V197.986C511.875 197.132 511.231 196.656 510.433 196.656C509.425 196.656 508.949 197.314 508.725 198.112L507.129 197.496C507.549 196.194 508.599 195.06 510.587 195.06C512.645 195.06 513.821 196.292 513.821 197.972C513.821 199.596 512.715 200.632 511.357 201.752L509.299 203.446H514.073Z" fill="black"/>
<rect width="24" height="24" transform="translate(352 188)" fill="white" fill-opacity="0.01" style="mix-blend-mode:multiply"/>
<path d="M373 195.5H369.25V192.5C369.25 192.102 369.091 191.721 368.81 191.44C368.529 191.159 368.148 191 367.75 191H360.25C359.852 191 359.471 191.159 359.19 191.44C358.909 191.721 358.75 192.102 358.75 192.5V195.5H355C354.602 195.5 354.221 195.659 353.94 195.94C353.659 196.221 353.5 196.602 353.5 197V209C353.5 209.398 353.659 209.779 353.94 210.06C354.221 210.341 354.602 210.5 355 210.5H373C373.398 210.5 373.779 210.341 374.06 210.06C374.341 209.779 374.5 209.398 374.5 209V197C374.5 196.602 374.341 196.221 374.06 195.94C373.779 195.659 373.398 195.5 373 195.5ZM355 209V197H358.75V198.5H357.25V200H358.75V201.5H357.25V203H358.75V204.5H357.25V206H358.75V209H355ZM367.75 209H360.25V192.5H367.75V209ZM373 209H369.25V206H370.75V204.5H369.25V203H370.75V201.5H369.25V200H370.75V198.5H369.25V197H373V209Z" fill="black"/>
<path d="M365.5 194H362.5V195.5H365.5V194Z" fill="black"/>
<path d="M365.5 197H362.5V198.5H365.5V197Z" fill="black"/>
<path d="M365.5 200H362.5V201.5H365.5V200Z" fill="black"/>
</g>
<path d="M342 176V176.5H346V176H350V176.5H354V176H358V176.5H362V176H366V176.5H370V176H374V176.5H378V176H382V176.5H386V176H390V176.5H394V176H398V176.5H402V176H406V176.5H410V176H414V176.5H418V176H422V176.5H426V176H430V176.5H434V176H438V176.5H442V176H446V176.5H450V176H454V176.5H458V176H462V176.5H466V176H470V176.5H474V176H478V176.5H482V176H486V176.5H490V176H494V176.5H498V176H502V176.5H506V176H510V176.5H514V176H518V176.5H522V176H526V176.5H530V176H534V176.5H538V176H542V176.5H543.5V178.015H544V182.043H543.5V186.071H544V190.101H543.5V194.129H544V198.157H543.5V202.186H544V206.215H543.5V210.243H544V214.271H543.5V218.3H544V222.329H543.5V226.357H544V230.386H543.5V234.414H544V238.443H543.5V242.472H544V246.5H543.5V250.528H544V254.558H543.5V258.586H544V262.614H543.5V266.643H544V270.672H543.5V274.7H544V278.729H543.5V282.757H544V286.786H543.5V290.814H544V294.843H543.5V298.871H544V302.9H543.5V306.929H544V310.957H543.5V314.985H544V319.015H543.5V323.043H544V327.071H543.5V331.1H544V335.129H543.5V339.157H544V343.186H543.5V347.214H544V351.243H543.5V355.271H544V359.3H543.5V363.328H544V367.357H543.5V371.386H544V375.414H543.5V379.442H544V383.472H543.5V387.5H544V391.528H543.5V395.558H544V399.586H543.5V403.614H544V407.643H543.5V411.672H544V415.7H543.5V419.729H544V423.757H543.5V427.786H544V431.814H543.5V435.843H544V439.871H543.5V443.9H544V447.929H543.5V451.957H544V455.985H543.5V457.5H542V458H538V457.5H534V458H530V457.5H526V458H522V457.5H518V458H514V457.5H510V458H506V457.5H502V458H498V457.5H494V458H490V457.5H486V458H482V457.5H478V458H474V457.5H470V458H466V457.5H462V458H458V457.5H454V458H450V457.5H446V458H442V457.5H438V458H434V457.5H430V458H426V457.5H422V458H418V457.5H414V458H410V457.5H406V458H402V457.5H398V458H394V457.5H390V458H386V457.5H382V458H378V457.5H374V458H370V457.5H366V458H362V457.5H358V458H354V457.5H350V458H346V457.5H342V458H338V457.5H336.5V455.985H336V451.957H336.5V447.929H336V443.899H336.5V439.871H336V435.843H336.5V431.814H336V427.785H336.5V423.757H336V419.729H336.5V415.7H336V411.671H336.5V407.643H336V403.614H336.5V399.586H336V395.557H336.5V391.528H336V387.5H336.5V383.472H336V379.442H336.5V375.414H336V371.386H336.5V367.357H336V363.328H336.5V359.3H336V355.271H336.5V351.243H336V347.214H336.5V343.186H336V339.157H336.5V335.129H336V331.1H336.5V327.071H336V323.043H336.5V319.015H336V314.985H336.5V310.957H336V306.929H336.5V302.9H336V298.871H336.5V294.843H336V290.814H336.5V286.786H336V282.757H336.5V278.729H336V274.7H336.5V270.672H336V266.643H336.5V262.614H336V258.586H336.5V254.558H336V250.528H336.5V246.5H336V242.472H336.5V238.442H336V234.414H336.5V230.386H336V226.357H336.5V222.328H336V218.3H336.5V214.271H336V210.243H336.5V206.214H336V202.186H336.5V198.157H336V194.129H336.5V190.1H336V186.071H336.5V182.043H336V178.015H336.5V176.5H338V176H342Z" stroke="black" stroke-dasharray="4 4"/>
<rect width="64" height="74" transform="translate(408 352)" fill="white" fill-opacity="0.01" style="mix-blend-mode:multiply"/>
<path d="M424 352H456C460.418 352 464 355.582 464 360V392C464 396.418 460.418 400 456 400H424C419.582 400 416 396.418 416 392V360C416 355.582 419.582 352 424 352Z" fill="#0F62FE"/>
<rect width="24" height="24" transform="translate(428 364)" fill="white" fill-opacity="0.01"/>
<path d="M450.043 374.895L441.105 365.957C440.8 365.652 440.4 365.5 440 365.5C439.6 365.5 439.2 365.652 438.895 365.957L429.957 374.895C429.652 375.2 429.5 375.6 429.5 376C429.5 376.4 429.652 376.8 429.957 377.105L438.895 386.043C439.2 386.348 439.6 386.5 440 386.5C440.4 386.5 440.8 386.348 441.105 386.043L450.043 377.105C450.348 376.8 450.5 376.4 450.5 376C450.5 375.6 450.348 375.2 450.043 374.895ZM440 385.027L430.973 376L440 366.973L449.027 376L440 385.027Z" fill="white"/>
<path d="M416.699 422.168C415.033 422.168 413.885 421.51 413.059 420.544L414.305 419.34C414.977 420.124 415.803 420.544 416.811 420.544C417.945 420.544 418.533 419.998 418.533 419.172C418.533 418.514 418.225 418.108 417.203 417.926L416.279 417.786C414.305 417.478 413.353 416.54 413.353 414.944C413.353 413.194 414.711 412.06 416.895 412.06C418.365 412.06 419.457 412.564 420.241 413.502L418.981 414.692C418.505 414.09 417.833 413.684 416.797 413.684C415.747 413.684 415.201 414.104 415.201 414.832C415.201 415.574 415.621 415.882 416.559 416.05L417.469 416.218C419.443 416.568 420.367 417.45 420.367 419.06C420.367 420.908 419.037 422.168 416.699 422.168ZM425.222 422.168C423.066 422.168 421.778 420.67 421.778 418.332C421.778 416.022 423.024 414.524 425.166 414.524C427.448 414.524 428.498 416.204 428.498 418.206V418.794H423.64V418.976C423.64 420.026 424.242 420.74 425.418 420.74C426.3 420.74 426.832 420.32 427.28 419.746L428.246 420.824C427.644 421.65 426.58 422.168 425.222 422.168ZM425.194 415.868C424.256 415.868 423.64 416.568 423.64 417.576V417.688H426.636V417.562C426.636 416.554 426.118 415.868 425.194 415.868ZM432.026 422H430.234V414.692H432.026V415.91H432.096C432.39 415.126 433.006 414.524 434.14 414.524C435.638 414.524 436.478 415.56 436.478 417.38V422H434.686V417.562C434.686 416.526 434.336 415.994 433.482 415.994C432.74 415.994 432.026 416.386 432.026 417.17V422ZM440.907 422C439.675 422 439.017 421.328 439.017 420.138V416.12H437.939V414.692H438.499C439.031 414.692 439.199 414.44 439.199 413.936V412.69H440.809V414.692H442.307V416.12H440.809V420.572H442.195V422H440.907ZM444.917 413.628C444.175 413.628 443.867 413.25 443.867 412.732V412.452C443.867 411.934 444.175 411.556 444.917 411.556C445.645 411.556 445.967 411.934 445.967 412.452V412.732C445.967 413.25 445.645 413.628 444.917 413.628ZM444.021 422V414.692H445.813V422H444.021ZM449.842 422H448.05V414.692H449.842V415.91H449.912C450.206 415.126 450.822 414.524 451.956 414.524C453.454 414.524 454.294 415.56 454.294 417.38V422H452.502V417.562C452.502 416.526 452.152 415.994 451.298 415.994C450.556 415.994 449.842 416.386 449.842 417.17V422ZM459.395 422.168C457.239 422.168 455.951 420.67 455.951 418.332C455.951 416.022 457.197 414.524 459.339 414.524C461.621 414.524 462.671 416.204 462.671 418.206V418.794H457.813V418.976C457.813 420.026 458.415 420.74 459.591 420.74C460.473 420.74 461.005 420.32 461.453 419.746L462.419 420.824C461.817 421.65 460.753 422.168 459.395 422.168ZM459.367 415.868C458.429 415.868 457.813 416.568 457.813 417.576V417.688H460.809V417.562C460.809 416.554 460.291 415.868 459.367 415.868ZM467.166 422H466.2C464.982 422 464.408 421.356 464.408 420.236V411.64H466.2V420.572H467.166V422Z" fill="black"/>
<rect width="64" height="74" transform="translate(408 254)" fill="white" fill-opacity="0.01" style="mix-blend-mode:multiply"/>
<rect width="48" height="48" transform="translate(416 254)" fill="white" fill-opacity="0.01" style="mix-blend-mode:multiply"/>
<circle cx="440" cy="278" r="24" fill="#0F62FE"/>
<rect width="24" height="24" transform="translate(428 266)" fill="white" fill-opacity="0.01"/>
<path d="M449 272H450.5V269C450.5 268.602 450.341 268.221 450.06 267.94C449.779 267.659 449.398 267.5 449 267.5H446V269H449V272Z" fill="white"/>
<path d="M443.75 267.5H440.75V269H443.75V267.5Z" fill="white"/>
<path d="M450.5 274.25H449V277.25H450.5V274.25Z" fill="white"/>
<path d="M449 279.5V282.5H446V273.5C446 273.102 445.841 272.721 445.56 272.44C445.279 272.159 444.898 272 444.5 272H435.5V269H438.5V267.5H435.5C435.102 267.5 434.721 267.659 434.44 267.94C434.159 268.221 434 268.602 434 269V272H431C430.602 272 430.221 272.159 429.94 272.44C429.659 272.721 429.5 273.102 429.5 273.5V287C429.5 287.398 429.659 287.779 429.94 288.06C430.221 288.341 430.602 288.5 431 288.5H444.5C444.898 288.5 445.279 288.341 445.56 288.06C445.841 287.779 446 287.398 446 287V284H449C449.398 284 449.779 283.841 450.06 283.56C450.341 283.279 450.5 282.898 450.5 282.5V279.5H449ZM444.5 287H431V273.5H444.5V287Z" fill="white"/>
<path d="M418.378 320.234V324H416.53V314.228H420.94C422.718 314.228 423.824 315.404 423.824 317.252C423.824 318.596 423.208 319.618 422.004 320.024L424.006 324H421.948L420.128 320.234H418.378ZM418.378 318.68H420.758C421.472 318.68 421.906 318.288 421.906 317.574V316.93C421.906 316.216 421.472 315.838 420.758 315.838H418.378V318.68ZM428.624 324.168C426.468 324.168 425.18 322.67 425.18 320.332C425.18 318.022 426.426 316.524 428.568 316.524C430.85 316.524 431.9 318.204 431.9 320.206V320.794H427.042V320.976C427.042 322.026 427.644 322.74 428.82 322.74C429.702 322.74 430.234 322.32 430.682 321.746L431.648 322.824C431.046 323.65 429.982 324.168 428.624 324.168ZM428.596 317.868C427.658 317.868 427.042 318.568 427.042 319.576V319.688H430.038V319.562C430.038 318.554 429.52 317.868 428.596 317.868ZM433.637 326.8V316.692H435.429V317.896H435.485C435.751 317.056 436.535 316.524 437.501 316.524C439.349 316.524 440.371 317.896 440.371 320.332C440.371 322.782 439.349 324.168 437.501 324.168C436.535 324.168 435.765 323.608 435.485 322.782H435.429V326.8H433.637ZM436.927 322.684C437.851 322.684 438.495 322.012 438.495 320.976V319.716C438.495 318.68 437.851 317.994 436.927 317.994C436.073 317.994 435.429 318.456 435.429 319.17V321.494C435.429 322.25 436.073 322.684 436.927 322.684ZM444.949 324H443.983C442.765 324 442.191 323.356 442.191 322.236V313.64H443.983V322.572H444.949V324ZM447.363 315.628C446.621 315.628 446.313 315.25 446.313 314.732V314.452C446.313 313.934 446.621 313.556 447.363 313.556C448.091 313.556 448.413 313.934 448.413 314.452V314.732C448.413 315.25 448.091 315.628 447.363 315.628ZM446.467 324V316.692H448.259V324H446.467ZM453.38 324.168C451.224 324.168 450.006 322.684 450.006 320.332C450.006 317.994 451.224 316.524 453.38 316.524C454.85 316.524 455.816 317.224 456.25 318.372L454.78 319.03C454.612 318.414 454.15 317.966 453.38 317.966C452.386 317.966 451.882 318.666 451.882 319.688V321.018C451.882 322.04 452.386 322.726 453.38 322.726C454.234 322.726 454.654 322.236 454.92 321.578L456.292 322.236C455.816 323.524 454.794 324.168 453.38 324.168ZM459.639 324.168C458.155 324.168 457.315 323.314 457.315 322.012C457.315 320.514 458.449 319.772 460.437 319.772H461.683V319.24C461.683 318.428 461.277 317.952 460.325 317.952C459.485 317.952 459.009 318.372 458.659 318.876L457.595 317.924C458.127 317.084 458.981 316.524 460.451 316.524C462.425 316.524 463.475 317.462 463.475 319.128V322.572H464.203V324H463.209C462.439 324 461.963 323.496 461.851 322.74H461.767C461.529 323.678 460.731 324.168 459.639 324.168ZM460.241 322.866C461.039 322.866 461.683 322.502 461.683 321.816V320.85H460.535C459.597 320.85 459.135 321.172 459.135 321.746V321.984C459.135 322.572 459.541 322.866 460.241 322.866Z" fill="black"/>
<rect width="208" height="282" transform="translate(112 176)" fill="white"/>
<rect x="112" y="176" width="208" height="282" fill="white"/>
<g clip-path="url(#clip3_576_17677)">
<path d="M177.114 205H175.196L174.412 202.508H170.94L170.17 205H168.294L171.57 195.228H173.866L177.114 205ZM173.964 200.926L172.704 196.908H172.634L171.388 200.926H173.964ZM181.915 205H179.787L177.351 197.692H179.115L180.137 200.842L180.851 203.446H180.949L181.663 200.842L182.657 197.692H184.365L181.915 205ZM187.404 205.168C185.92 205.168 185.08 204.314 185.08 203.012C185.08 201.514 186.214 200.772 188.202 200.772H189.448V200.24C189.448 199.428 189.042 198.952 188.09 198.952C187.25 198.952 186.774 199.372 186.424 199.876L185.36 198.924C185.892 198.084 186.746 197.524 188.216 197.524C190.19 197.524 191.24 198.462 191.24 200.128V203.572H191.968V205H190.974C190.204 205 189.728 204.496 189.616 203.74H189.532C189.294 204.678 188.496 205.168 187.404 205.168ZM188.006 203.866C188.804 203.866 189.448 203.502 189.448 202.816V201.85H188.3C187.362 201.85 186.9 202.172 186.9 202.746V202.984C186.9 203.572 187.306 203.866 188.006 203.866ZM194.474 196.628C193.732 196.628 193.424 196.25 193.424 195.732V195.452C193.424 194.934 193.732 194.556 194.474 194.556C195.202 194.556 195.524 194.934 195.524 195.452V195.732C195.524 196.25 195.202 196.628 194.474 196.628ZM193.578 205V197.692H195.37V205H193.578ZM200.366 205H199.4C198.182 205 197.608 204.356 197.608 203.236V194.64H199.4V203.572H200.366V205ZM203.689 205.168C202.205 205.168 201.365 204.314 201.365 203.012C201.365 201.514 202.499 200.772 204.487 200.772H205.733V200.24C205.733 199.428 205.327 198.952 204.375 198.952C203.535 198.952 203.059 199.372 202.709 199.876L201.645 198.924C202.177 198.084 203.031 197.524 204.501 197.524C206.475 197.524 207.525 198.462 207.525 200.128V203.572H208.253V205H207.259C206.489 205 206.013 204.496 205.901 203.74H205.817C205.579 204.678 204.781 205.168 203.689 205.168ZM204.291 203.866C205.089 203.866 205.733 203.502 205.733 202.816V201.85H204.585C203.647 201.85 203.185 202.172 203.185 202.746V202.984C203.185 203.572 203.591 203.866 204.291 203.866ZM209.863 205V194.64H211.655V198.896H211.711C211.977 198.056 212.761 197.524 213.727 197.524C215.575 197.524 216.597 198.896 216.597 201.332C216.597 203.782 215.575 205.168 213.727 205.168C212.761 205.168 211.991 204.608 211.711 203.782H211.655V205H209.863ZM213.153 203.684C214.077 203.684 214.721 203.012 214.721 201.976V200.716C214.721 199.68 214.077 198.994 213.153 198.994C212.299 198.994 211.655 199.456 211.655 200.17V202.494C211.655 203.25 212.299 203.684 213.153 203.684ZM219.314 196.628C218.572 196.628 218.264 196.25 218.264 195.732V195.452C218.264 194.934 218.572 194.556 219.314 194.556C220.042 194.556 220.364 194.934 220.364 195.452V195.732C220.364 196.25 220.042 196.628 219.314 196.628ZM218.418 205V197.692H220.21V205H218.418ZM225.205 205H224.239C223.021 205 222.447 204.356 222.447 203.236V194.64H224.239V203.572H225.205V205ZM227.618 196.628C226.876 196.628 226.568 196.25 226.568 195.732V195.452C226.568 194.934 226.876 194.556 227.618 194.556C228.346 194.556 228.668 194.934 228.668 195.452V195.732C228.668 196.25 228.346 196.628 227.618 196.628ZM226.722 205V197.692H228.514V205H226.722ZM233.033 205C231.801 205 231.143 204.328 231.143 203.138V199.12H230.065V197.692H230.625C231.157 197.692 231.325 197.44 231.325 196.936V195.69H232.935V197.692H234.433V199.12H232.935V203.572H234.321V205H233.033ZM239.354 201.556L240.628 197.692H242.308L239.368 206.302C239.004 207.352 238.486 207.8 237.282 207.8H236.204V206.372H237.52L237.856 205.35L235.238 197.692H237.016L238.29 201.556L238.766 203.404H238.85L239.354 201.556ZM253.936 203.362V205H246.614V203.348L251.668 196.866H246.866V195.228H253.796V196.88L248.728 203.362H253.936ZM258.488 205.168C256.402 205.168 255.1 203.684 255.1 201.332C255.1 198.994 256.402 197.524 258.488 197.524C260.588 197.524 261.89 198.994 261.89 201.332C261.89 203.684 260.588 205.168 258.488 205.168ZM258.488 203.726C259.426 203.726 260.014 203.124 260.014 202.018V200.66C260.014 199.568 259.426 198.966 258.488 198.966C257.564 198.966 256.976 199.568 256.976 200.66V202.018C256.976 203.124 257.564 203.726 258.488 203.726ZM265.431 205H263.639V197.692H265.431V198.91H265.501C265.795 198.126 266.411 197.524 267.545 197.524C269.043 197.524 269.883 198.56 269.883 200.38V205H268.091V200.562C268.091 199.526 267.741 198.994 266.887 198.994C266.145 198.994 265.431 199.386 265.431 200.17V205ZM274.984 205.168C272.828 205.168 271.54 203.67 271.54 201.332C271.54 199.022 272.786 197.524 274.928 197.524C277.21 197.524 278.26 199.204 278.26 201.206V201.794H273.402V201.976C273.402 203.026 274.004 203.74 275.18 203.74C276.062 203.74 276.594 203.32 277.042 202.746L278.008 203.824C277.406 204.65 276.342 205.168 274.984 205.168ZM274.956 198.868C274.018 198.868 273.402 199.568 273.402 200.576V200.688H276.398V200.562C276.398 199.554 275.88 198.868 274.956 198.868ZM290.437 205H283.703V203.502H286.391V196.558H286.265L284.137 199.078L282.989 198.112L285.411 195.228H288.197V203.502H290.437V205Z" fill="black"/>
<rect width="24" height="24" transform="translate(128 188)" fill="white" fill-opacity="0.01" style="mix-blend-mode:multiply"/>
<path d="M149 195.5H145.25V192.5C145.25 192.102 145.091 191.721 144.81 191.44C144.529 191.159 144.148 191 143.75 191H136.25C135.852 191 135.471 191.159 135.19 191.44C134.909 191.721 134.75 192.102 134.75 192.5V195.5H131C130.602 195.5 130.221 195.659 129.94 195.94C129.659 196.221 129.5 196.602 129.5 197V209C129.5 209.398 129.659 209.779 129.94 210.06C130.221 210.341 130.602 210.5 131 210.5H149C149.398 210.5 149.779 210.341 150.06 210.06C150.341 209.779 150.5 209.398 150.5 209V197C150.5 196.602 150.341 196.221 150.06 195.94C149.779 195.659 149.398 195.5 149 195.5ZM131 209V197H134.75V198.5H133.25V200H134.75V201.5H133.25V203H134.75V204.5H133.25V206H134.75V209H131ZM143.75 209H136.25V192.5H143.75V209ZM149 209H145.25V206H146.75V204.5H145.25V203H146.75V201.5H145.25V200H146.75V198.5H145.25V197H149V209Z" fill="black"/>
<path d="M141.5 194H138.5V195.5H141.5V194Z" fill="black"/>
<path d="M141.5 197H138.5V198.5H141.5V197Z" fill="black"/>
<path d="M141.5 200H138.5V201.5H141.5V200Z" fill="black"/>
</g>
<path d="M118 176V176.5H122V176H126V176.5H130V176H134V176.5H138V176H142V176.5H146V176H150V176.5H154V176H158V176.5H162V176H166V176.5H170V176H174V176.5H178V176H182V176.5H186V176H190V176.5H194V176H198V176.5H202V176H206V176.5H210V176H214V176.5H218V176H222V176.5H226V176H230V176.5H234V176H238V176.5H242V176H246V176.5H250V176H254V176.5H258V176H262V176.5H266V176H270V176.5H274V176H278V176.5H282V176H286V176.5H290V176H294V176.5H298V176H302V176.5H306V176H310V176.5H314V176H318V176.5H319.5V178.015H320V182.043H319.5V186.071H320V190.101H319.5V194.129H320V198.157H319.5V202.186H320V206.215H319.5V210.243H320V214.271H319.5V218.3H320V222.329H319.5V226.357H320V230.386H319.5V234.414H320V238.443H319.5V242.472H320V246.5H319.5V250.528H320V254.558H319.5V258.586H320V262.614H319.5V266.643H320V270.672H319.5V274.7H320V278.729H319.5V282.757H320V286.786H319.5V290.814H320V294.843H319.5V298.871H320V302.9H319.5V306.929H320V310.957H319.5V314.985H320V319.015H319.5V323.043H320V327.071H319.5V331.1H320V335.129H319.5V339.157H320V343.186H319.5V347.214H320V351.243H319.5V355.271H320V359.3H319.5V363.328H320V367.357H319.5V371.386H320V375.414H319.5V379.442H320V383.472H319.5V387.5H320V391.528H319.5V395.558H320V399.586H319.5V403.614H320V407.643H319.5V411.672H320V415.7H319.5V419.729H320V423.757H319.5V427.786H320V431.814H319.5V435.843H320V439.871H319.5V443.9H320V447.929H319.5V451.957H320V455.985H319.5V457.5H318V458H314V457.5H310V458H306V457.5H302V458H298V457.5H294V458H290V457.5H286V458H282V457.5H278V458H274V457.5H270V458H266V457.5H262V458H258V457.5H254V458H250V457.5H246V458H242V457.5H238V458H234V457.5H230V458H226V457.5H222V458H218V457.5H214V458H210V457.5H206V458H202V457.5H198V458H194V457.5H190V458H186V457.5H182V458H178V457.5H174V458H170V457.5H166V458H162V457.5H158V458H154V457.5H150V458H146V457.5H142V458H138V457.5H134V458H130V457.5H126V458H122V457.5H118V458H114V457.5H112.5V455.985H112V451.957H112.5V447.929H112V443.899H112.5V439.871H112V435.843H112.5V431.814H112V427.785H112.5V423.757H112V419.729H112.5V415.7H112V411.671H112.5V407.643H112V403.614H112.5V399.586H112V395.557H112.5V391.528H112V387.5H112.5V383.472H112V379.442H112.5V375.414H112V371.386H112.5V367.357H112V363.328H112.5V359.3H112V355.271H112.5V351.243H112V347.214H112.5V343.186H112V339.157H112.5V335.129H112V331.1H112.5V327.071H112V323.043H112.5V319.015H112V314.985H112.5V310.957H112V306.929H112.5V302.9H112V298.871H112.5V294.843H112V290.814H112.5V286.786H112V282.757H112.5V278.729H112V274.7H112.5V270.672H112V266.643H112.5V262.614H112V258.586H112.5V254.558H112V250.528H112.5V246.5H112V242.472H112.5V238.442H112V234.414H112.5V230.386H112V226.357H112.5V222.328H112V218.3H112.5V214.271H112V210.243H112.5V206.214H112V202.186H112.5V198.157H112V194.129H112.5V190.1H112V186.071H112.5V182.043H112V178.015H112.5V176.5H114V176H118Z" stroke="black" stroke-dasharray="4 4"/>
<rect width="64" height="74" transform="translate(184 352)" fill="white" fill-opacity="0.01" style="mix-blend-mode:multiply"/>
<path d="M200 352H232C236.418 352 240 355.582 240 360V392C240 396.418 236.418 400 232 400H200C195.582 400 192 396.418 192 392V360C192 355.582 195.582 352 200 352Z" fill="#0F62FE"/>
<rect width="24" height="24" transform="translate(204 364)" fill="white" fill-opacity="0.01"/>
<path d="M226.043 374.895L217.105 365.957C216.8 365.652 216.4 365.5 216 365.5C215.6 365.5 215.2 365.652 214.895 365.957L205.957 374.895C205.652 375.2 205.5 375.6 205.5 376C205.5 376.4 205.652 376.8 205.957 377.105L214.895 386.043C215.2 386.348 215.6 386.5 216 386.5C216.4 386.5 216.8 386.348 217.105 386.043L226.043 377.105C226.348 376.8 226.5 376.4 226.5 376C226.5 375.6 226.348 375.2 226.043 374.895ZM216 385.027L206.973 376L216 366.973L225.027 376L216 385.027Z" fill="white"/>
<path d="M192.699 422.168C191.033 422.168 189.885 421.51 189.059 420.544L190.305 419.34C190.977 420.124 191.803 420.544 192.811 420.544C193.945 420.544 194.533 419.998 194.533 419.172C194.533 418.514 194.225 418.108 193.203 417.926L192.279 417.786C190.305 417.478 189.353 416.54 189.353 414.944C189.353 413.194 190.711 412.06 192.895 412.06C194.365 412.06 195.457 412.564 196.241 413.502L194.981 414.692C194.505 414.09 193.833 413.684 192.797 413.684C191.747 413.684 191.201 414.104 191.201 414.832C191.201 415.574 191.621 415.882 192.559 416.05L193.469 416.218C195.443 416.568 196.367 417.45 196.367 419.06C196.367 420.908 195.037 422.168 192.699 422.168ZM201.222 422.168C199.066 422.168 197.778 420.67 197.778 418.332C197.778 416.022 199.024 414.524 201.166 414.524C203.448 414.524 204.498 416.204 204.498 418.206V418.794H199.64V418.976C199.64 420.026 200.242 420.74 201.418 420.74C202.3 420.74 202.832 420.32 203.28 419.746L204.246 420.824C203.644 421.65 202.58 422.168 201.222 422.168ZM201.194 415.868C200.256 415.868 199.64 416.568 199.64 417.576V417.688H202.636V417.562C202.636 416.554 202.118 415.868 201.194 415.868ZM208.026 422H206.234V414.692H208.026V415.91H208.096C208.39 415.126 209.006 414.524 210.14 414.524C211.638 414.524 212.478 415.56 212.478 417.38V422H210.686V417.562C210.686 416.526 210.336 415.994 209.482 415.994C208.74 415.994 208.026 416.386 208.026 417.17V422ZM216.907 422C215.675 422 215.017 421.328 215.017 420.138V416.12H213.939V414.692H214.499C215.031 414.692 215.199 414.44 215.199 413.936V412.69H216.809V414.692H218.307V416.12H216.809V420.572H218.195V422H216.907ZM220.917 413.628C220.175 413.628 219.867 413.25 219.867 412.732V412.452C219.867 411.934 220.175 411.556 220.917 411.556C221.645 411.556 221.967 411.934 221.967 412.452V412.732C221.967 413.25 221.645 413.628 220.917 413.628ZM220.021 422V414.692H221.813V422H220.021ZM225.842 422H224.05V414.692H225.842V415.91H225.912C226.206 415.126 226.822 414.524 227.956 414.524C229.454 414.524 230.294 415.56 230.294 417.38V422H228.502V417.562C228.502 416.526 228.152 415.994 227.298 415.994C226.556 415.994 225.842 416.386 225.842 417.17V422ZM235.395 422.168C233.239 422.168 231.951 420.67 231.951 418.332C231.951 416.022 233.197 414.524 235.339 414.524C237.621 414.524 238.671 416.204 238.671 418.206V418.794H233.813V418.976C233.813 420.026 234.415 420.74 235.591 420.74C236.473 420.74 237.005 420.32 237.453 419.746L238.419 420.824C237.817 421.65 236.753 422.168 235.395 422.168ZM235.367 415.868C234.429 415.868 233.813 416.568 233.813 417.576V417.688H236.809V417.562C236.809 416.554 236.291 415.868 235.367 415.868ZM243.166 422H242.2C240.982 422 240.408 421.356 240.408 420.236V411.64H242.2V420.572H243.166V422Z" fill="black"/>
<rect width="64" height="74" transform="translate(184 256)" fill="white" fill-opacity="0.01" style="mix-blend-mode:multiply"/>
<rect width="48" height="48" transform="translate(192 256)" fill="white" fill-opacity="0.01" style="mix-blend-mode:multiply"/>
<circle cx="216" cy="280" r="24" fill="#0F62FE"/>
<rect width="24" height="24" transform="translate(204 268)" fill="white" fill-opacity="0.01"/>
<path d="M216 270.25C212.027 270.25 207.75 271.189 207.75 273.25V286.75C207.75 288.811 212.027 289.75 216 289.75C219.973 289.75 224.25 288.811 224.25 286.75V273.25C224.25 271.189 219.973 270.25 216 270.25ZM216 271.75C220.348 271.75 222.596 272.826 222.748 273.25C222.596 273.674 220.348 274.75 216 274.75C211.619 274.75 209.37 273.658 209.25 273.263V273.26C209.37 272.842 211.619 271.75 216 271.75ZM209.25 275.071C210.846 275.871 213.482 276.25 216 276.25C218.518 276.25 221.154 275.871 222.75 275.071V277.74C222.63 278.158 220.381 279.25 216 279.25C211.612 279.25 209.363 278.155 209.25 277.75V275.071ZM209.25 279.571C210.846 280.371 213.482 280.75 216 280.75C218.518 280.75 221.154 280.371 222.75 279.571V282.24C222.63 282.658 220.381 283.75 216 283.75C211.612 283.75 209.363 282.655 209.25 282.25V279.571ZM216 288.25C211.612 288.25 209.363 287.155 209.25 286.75V284.071C210.846 284.871 213.482 285.25 216 285.25C218.518 285.25 221.154 284.871 222.75 284.071V286.74C222.63 287.158 220.381 288.25 216 288.25Z" fill="white"/>
<path d="M200.202 326H194.504V316.228H196.352V324.362H200.202V326ZM204.67 326.168C202.514 326.168 201.226 324.67 201.226 322.332C201.226 320.022 202.472 318.524 204.614 318.524C206.896 318.524 207.946 320.204 207.946 322.206V322.794H203.088V322.976C203.088 324.026 203.69 324.74 204.866 324.74C205.748 324.74 206.28 324.32 206.728 323.746L207.694 324.824C207.092 325.65 206.028 326.168 204.67 326.168ZM204.642 319.868C203.704 319.868 203.088 320.568 203.088 321.576V321.688H206.084V321.562C206.084 320.554 205.566 319.868 204.642 319.868ZM211.489 326.168C210.005 326.168 209.165 325.314 209.165 324.012C209.165 322.514 210.299 321.772 212.287 321.772H213.533V321.24C213.533 320.428 213.127 319.952 212.175 319.952C211.335 319.952 210.859 320.372 210.509 320.876L209.445 319.924C209.977 319.084 210.831 318.524 212.301 318.524C214.275 318.524 215.325 319.462 215.325 321.128V324.572H216.053V326H215.059C214.289 326 213.813 325.496 213.701 324.74H213.617C213.379 325.678 212.581 326.168 211.489 326.168ZM212.091 324.866C212.889 324.866 213.533 324.502 213.533 323.816V322.85H212.385C211.447 322.85 210.985 323.172 210.985 323.746V323.984C210.985 324.572 211.391 324.866 212.091 324.866ZM222.199 326V324.782H222.129C221.863 325.608 221.079 326.168 220.113 326.168C218.279 326.168 217.257 324.782 217.257 322.332C217.257 319.896 218.279 318.524 220.113 318.524C221.079 318.524 221.877 319.056 222.129 319.896H222.199V315.64H223.991V326H222.199ZM220.687 324.684C221.541 324.684 222.199 324.25 222.199 323.494V321.17C222.199 320.456 221.541 319.994 220.687 319.994C219.763 319.994 219.133 320.68 219.133 321.716V322.976C219.133 324.012 219.763 324.684 220.687 324.684ZM229.171 326.168C227.015 326.168 225.727 324.67 225.727 322.332C225.727 320.022 226.973 318.524 229.115 318.524C231.397 318.524 232.447 320.204 232.447 322.206V322.794H227.589V322.976C227.589 324.026 228.191 324.74 229.367 324.74C230.249 324.74 230.781 324.32 231.229 323.746L232.195 324.824C231.593 325.65 230.529 326.168 229.171 326.168ZM229.143 319.868C228.205 319.868 227.589 320.568 227.589 321.576V321.688H230.585V321.562C230.585 320.554 230.067 319.868 229.143 319.868ZM235.976 326H234.184V318.692H235.976V320.204H236.046C236.228 319.434 236.816 318.692 237.978 318.692H238.37V320.386H237.81C236.606 320.386 235.976 320.722 235.976 321.52V326Z" fill="black"/>
<rect width="208" height="282" transform="translate(560 176)" fill="white"/>
<rect x="560" y="176" width="208" height="282" fill="white"/>
<g clip-path="url(#clip4_576_17677)">
<path d="M625.114 205H623.196L622.412 202.508H618.94L618.17 205H616.294L619.57 195.228H621.866L625.114 205ZM621.964 200.926L620.704 196.908H620.634L619.388 200.926H621.964ZM629.915 205H627.787L625.351 197.692H627.115L628.137 200.842L628.851 203.446H628.949L629.663 200.842L630.657 197.692H632.365L629.915 205ZM635.404 205.168C633.92 205.168 633.08 204.314 633.08 203.012C633.08 201.514 634.214 200.772 636.202 200.772H637.448V200.24C637.448 199.428 637.042 198.952 636.09 198.952C635.25 198.952 634.774 199.372 634.424 199.876L633.36 198.924C633.892 198.084 634.746 197.524 636.216 197.524C638.19 197.524 639.24 198.462 639.24 200.128V203.572H639.968V205H638.974C638.204 205 637.728 204.496 637.616 203.74H637.532C637.294 204.678 636.496 205.168 635.404 205.168ZM636.006 203.866C636.804 203.866 637.448 203.502 637.448 202.816V201.85H636.3C635.362 201.85 634.9 202.172 634.9 202.746V202.984C634.9 203.572 635.306 203.866 636.006 203.866ZM642.474 196.628C641.732 196.628 641.424 196.25 641.424 195.732V195.452C641.424 194.934 641.732 194.556 642.474 194.556C643.202 194.556 643.524 194.934 643.524 195.452V195.732C643.524 196.25 643.202 196.628 642.474 196.628ZM641.578 205V197.692H643.37V205H641.578ZM648.366 205H647.4C646.182 205 645.608 204.356 645.608 203.236V194.64H647.4V203.572H648.366V205ZM651.689 205.168C650.205 205.168 649.365 204.314 649.365 203.012C649.365 201.514 650.499 200.772 652.487 200.772H653.733V200.24C653.733 199.428 653.327 198.952 652.375 198.952C651.535 198.952 651.059 199.372 650.709 199.876L649.645 198.924C650.177 198.084 651.031 197.524 652.501 197.524C654.475 197.524 655.525 198.462 655.525 200.128V203.572H656.253V205H655.259C654.489 205 654.013 204.496 653.901 203.74H653.817C653.579 204.678 652.781 205.168 651.689 205.168ZM652.291 203.866C653.089 203.866 653.733 203.502 653.733 202.816V201.85H652.585C651.647 201.85 651.185 202.172 651.185 202.746V202.984C651.185 203.572 651.591 203.866 652.291 203.866ZM657.863 205V194.64H659.655V198.896H659.711C659.977 198.056 660.761 197.524 661.727 197.524C663.575 197.524 664.597 198.896 664.597 201.332C664.597 203.782 663.575 205.168 661.727 205.168C660.761 205.168 659.991 204.608 659.711 203.782H659.655V205H657.863ZM661.153 203.684C662.077 203.684 662.721 203.012 662.721 201.976V200.716C662.721 199.68 662.077 198.994 661.153 198.994C660.299 198.994 659.655 199.456 659.655 200.17V202.494C659.655 203.25 660.299 203.684 661.153 203.684ZM667.314 196.628C666.572 196.628 666.264 196.25 666.264 195.732V195.452C666.264 194.934 666.572 194.556 667.314 194.556C668.042 194.556 668.364 194.934 668.364 195.452V195.732C668.364 196.25 668.042 196.628 667.314 196.628ZM666.418 205V197.692H668.21V205H666.418ZM673.205 205H672.239C671.021 205 670.447 204.356 670.447 203.236V194.64H672.239V203.572H673.205V205ZM675.618 196.628C674.876 196.628 674.568 196.25 674.568 195.732V195.452C674.568 194.934 674.876 194.556 675.618 194.556C676.346 194.556 676.668 194.934 676.668 195.452V195.732C676.668 196.25 676.346 196.628 675.618 196.628ZM674.722 205V197.692H676.514V205H674.722ZM681.033 205C679.801 205 679.143 204.328 679.143 203.138V199.12H678.065V197.692H678.625C679.157 197.692 679.325 197.44 679.325 196.936V195.69H680.935V197.692H682.433V199.12H680.935V203.572H682.321V205H681.033ZM687.354 201.556L688.628 197.692H690.308L687.368 206.302C687.004 207.352 686.486 207.8 685.282 207.8H684.204V206.372H685.52L685.856 205.35L683.238 197.692H685.016L686.29 201.556L686.766 203.404H686.85L687.354 201.556ZM701.936 203.362V205H694.614V203.348L699.668 196.866H694.866V195.228H701.796V196.88L696.728 203.362H701.936ZM706.488 205.168C704.402 205.168 703.1 203.684 703.1 201.332C703.1 198.994 704.402 197.524 706.488 197.524C708.588 197.524 709.89 198.994 709.89 201.332C709.89 203.684 708.588 205.168 706.488 205.168ZM706.488 203.726C707.426 203.726 708.014 203.124 708.014 202.018V200.66C708.014 199.568 707.426 198.966 706.488 198.966C705.564 198.966 704.976 199.568 704.976 200.66V202.018C704.976 203.124 705.564 203.726 706.488 203.726ZM713.431 205H711.639V197.692H713.431V198.91H713.501C713.795 198.126 714.411 197.524 715.545 197.524C717.043 197.524 717.883 198.56 717.883 200.38V205H716.091V200.562C716.091 199.526 715.741 198.994 714.887 198.994C714.145 198.994 713.431 199.386 713.431 200.17V205ZM722.984 205.168C720.828 205.168 719.54 203.67 719.54 201.332C719.54 199.022 720.786 197.524 722.928 197.524C725.21 197.524 726.26 199.204 726.26 201.206V201.794H721.402V201.976C721.402 203.026 722.004 203.74 723.18 203.74C724.062 203.74 724.594 203.32 725.042 202.746L726.008 203.824C725.406 204.65 724.342 205.168 722.984 205.168ZM722.956 198.868C722.018 198.868 721.402 199.568 721.402 200.576V200.688H724.398V200.562C724.398 199.554 723.88 198.868 722.956 198.868ZM733.131 199.176H734.097C735.217 199.176 735.735 198.658 735.735 197.958V197.86C735.735 197.062 735.175 196.572 734.293 196.572C733.439 196.572 732.767 197.006 732.291 197.748L731.115 196.684C731.773 195.774 732.697 195.06 734.349 195.06C736.323 195.06 737.667 196.04 737.667 197.608C737.667 198.868 736.813 199.624 735.791 199.834V199.918C736.925 200.128 737.835 200.912 737.835 202.298C737.835 204.02 736.393 205.168 734.237 205.168C732.333 205.168 731.381 204.3 730.765 203.348L732.123 202.312C732.557 203.096 733.145 203.656 734.237 203.656C735.315 203.656 735.917 203.096 735.917 202.186V202.088C735.917 201.192 735.259 200.716 734.097 200.716H733.131V199.176Z" fill="black"/>
<rect width="24" height="24" transform="translate(576 188)" fill="white" fill-opacity="0.01" style="mix-blend-mode:multiply"/>
<path d="M597 195.5H593.25V192.5C593.25 192.102 593.091 191.721 592.81 191.44C592.529 191.159 592.148 191 591.75 191H584.25C583.852 191 583.471 191.159 583.19 191.44C582.909 191.721 582.75 192.102 582.75 192.5V195.5H579C578.602 195.5 578.221 195.659 577.94 195.94C577.659 196.221 577.5 196.602 577.5 197V209C577.5 209.398 577.659 209.779 577.94 210.06C578.221 210.341 578.602 210.5 579 210.5H597C597.398 210.5 597.779 210.341 598.06 210.06C598.341 209.779 598.5 209.398 598.5 209V197C598.5 196.602 598.341 196.221 598.06 195.94C597.779 195.659 597.398 195.5 597 195.5ZM579 209V197H582.75V198.5H581.25V200H582.75V201.5H581.25V203H582.75V204.5H581.25V206H582.75V209H579ZM591.75 209H584.25V192.5H591.75V209ZM597 209H593.25V206H594.75V204.5H593.25V203H594.75V201.5H593.25V200H594.75V198.5H593.25V197H597V209Z" fill="black"/>
<path d="M589.5 194H586.5V195.5H589.5V194Z" fill="black"/>
<path d="M589.5 197H586.5V198.5H589.5V197Z" fill="black"/>
<path d="M589.5 200H586.5V201.5H589.5V200Z" fill="black"/>
</g>
<path d="M566 176V176.5H570V176H574V176.5H578V176H582V176.5H586V176H590V176.5H594V176H598V176.5H602V176H606V176.5H610V176H614V176.5H618V176H622V176.5H626V176H630V176.5H634V176H638V176.5H642V176H646V176.5H650V176H654V176.5H658V176H662V176.5H666V176H670V176.5H674V176H678V176.5H682V176H686V176.5H690V176H694V176.5H698V176H702V176.5H706V176H710V176.5H714V176H718V176.5H722V176H726V176.5H730V176H734V176.5H738V176H742V176.5H746V176H750V176.5H754V176H758V176.5H762V176H766V176.5H767.5V178.015H768V182.043H767.5V186.071H768V190.101H767.5V194.129H768V198.157H767.5V202.186H768V206.215H767.5V210.243H768V214.271H767.5V218.3H768V222.329H767.5V226.357H768V230.386H767.5V234.414H768V238.443H767.5V242.472H768V246.5H767.5V250.528H768V254.558H767.5V258.586H768V262.614H767.5V266.643H768V270.672H767.5V274.7H768V278.729H767.5V282.757H768V286.786H767.5V290.814H768V294.843H767.5V298.871H768V302.9H767.5V306.929H768V310.957H767.5V314.985H768V319.015H767.5V323.043H768V327.071H767.5V331.1H768V335.129H767.5V339.157H768V343.186H767.5V347.214H768V351.243H767.5V355.271H768V359.3H767.5V363.328H768V367.357H767.5V371.386H768V375.414H767.5V379.442H768V383.472H767.5V387.5H768V391.528H767.5V395.558H768V399.586H767.5V403.614H768V407.643H767.5V411.672H768V415.7H767.5V419.729H768V423.757H767.5V427.786H768V431.814H767.5V435.843H768V439.871H767.5V443.9H768V447.929H767.5V451.957H768V455.985H767.5V457.5H766V458H762V457.5H758V458H754V457.5H750V458H746V457.5H742V458H738V457.5H734V458H730V457.5H726V458H722V457.5H718V458H714V457.5H710V458H706V457.5H702V458H698V457.5H694V458H690V457.5H686V458H682V457.5H678V458H674V457.5H670V458H666V457.5H662V458H658V457.5H654V458H650V457.5H646V458H642V457.5H638V458H634V457.5H630V458H626V457.5H622V458H618V457.5H614V458H610V457.5H606V458H602V457.5H598V458H594V457.5H590V458H586V457.5H582V458H578V457.5H574V458H570V457.5H566V458H562V457.5H560.5V455.985H560V451.957H560.5V447.929H560V443.899H560.5V439.871H560V435.843H560.5V431.814H560V427.785H560.5V423.757H560V419.729H560.5V415.7H560V411.671H560.5V407.643H560V403.614H560.5V399.586H560V395.557H560.5V391.528H560V387.5H560.5V383.472H560V379.442H560.5V375.414H560V371.386H560.5V367.357H560V363.328H560.5V359.3H560V355.271H560.5V351.243H560V347.214H560.5V343.186H560V339.157H560.5V335.129H560V331.1H560.5V327.071H560V323.043H560.5V319.015H560V314.985H560.5V310.957H560V306.929H560.5V302.9H560V298.871H560.5V294.843H560V290.814H560.5V286.786H560V282.757H560.5V278.729H560V274.7H560.5V270.672H560V266.643H560.5V262.614H560V258.586H560.5V254.558H560V250.528H560.5V246.5H560V242.472H560.5V238.442H560V234.414H560.5V230.386H560V226.357H560.5V222.328H560V218.3H560.5V214.271H560V210.243H560.5V206.214H560V202.186H560.5V198.157H560V194.129H560.5V190.1H560V186.071H560.5V182.043H560V178.015H560.5V176.5H562V176H566Z" stroke="black" stroke-dasharray="4 4"/>
<rect width="64" height="74" transform="translate(632 352)" fill="white" fill-opacity="0.01" style="mix-blend-mode:multiply"/>
<path d="M648 352H680C684.418 352 688 355.582 688 360V392C688 396.418 684.418 400 680 400H648C643.582 400 640 396.418 640 392V360C640 355.582 643.582 352 648 352Z" fill="#0F62FE"/>
<rect width="24" height="24" transform="translate(652 364)" fill="white" fill-opacity="0.01"/>
<path d="M674.043 374.895L665.105 365.957C664.8 365.652 664.4 365.5 664 365.5C663.6 365.5 663.2 365.652 662.895 365.957L653.957 374.895C653.652 375.2 653.5 375.6 653.5 376C653.5 376.4 653.652 376.8 653.957 377.105L662.895 386.043C663.2 386.348 663.6 386.5 664 386.5C664.4 386.5 664.8 386.348 665.105 386.043L674.043 377.105C674.348 376.8 674.5 376.4 674.5 376C674.5 375.6 674.348 375.2 674.043 374.895ZM664 385.027L654.973 376L664 366.973L673.027 376L664 385.027Z" fill="white"/>
<path d="M640.699 422.168C639.033 422.168 637.885 421.51 637.059 420.544L638.305 419.34C638.977 420.124 639.803 420.544 640.811 420.544C641.945 420.544 642.533 419.998 642.533 419.172C642.533 418.514 642.225 418.108 641.203 417.926L640.279 417.786C638.305 417.478 637.353 416.54 637.353 414.944C637.353 413.194 638.711 412.06 640.895 412.06C642.365 412.06 643.457 412.564 644.241 413.502L642.981 414.692C642.505 414.09 641.833 413.684 640.797 413.684C639.747 413.684 639.201 414.104 639.201 414.832C639.201 415.574 639.621 415.882 640.559 416.05L641.469 416.218C643.443 416.568 644.367 417.45 644.367 419.06C644.367 420.908 643.037 422.168 640.699 422.168ZM649.222 422.168C647.066 422.168 645.778 420.67 645.778 418.332C645.778 416.022 647.024 414.524 649.166 414.524C651.448 414.524 652.498 416.204 652.498 418.206V418.794H647.64V418.976C647.64 420.026 648.242 420.74 649.418 420.74C650.3 420.74 650.832 420.32 651.28 419.746L652.246 420.824C651.644 421.65 650.58 422.168 649.222 422.168ZM649.194 415.868C648.256 415.868 647.64 416.568 647.64 417.576V417.688H650.636V417.562C650.636 416.554 650.118 415.868 649.194 415.868ZM656.026 422H654.234V414.692H656.026V415.91H656.096C656.39 415.126 657.006 414.524 658.14 414.524C659.638 414.524 660.478 415.56 660.478 417.38V422H658.686V417.562C658.686 416.526 658.336 415.994 657.482 415.994C656.74 415.994 656.026 416.386 656.026 417.17V422ZM664.907 422C663.675 422 663.017 421.328 663.017 420.138V416.12H661.939V414.692H662.499C663.031 414.692 663.199 414.44 663.199 413.936V412.69H664.809V414.692H666.307V416.12H664.809V420.572H666.195V422H664.907ZM668.917 413.628C668.175 413.628 667.867 413.25 667.867 412.732V412.452C667.867 411.934 668.175 411.556 668.917 411.556C669.645 411.556 669.967 411.934 669.967 412.452V412.732C669.967 413.25 669.645 413.628 668.917 413.628ZM668.021 422V414.692H669.813V422H668.021ZM673.842 422H672.05V414.692H673.842V415.91H673.912C674.206 415.126 674.822 414.524 675.956 414.524C677.454 414.524 678.294 415.56 678.294 417.38V422H676.502V417.562C676.502 416.526 676.152 415.994 675.298 415.994C674.556 415.994 673.842 416.386 673.842 417.17V422ZM683.395 422.168C681.239 422.168 679.951 420.67 679.951 418.332C679.951 416.022 681.197 414.524 683.339 414.524C685.621 414.524 686.671 416.204 686.671 418.206V418.794H681.813V418.976C681.813 420.026 682.415 420.74 683.591 420.74C684.473 420.74 685.005 420.32 685.453 419.746L686.419 420.824C685.817 421.65 684.753 422.168 683.395 422.168ZM683.367 415.868C682.429 415.868 681.813 416.568 681.813 417.576V417.688H684.809V417.562C684.809 416.554 684.291 415.868 683.367 415.868ZM691.166 422H690.2C688.982 422 688.408 421.356 688.408 420.236V411.64H690.2V420.572H691.166V422Z" fill="black"/>
<rect x="48.5" y="576.5" width="1007" height="239" fill="white" fill-opacity="0.01" style="mix-blend-mode:multiply"/>
<rect x="48.5" y="576.5" width="1007" height="239" stroke="#0F62FE"/>
<rect x="49" y="577" width="1006" height="238" fill="white"/>
<rect x="49" y="577" width="1006" height="238" fill="#EDF5FF"/>
<g clip-path="url(#clip5_576_17677)">
<path d="M106.996 601.234V605H105.148V595.228H109.558C111.336 595.228 112.442 596.404 112.442 598.252C112.442 599.596 111.826 600.618 110.622 601.024L112.624 605H110.566L108.746 601.234H106.996ZM106.996 599.68H109.376C110.09 599.68 110.524 599.288 110.524 598.574V597.93C110.524 597.216 110.09 596.838 109.376 596.838H106.996V599.68ZM117.242 605.168C115.086 605.168 113.798 603.67 113.798 601.332C113.798 599.022 115.044 597.524 117.186 597.524C119.468 597.524 120.518 599.204 120.518 601.206V601.794H115.66V601.976C115.66 603.026 116.262 603.74 117.438 603.74C118.32 603.74 118.852 603.32 119.3 602.746L120.266 603.824C119.664 604.65 118.6 605.168 117.242 605.168ZM117.214 598.868C116.276 598.868 115.66 599.568 115.66 600.576V600.688H118.656V600.562C118.656 599.554 118.138 598.868 117.214 598.868ZM128.848 605.616C128.848 607.142 127.812 607.968 125.012 607.968C122.548 607.968 121.61 607.324 121.61 606.246C121.61 605.434 122.1 604.972 122.912 604.846V604.692C122.31 604.538 121.974 604.062 121.974 603.474C121.974 602.718 122.618 602.34 123.318 602.186V602.13C122.436 601.724 121.988 600.968 121.988 600.002C121.988 598.518 123.038 597.524 125.012 597.524C125.46 597.524 125.922 597.58 126.286 597.706V597.468C126.286 596.754 126.65 596.404 127.322 596.404H128.456V597.776H126.902V597.972C127.658 598.392 128.036 599.106 128.036 600.002C128.036 601.472 127 602.452 125.012 602.452C124.592 602.452 124.214 602.41 123.892 602.326C123.612 602.452 123.374 602.662 123.374 602.984C123.374 603.348 123.682 603.53 124.326 603.53H126.286C128.078 603.53 128.848 604.3 128.848 605.616ZM127.168 605.826C127.168 605.364 126.832 605.084 125.922 605.084H123.43C123.164 605.28 123.052 605.546 123.052 605.84C123.052 606.4 123.472 606.736 124.592 606.736H125.488C126.65 606.736 127.168 606.442 127.168 605.826ZM125.012 601.234C125.866 601.234 126.328 600.842 126.328 600.114V599.876C126.328 599.134 125.866 598.756 125.012 598.756C124.158 598.756 123.696 599.134 123.696 599.876V600.114C123.696 600.842 124.158 601.234 125.012 601.234ZM130.939 596.628C130.197 596.628 129.889 596.25 129.889 595.732V595.452C129.889 594.934 130.197 594.556 130.939 594.556C131.667 594.556 131.989 594.934 131.989 595.452V595.732C131.989 596.25 131.667 596.628 130.939 596.628ZM130.043 605V597.692H131.835V605H130.043ZM136.97 605.168C134.884 605.168 133.582 603.684 133.582 601.332C133.582 598.994 134.884 597.524 136.97 597.524C139.07 597.524 140.372 598.994 140.372 601.332C140.372 603.684 139.07 605.168 136.97 605.168ZM136.97 603.726C137.908 603.726 138.496 603.124 138.496 602.018V600.66C138.496 599.568 137.908 598.966 136.97 598.966C136.046 598.966 135.458 599.568 135.458 600.66V602.018C135.458 603.124 136.046 603.726 136.97 603.726ZM143.913 605H142.121V597.692H143.913V598.91H143.983C144.277 598.126 144.893 597.524 146.027 597.524C147.525 597.524 148.365 598.56 148.365 600.38V605H146.573V600.562C146.573 599.526 146.223 598.994 145.369 598.994C144.627 598.994 143.913 599.386 143.913 600.17V605Z" fill="black"/>
<rect width="24" height="24" transform="translate(64 588)" fill="white" fill-opacity="0.01" style="mix-blend-mode:multiply"/>
<path d="M76 601.5C75.2583 601.5 74.5333 601.28 73.9166 600.868C73.2999 600.456 72.8193 599.87 72.5355 599.185C72.2516 598.5 72.1774 597.746 72.3221 597.018C72.4668 596.291 72.8239 595.623 73.3484 595.098C73.8728 594.574 74.541 594.217 75.2684 594.072C75.9958 593.927 76.7498 594.002 77.4351 594.285C78.1203 594.569 78.706 595.05 79.118 595.667C79.5301 596.283 79.75 597.008 79.75 597.75C79.7489 598.744 79.3534 599.697 78.6504 600.4C77.9474 601.103 76.9942 601.499 76 601.5ZM76 595.5C75.555 595.5 75.12 595.632 74.75 595.879C74.38 596.126 74.0916 596.478 73.9213 596.889C73.751 597.3 73.7064 597.752 73.7932 598.189C73.8801 598.625 74.0943 599.026 74.409 599.341C74.7237 599.656 75.1246 599.87 75.5611 599.957C75.9975 600.044 76.4499 599.999 76.861 599.829C77.2722 599.658 77.6236 599.37 77.8708 599C78.118 598.63 78.25 598.195 78.25 597.75C78.2494 597.153 78.0121 596.582 77.5903 596.16C77.1685 595.738 76.5965 595.501 76 595.5Z" fill="black"/>
<path d="M76 610.5L69.6734 603.038C69.6375 602.996 69.4122 602.7 69.4122 602.7C68.3314 601.276 67.7475 599.537 67.75 597.75C67.75 595.562 68.6192 593.464 70.1664 591.916C71.7136 590.369 73.812 589.5 76 589.5C78.188 589.5 80.2865 590.369 81.8336 591.916C83.3808 593.464 84.25 595.562 84.25 597.75C84.2527 599.537 83.6692 601.275 82.5889 602.698L82.5878 602.7C82.5878 602.7 82.3628 602.996 82.3293 603.035L76 610.5ZM70.6094 601.796C70.6094 601.796 70.7844 602.027 70.8243 602.077L76 608.181L81.1825 602.068C81.2154 602.027 81.3916 601.794 81.3916 601.794C82.2746 600.631 82.7517 599.21 82.75 597.75C82.75 595.96 82.0388 594.243 80.773 592.977C79.5071 591.711 77.7902 591 76 591C74.2098 591 72.4929 591.711 71.227 592.977C69.9612 594.243 69.25 595.96 69.25 597.75C69.2483 599.211 69.7259 600.632 70.6094 601.796Z" fill="black"/>
<line x1="50" y1="576" x2="50" y2="624" stroke="#0F62FE" stroke-width="4"/>
</g>
<rect x="816.5" y="176.5" width="207" height="591" stroke="#0F62FE"/>
<g clip-path="url(#clip6_576_17677)">
<path d="M873.148 205V195.228H877.67C879.28 195.228 880.26 196.222 880.26 197.734C880.26 199.218 879.406 199.778 878.51 199.834V199.918C879.364 199.932 880.624 200.534 880.624 202.2C880.624 203.768 879.546 205 878.104 205H873.148ZM874.996 200.814V203.432H877.572C878.272 203.432 878.692 203.054 878.692 202.368V201.892C878.692 201.206 878.272 200.814 877.572 200.814H874.996ZM874.996 196.796V199.302H877.278C877.95 199.302 878.342 198.91 878.342 198.266V197.832C878.342 197.174 877.95 196.796 877.278 196.796H874.996ZM884.285 205.168C882.801 205.168 881.961 204.314 881.961 203.012C881.961 201.514 883.095 200.772 885.083 200.772H886.329V200.24C886.329 199.428 885.923 198.952 884.971 198.952C884.131 198.952 883.655 199.372 883.305 199.876L882.241 198.924C882.773 198.084 883.627 197.524 885.097 197.524C887.071 197.524 888.121 198.462 888.121 200.128V203.572H888.849V205H887.855C887.085 205 886.609 204.496 886.497 203.74H886.413C886.175 204.678 885.377 205.168 884.285 205.168ZM884.887 203.866C885.685 203.866 886.329 203.502 886.329 202.816V201.85H885.181C884.243 201.85 883.781 202.172 883.781 202.746V202.984C883.781 203.572 884.187 203.866 884.887 203.866ZM893.344 205.168C891.188 205.168 889.97 203.684 889.97 201.332C889.97 198.994 891.188 197.524 893.344 197.524C894.814 197.524 895.78 198.224 896.214 199.372L894.744 200.03C894.576 199.414 894.114 198.966 893.344 198.966C892.35 198.966 891.846 199.666 891.846 200.688V202.018C891.846 203.04 892.35 203.726 893.344 203.726C894.198 203.726 894.618 203.236 894.884 202.578L896.256 203.236C895.78 204.524 894.758 205.168 893.344 205.168ZM897.797 205V194.64H899.589V200.884H899.659L900.625 199.568L902.263 197.692H904.293L901.773 200.52L904.559 205H902.431L900.555 201.724L899.589 202.774V205H897.797ZM910.05 205V203.782H909.98C909.728 204.51 909.14 205.168 907.936 205.168C906.438 205.168 905.598 204.132 905.598 202.312V197.692H907.39V202.13C907.39 203.138 907.768 203.684 908.622 203.684C909.336 203.684 910.05 203.306 910.05 202.522V197.692H911.842V205H910.05ZM914.072 207.8V197.692H915.864V198.896H915.92C916.186 198.056 916.97 197.524 917.936 197.524C919.784 197.524 920.806 198.896 920.806 201.332C920.806 203.782 919.784 205.168 917.936 205.168C916.97 205.168 916.2 204.608 915.92 203.782H915.864V207.8H914.072ZM917.362 203.684C918.286 203.684 918.93 203.012 918.93 201.976V200.716C918.93 199.68 918.286 198.994 917.362 198.994C916.508 198.994 915.864 199.456 915.864 200.17V202.494C915.864 203.25 916.508 203.684 917.362 203.684ZM925.021 205.168C923.635 205.168 922.725 204.664 921.997 203.824L923.089 202.76C923.621 203.376 924.265 203.754 925.091 203.754C925.945 203.754 926.309 203.432 926.309 202.914C926.309 202.494 926.057 202.228 925.413 202.144L924.685 202.046C923.117 201.85 922.249 201.164 922.249 199.834C922.249 198.42 923.355 197.524 925.021 197.524C926.449 197.524 927.177 197.944 927.877 198.672L926.827 199.722C926.407 199.274 925.791 198.938 925.077 198.938C924.307 198.938 923.971 199.246 923.971 199.694C923.971 200.184 924.237 200.408 924.923 200.52L925.665 200.618C927.261 200.842 928.031 201.556 928.031 202.774C928.031 204.188 926.841 205.168 925.021 205.168Z" fill="black"/>
<g clip-path="url(#clip7_576_17677)">
<rect width="24" height="24" transform="translate(832 188)" fill="white" fill-opacity="0.01" style="mix-blend-mode:multiply"/>
<path d="M851.366 195.593C851.039 193.879 850.124 192.333 848.78 191.221C847.435 190.108 845.745 189.5 844 189.5C842.255 189.5 840.565 190.108 839.22 191.221C837.876 192.333 836.961 193.879 836.634 195.593C835.25 195.84 834.009 196.597 833.156 197.713C832.302 198.83 831.898 200.225 832.022 201.625C832.146 203.025 832.791 204.328 833.828 205.277C834.865 206.225 836.22 206.751 837.625 206.75H838V205.25H837.625C836.556 205.251 835.528 204.836 834.759 204.093C833.99 203.351 833.539 202.338 833.503 201.269C833.466 200.201 833.846 199.16 834.562 198.366C835.279 197.572 836.276 197.088 837.342 197.016L837.97 196.973L838.037 196.348C838.198 194.878 838.895 193.52 839.995 192.533C841.096 191.546 842.522 191 844 191C845.478 191 846.904 191.546 848.005 192.533C849.105 193.52 849.803 194.878 849.963 196.348L850.031 196.973L850.658 197.016C851.725 197.088 852.721 197.572 853.438 198.366C854.154 199.16 854.534 200.201 854.497 201.27C854.461 202.338 854.01 203.351 853.241 204.093C852.472 204.836 851.444 205.251 850.375 205.25H850V206.75H850.375C851.78 206.751 853.135 206.225 854.172 205.277C855.209 204.328 855.854 203.025 855.978 201.625C856.102 200.226 855.698 198.83 854.844 197.713C853.991 196.597 852.75 195.84 851.366 195.593Z" fill="black"/>
<path d="M849.25 204.5V203H847.674C847.577 202.531 847.391 202.084 847.125 201.685L848.243 200.568L847.182 199.507L846.065 200.625C845.666 200.359 845.219 200.173 844.75 200.076V198.5H843.25V200.076C842.781 200.173 842.334 200.359 841.935 200.625L840.818 199.507L839.757 200.568L840.875 201.685C840.609 202.084 840.423 202.531 840.326 203H838.75V204.5H840.326C840.423 204.97 840.609 205.416 840.875 205.815L839.757 206.932L840.818 207.993L841.935 206.875C842.334 207.141 842.78 207.328 843.25 207.424V209H844.75V207.424C845.219 207.328 845.666 207.141 846.065 206.875L847.182 207.993L848.243 206.932L847.125 205.815C847.391 205.416 847.577 204.97 847.674 204.5H849.25ZM844 206C843.555 206 843.12 205.868 842.75 205.621C842.38 205.374 842.092 205.022 841.921 204.611C841.751 204.2 841.706 203.748 841.793 203.311C841.88 202.875 842.094 202.474 842.409 202.159C842.724 201.844 843.125 201.63 843.561 201.543C843.997 201.457 844.45 201.501 844.861 201.671C845.272 201.842 845.624 202.13 845.871 202.5C846.118 202.87 846.25 203.305 846.25 203.75C846.249 204.347 846.012 204.919 845.59 205.34C845.168 205.762 844.597 205.999 844 206Z" fill="black"/>
</g>
<line x1="818" y1="176" x2="818" y2="224" stroke="#0F62FE" stroke-width="4"/>
</g>
<path d="M904 278H936C940.418 278 944 281.582 944 286V318C944 322.418 940.418 326 936 326H904C899.582 326 896 322.418 896 318V286C896 281.582 899.582 278 904 278Z" fill="#0F62FE"/>
<rect width="24" height="24" transform="translate(908 290)" fill="white" fill-opacity="0.01"/>
<path d="M929 305H927.5V306.5H929V311H911V306.5H918.5V305H911C910.602 305 910.221 305.159 909.94 305.44C909.659 305.721 909.5 306.102 909.5 306.5V311C909.5 311.398 909.659 311.779 909.94 312.06C910.221 312.341 910.602 312.5 911 312.5H929C929.398 312.5 929.779 312.341 930.06 312.06C930.341 311.779 930.5 311.398 930.5 311V306.5C930.5 306.102 930.341 305.721 930.06 305.44C929.779 305.159 929.398 305 929 305Z" fill="#F4F4F4"/>
<path d="M913.25 309.5C913.664 309.5 914 309.164 914 308.75C914 308.336 913.664 308 913.25 308C912.836 308 912.5 308.336 912.5 308.75C912.5 309.164 912.836 309.5 913.25 309.5Z" fill="#F4F4F4"/>
<path d="M930.5 296H924.5V300.5H920V306.5H926V302H930.5V296ZM924.5 305H921.5V302H924.5V305ZM929 300.5H926V297.5H929V300.5Z" fill="#F4F4F4"/>
<path d="M921.5 297.5H915.5V291.5H921.5V297.5ZM917 296H920V293H917V296Z" fill="#F4F4F4"/>
<path d="M903.278 348.168C900.716 348.168 899.022 346.418 899.022 343.114C899.022 339.81 900.716 338.06 903.278 338.06C905.854 338.06 907.534 339.81 907.534 343.114C907.534 346.418 905.854 348.168 903.278 348.168ZM903.278 346.53C904.678 346.53 905.574 345.536 905.574 343.87V342.358C905.574 340.692 904.678 339.698 903.278 339.698C901.878 339.698 900.982 340.692 900.982 342.358V343.87C900.982 345.536 901.878 346.53 903.278 346.53ZM909.457 348V337.64H911.249V341.896H911.305C911.571 341.056 912.355 340.524 913.321 340.524C915.169 340.524 916.191 341.896 916.191 344.332C916.191 346.782 915.169 348.168 913.321 348.168C912.355 348.168 911.585 347.608 911.305 346.782H911.249V348H909.457ZM912.747 346.684C913.671 346.684 914.315 346.012 914.315 344.976V343.716C914.315 342.68 913.671 341.994 912.747 341.994C911.893 341.994 911.249 342.456 911.249 343.17V345.494C911.249 346.25 911.893 346.684 912.747 346.684ZM918.012 349.372V340.692H919.804V348.882C919.804 350.1 919.216 350.8 917.872 350.8H916.892V349.372H918.012ZM918.908 339.628C918.166 339.628 917.858 339.25 917.858 338.732V338.452C917.858 337.934 918.166 337.556 918.908 337.556C919.636 337.556 919.958 337.934 919.958 338.452V338.732C919.958 339.25 919.636 339.628 918.908 339.628ZM924.995 348.168C922.839 348.168 921.551 346.67 921.551 344.332C921.551 342.022 922.797 340.524 924.939 340.524C927.221 340.524 928.271 342.204 928.271 344.206V344.794H923.413V344.976C923.413 346.026 924.015 346.74 925.191 346.74C926.073 346.74 926.605 346.32 927.053 345.746L928.019 346.824C927.417 347.65 926.353 348.168 924.995 348.168ZM924.967 341.868C924.029 341.868 923.413 342.568 923.413 343.576V343.688H926.409V343.562C926.409 342.554 925.891 341.868 924.967 341.868ZM932.892 348.168C930.736 348.168 929.518 346.684 929.518 344.332C929.518 341.994 930.736 340.524 932.892 340.524C934.362 340.524 935.328 341.224 935.762 342.372L934.292 343.03C934.124 342.414 933.662 341.966 932.892 341.966C931.898 341.966 931.394 342.666 931.394 343.688V345.018C931.394 346.04 931.898 346.726 932.892 346.726C933.746 346.726 934.166 346.236 934.432 345.578L935.804 346.236C935.328 347.524 934.306 348.168 932.892 348.168ZM939.627 348C938.395 348 937.737 347.328 937.737 346.138V342.12H936.659V340.692H937.219C937.751 340.692 937.919 340.44 937.919 339.936V338.69H939.529V340.692H941.027V342.12H939.529V346.572H940.915V348H939.627ZM898.453 366V355.64H900.245V359.896H900.301C900.567 359.056 901.351 358.524 902.317 358.524C904.165 358.524 905.187 359.896 905.187 362.332C905.187 364.782 904.165 366.168 902.317 366.168C901.351 366.168 900.581 365.608 900.301 364.782H900.245V366H898.453ZM901.743 364.684C902.667 364.684 903.311 364.012 903.311 362.976V361.716C903.311 360.68 902.667 359.994 901.743 359.994C900.889 359.994 900.245 360.456 900.245 361.17V363.494C900.245 364.25 900.889 364.684 901.743 364.684ZM911.376 366V364.782H911.306C911.054 365.51 910.466 366.168 909.262 366.168C907.764 366.168 906.924 365.132 906.924 363.312V358.692H908.716V363.13C908.716 364.138 909.094 364.684 909.948 364.684C910.662 364.684 911.376 364.306 911.376 363.522V358.692H913.168V366H911.376ZM918.282 366.168C916.126 366.168 914.908 364.684 914.908 362.332C914.908 359.994 916.126 358.524 918.282 358.524C919.752 358.524 920.718 359.224 921.152 360.372L919.682 361.03C919.514 360.414 919.052 359.966 918.282 359.966C917.288 359.966 916.784 360.666 916.784 361.688V363.018C916.784 364.04 917.288 364.726 918.282 364.726C919.136 364.726 919.556 364.236 919.822 363.578L921.194 364.236C920.718 365.524 919.696 366.168 918.282 366.168ZM922.736 366V355.64H924.528V361.884H924.598L925.564 360.568L927.202 358.692H929.232L926.712 361.52L929.498 366H927.37L925.494 362.724L924.528 363.774V366H922.736ZM933.37 366.168C931.214 366.168 929.926 364.67 929.926 362.332C929.926 360.022 931.172 358.524 933.314 358.524C935.596 358.524 936.646 360.204 936.646 362.206V362.794H931.788V362.976C931.788 364.026 932.39 364.74 933.566 364.74C934.448 364.74 934.98 364.32 935.428 363.746L936.394 364.824C935.792 365.65 934.728 366.168 933.37 366.168ZM933.342 359.868C932.404 359.868 931.788 360.568 931.788 361.576V361.688H934.784V361.562C934.784 360.554 934.266 359.868 933.342 359.868ZM940.664 366C939.432 366 938.774 365.328 938.774 364.138V360.12H937.696V358.692H938.256C938.788 358.692 938.956 358.44 938.956 357.936V356.69H940.566V358.692H942.064V360.12H940.566V364.572H941.952V366H940.664Z" fill="black"/>
<path d="M904 625H936C940.418 625 944 628.582 944 633V665C944 669.418 940.418 673 936 673H904C899.582 673 896 669.418 896 665V633C896 628.582 899.582 625 904 625Z" fill="#0F62FE"/>
<rect width="24" height="24" transform="translate(908 637)" fill="white" fill-opacity="0.01"/>
<path d="M929 652H927.5V653.5H929V658H911V653.5H918.5V652H911C910.602 652 910.221 652.159 909.94 652.44C909.659 652.721 909.5 653.102 909.5 653.5V658C909.5 658.398 909.659 658.779 909.94 659.06C910.221 659.341 910.602 659.5 911 659.5H929C929.398 659.5 929.779 659.341 930.06 659.06C930.341 658.779 930.5 658.398 930.5 658V653.5C930.5 653.102 930.341 652.721 930.06 652.44C929.779 652.159 929.398 652 929 652Z" fill="#F4F4F4"/>
<path d="M913.25 656.5C913.664 656.5 914 656.164 914 655.75C914 655.336 913.664 655 913.25 655C912.836 655 912.5 655.336 912.5 655.75C912.5 656.164 912.836 656.5 913.25 656.5Z" fill="#F4F4F4"/>
<path d="M930.5 643H924.5V647.5H920V653.5H926V649H930.5V643ZM924.5 652H921.5V649H924.5V652ZM929 647.5H926V644.5H929V647.5Z" fill="#F4F4F4"/>
<path d="M921.5 644.5H915.5V638.5H921.5V644.5ZM917 643H920V640H917V643Z" fill="#F4F4F4"/>
<path d="M903.278 695.168C900.716 695.168 899.022 693.418 899.022 690.114C899.022 686.81 900.716 685.06 903.278 685.06C905.854 685.06 907.534 686.81 907.534 690.114C907.534 693.418 905.854 695.168 903.278 695.168ZM903.278 693.53C904.678 693.53 905.574 692.536 905.574 690.87V689.358C905.574 687.692 904.678 686.698 903.278 686.698C901.878 686.698 900.982 687.692 900.982 689.358V690.87C900.982 692.536 901.878 693.53 903.278 693.53ZM909.457 695V684.64H911.249V688.896H911.305C911.571 688.056 912.355 687.524 913.321 687.524C915.169 687.524 916.191 688.896 916.191 691.332C916.191 693.782 915.169 695.168 913.321 695.168C912.355 695.168 911.585 694.608 911.305 693.782H911.249V695H909.457ZM912.747 693.684C913.671 693.684 914.315 693.012 914.315 691.976V690.716C914.315 689.68 913.671 688.994 912.747 688.994C911.893 688.994 911.249 689.456 911.249 690.17V692.494C911.249 693.25 911.893 693.684 912.747 693.684ZM918.012 696.372V687.692H919.804V695.882C919.804 697.1 919.216 697.8 917.872 697.8H916.892V696.372H918.012ZM918.908 686.628C918.166 686.628 917.858 686.25 917.858 685.732V685.452C917.858 684.934 918.166 684.556 918.908 684.556C919.636 684.556 919.958 684.934 919.958 685.452V685.732C919.958 686.25 919.636 686.628 918.908 686.628ZM924.995 695.168C922.839 695.168 921.551 693.67 921.551 691.332C921.551 689.022 922.797 687.524 924.939 687.524C927.221 687.524 928.271 689.204 928.271 691.206V691.794H923.413V691.976C923.413 693.026 924.015 693.74 925.191 693.74C926.073 693.74 926.605 693.32 927.053 692.746L928.019 693.824C927.417 694.65 926.353 695.168 924.995 695.168ZM924.967 688.868C924.029 688.868 923.413 689.568 923.413 690.576V690.688H926.409V690.562C926.409 689.554 925.891 688.868 924.967 688.868ZM932.892 695.168C930.736 695.168 929.518 693.684 929.518 691.332C929.518 688.994 930.736 687.524 932.892 687.524C934.362 687.524 935.328 688.224 935.762 689.372L934.292 690.03C934.124 689.414 933.662 688.966 932.892 688.966C931.898 688.966 931.394 689.666 931.394 690.688V692.018C931.394 693.04 931.898 693.726 932.892 693.726C933.746 693.726 934.166 693.236 934.432 692.578L935.804 693.236C935.328 694.524 934.306 695.168 932.892 695.168ZM939.627 695C938.395 695 937.737 694.328 937.737 693.138V689.12H936.659V687.692H937.219C937.751 687.692 937.919 687.44 937.919 686.936V685.69H939.529V687.692H941.027V689.12H939.529V693.572H940.915V695H939.627ZM898.453 713V702.64H900.245V706.896H900.301C900.567 706.056 901.351 705.524 902.317 705.524C904.165 705.524 905.187 706.896 905.187 709.332C905.187 711.782 904.165 713.168 902.317 713.168C901.351 713.168 900.581 712.608 900.301 711.782H900.245V713H898.453ZM901.743 711.684C902.667 711.684 903.311 711.012 903.311 709.976V708.716C903.311 707.68 902.667 706.994 901.743 706.994C900.889 706.994 900.245 707.456 900.245 708.17V710.494C900.245 711.25 900.889 711.684 901.743 711.684ZM911.376 713V711.782H911.306C911.054 712.51 910.466 713.168 909.262 713.168C907.764 713.168 906.924 712.132 906.924 710.312V705.692H908.716V710.13C908.716 711.138 909.094 711.684 909.948 711.684C910.662 711.684 911.376 711.306 911.376 710.522V705.692H913.168V713H911.376ZM918.282 713.168C916.126 713.168 914.908 711.684 914.908 709.332C914.908 706.994 916.126 705.524 918.282 705.524C919.752 705.524 920.718 706.224 921.152 707.372L919.682 708.03C919.514 707.414 919.052 706.966 918.282 706.966C917.288 706.966 916.784 707.666 916.784 708.688V710.018C916.784 711.04 917.288 711.726 918.282 711.726C919.136 711.726 919.556 711.236 919.822 710.578L921.194 711.236C920.718 712.524 919.696 713.168 918.282 713.168ZM922.736 713V702.64H924.528V708.884H924.598L925.564 707.568L927.202 705.692H929.232L926.712 708.52L929.498 713H927.37L925.494 709.724L924.528 710.774V713H922.736ZM933.37 713.168C931.214 713.168 929.926 711.67 929.926 709.332C929.926 707.022 931.172 705.524 933.314 705.524C935.596 705.524 936.646 707.204 936.646 709.206V709.794H931.788V709.976C931.788 711.026 932.39 711.74 933.566 711.74C934.448 711.74 934.98 711.32 935.428 710.746L936.394 711.824C935.792 712.65 934.728 713.168 933.37 713.168ZM933.342 706.868C932.404 706.868 931.788 707.568 931.788 708.576V708.688H934.784V708.562C934.784 707.554 934.266 706.868 933.342 706.868ZM940.664 713C939.432 713 938.774 712.328 938.774 711.138V707.12H937.696V705.692H938.256C938.788 705.692 938.956 705.44 938.956 704.936V703.69H940.566V705.692H942.064V707.12H940.566V711.572H941.952V713H940.664Z" fill="black"/>
<rect width="203.371" height="48" transform="translate(992 304) rotate(90)" fill="white" fill-opacity="0.01" style="mix-blend-mode:multiply"/>
<path d="M992 507.371L992 312C992 307.582 988.418 304 984 304L944 304" stroke="black" stroke-dasharray="4 4"/>
<rect width="141.71" height="48" transform="matrix(1.39246e-08 -1 -1 -1.02124e-08 992 648)" fill="white" fill-opacity="0.01" style="mix-blend-mode:multiply"/>
<path d="M992 506.29L992 640C992 644.418 988.418 648 984 648L944 648" stroke="black" stroke-dasharray="4 4"/>
<defs>
<clipPath id="clip0_576_17677">
<rect width="1105" height="48" fill="white"/>
</clipPath>
<clipPath id="clip1_576_17677">
<rect width="1008" height="48" fill="white" transform="translate(48 96)"/>
</clipPath>
<clipPath id="clip2_576_17677">
<rect width="208" height="48" fill="white" transform="translate(336 176)"/>
</clipPath>
<clipPath id="clip3_576_17677">
<rect width="208" height="48" fill="white" transform="translate(112 176)"/>
</clipPath>
<clipPath id="clip4_576_17677">
<rect width="208" height="48" fill="white" transform="translate(560 176)"/>
</clipPath>
<clipPath id="clip5_576_17677">
<rect width="1008" height="48" fill="white" transform="translate(48 576)"/>
</clipPath>
<clipPath id="clip6_576_17677">
<rect width="208" height="48" fill="white" transform="translate(816 176)"/>
</clipPath>
<clipPath id="clip7_576_17677">
<rect width="24" height="24" fill="white" transform="translate(832 188)"/>
</clipPath>
</defs>
</svg>
